SplineFontDB: 3.2
FontName: Rooben-ExtraBlack
FullName: Rooben ExtraBlack
FamilyName: Rooben
Weight: ExtraBlack
Copyright: Copyright (c) 2024, Zamero Type Foundry
UComments: "2024-1-23: Created with FontForge (http://fontforge.org)"
Version: 001.000
ItalicAngle: 0
UnderlinePosition: -100
UnderlineWidth: 50
Ascent: 800
Descent: 200
InvalidEm: 0
LayerCount: 2
Layer: 0 0 "Back" 1
Layer: 1 0 "Fore" 0
XUID: [1021 474 1118879153 4627]
FSType: 0
OS2Version: 0
OS2_WeightWidthSlopeOnly: 0
OS2_UseTypoMetrics: 1
CreationTime: 1706047360
ModificationTime: 1706299650
PfmFamily: 81
TTFWeight: 1000
TTFWidth: 5
LineGap: 90
VLineGap: 0
Panose: 2 0 11 3 0 0 0 0 0 0
OS2TypoAscent: 0
OS2TypoAOffset: 1
OS2TypoDescent: 0
OS2TypoDOffset: 1
OS2TypoLinegap: 90
OS2WinAscent: 0
OS2WinAOffset: 1
OS2WinDescent: 0
OS2WinDOffset: 1
HheadAscent: 0
HheadAOffset: 1
HheadDescent: 0
HheadDOffset: 1
OS2Vendor: 'PfEd'
Lookup: 1 0 0 "'sups' Superscript lookup 0" { "'sups' Superscript lookup 0 subtable" ("superior") } ['sups' ('DFLT' <'dflt' > ) ]
Lookup: 1 0 0 "'ss02' Style Set 2 in Latin lookup 1" { "'ss02' Style Set 2 in Latin lookup 1-1" ("ss02") } ['ss02' ('DFLT' <'dflt' > 'latn' <'dflt' > ) ]
Lookup: 1 0 0 "'ss01' Style Set 1 in Latin lookup 0" { "'ss01' Style Set 1 in Latin lookup 0-1" ("ss01") } ['ss01' ('DFLT' <'dflt' > 'latn' <'dflt' > ) ]
Lookup: 258 0 0 "'kern' Horizontal Kerning in Latin lookup 0" { "'kern' Horizontal Kerning in Latin lookup 0-1" [150,15,2] } ['kern' ('DFLT' <'dflt' > 'latn' <'dflt' > ) ]
MarkAttachClasses: 1
DEI: 91125

StartChar: I
Encoding: 73 73 0
Width: 456
Flags: W
HStem: -9.99805 21G<146.539 309.461> 719.002 20G<146.539 309.461>
VStem: 50 356<111.341 618.008>
LayerCount: 2
Fore
SplineSet
50 365.001953125 m 4
 50 591.8515625 65.0778388278 739.001953125 228 739.001953125 c 0
 390.922161172 739.001953125 406 591.8515625 406 365.001953125 c 4
 406 137.599609375 390.922161172 -9.998046875 228 -9.998046875 c 4
 65.0778388278 -9.998046875 50 137.599609375 50 365.001953125 c 4
EndSplineSet
EndChar

StartChar: O
Encoding: 79 79 1
Width: 836
Flags: W
HStem: -9.99805 21G<301.489 534.511> 719.002 20G<301.489 534.511>
VStem: 40 756<227.935 501.725>
LayerCount: 2
Back
SplineSet
309.120117188 364.681640625 m 4
 309.120117188 294.944921875 350.879997826 249.681640625 418 249.681640625 c 4
 485.120002174 249.681640625 526.879882812 294.944921875 526.879882812 364.681640625 c 4
 526.879882812 434.21688394 485.120002174 479.322265625 418 479.322265625 c 4
 350.879997826 479.322265625 309.120117188 434.21688394 309.120117188 364.681640625 c 4
40 365.001953125 m 0
 40 591.8515625 184.97843379 739.001953125 418 739.001953125 c 0
 651.02156621 739.001953125 796 591.8515625 796 365.001953125 c 0
 796 137.599609375 651.02156621 -9.998046875 418 -9.998046875 c 0
 184.97843379 -9.998046875 40 137.599609375 40 365.001953125 c 0
EndSplineSet
Fore
SplineSet
40 365.001953125 m 4
 40 591.8515625 184.97843379 739.001953125 418 739.001953125 c 4
 651.02156621 739.001953125 796 591.8515625 796 365.001953125 c 4
 796 137.599609375 651.02156621 -9.998046875 418 -9.998046875 c 4
 184.97843379 -9.998046875 40 137.599609375 40 365.001953125 c 4
EndSplineSet
Substitution2: "'ss01' Style Set 1 in Latin lookup 0-1" O.ss01
EndChar

StartChar: V
Encoding: 86 86 2
Width: 806
Flags: W
HStem: -9.99805 21G<288.03 517.97> 719.002 20G<146.039 274.111 531.889 659.961>
VStem: 30 334.943<376.017 629.364> 441.057 334.943<376.017 629.364>
LayerCount: 2
Fore
SplineSet
440 465.001953125 m 0
 440.356477871 468.775161182 440.708331061 472.515444338 441.057050447 476.222414415 c 0
 456.483337351 640.207515801 465.777055632 739.001953125 598 739.001953125 c 0
 721.922851562 739.001953125 776 662.672851562 776 545.001953125 c 0
 776 293.017578125 632.939453125 -9.998046875 403 -9.998046875 c 0
 173.060546875 -9.998046875 30 293.017578125 30 545.001953125 c 0
 30 662.672851562 84.0771484375 739.001953125 208 739.001953125 c 0
 340.222944368 739.001953125 349.516662649 640.207515801 364.942949553 476.222414415 c 0
 365.291668939 472.515444338 365.643522129 468.775161182 366 465.001953125 c 0
 377.749023438 363.333984375 386 349.001953125 403 349.001953125 c 0
 420 349.001953125 428.250976562 363.333984375 440 465.001953125 c 0
EndSplineSet
EndChar

StartChar: U
Encoding: 85 85 3
Width: 846
Flags: W
HStem: -10 21G<294.183 551.817> 719.002 20G<156.413 291.308 554.692 689.587>
VStem: 50 333.511<276.356 608.843> 462.489 333.511<276.356 608.843>
LayerCount: 2
Fore
SplineSet
423 -10 m 0
 165.365234375 -10 50 149.347876809 50 395.001953125 c 0
 50 603.655069769 76.8269230769 739.001953125 236 739.001953125 c 0
 346.6152339 739.001953125 385.318359375 685.444163363 385.318359375 592.504882812 c 0
 385.318359375 497.117122877 383.510742188 435.829166186 383.510742188 340.44140625 c 0
 383.510742188 292.978506194 391.706223727 270.366210938 422.94921875 270.366210938 c 0
 454.294687791 270.366210938 462.489257812 292.97798974 462.489257812 340.44140625 c 0
 462.489257812 435.827832123 460.681640625 497.118456939 460.681640625 592.504882812 c 0
 460.681640625 685.444335938 499.384765625 739.001953125 610 739.001953125 c 0
 769.173225565 739.001953125 796 603.655133929 796 395.001953125 c 0
 796 149.347489504 680.634765625 -10 423 -10 c 0
EndSplineSet
EndChar

StartChar: D
Encoding: 68 68 4
Width: 806
Flags: W
HStem: -9.99805 21G<191.383 447.205> -9.99805 21G<191.383 447.205> 719.002 20G<191.304 447.222> 719.002 20G<191.304 447.222>
VStem: 50 716<228.208 501.441>
LayerCount: 2
Fore
SplineSet
50 365.001953125 m 0xa8
 50 668.902768464 94.608572057 739.001953125 288 739.001953125 c 0
 606.443604325 739.001953125 766 614.160756509 766 365.001953125 c 4
 766 115.202704907 606.410775062 -9.998046875 288 -9.998046875 c 0
 94.766831835 -9.998046875 50 60.5379276552 50 365.001953125 c 0xa8
EndSplineSet
Substitution2: "'ss01' Style Set 1 in Latin lookup 0-1" D.ss01
EndChar

StartChar: H
Encoding: 72 72 5
Width: 846
Flags: W
HStem: -10 21G<156.413 291.725 554.275 689.587> 262.875 187.491<387.019 458.868> 719.002 20G<156.413 291.308 554.692 689.587>
VStem: 50 333.525<135.673 260.223 453.05 601.276> 462.489 333.511<135.672 260.223 453.05 601.276>
LayerCount: 2
Back
SplineSet
796 375.001953125 m 4
 796 141.478883804 768.884765625 -10 608 -10 c 4
 481.345703125 -10 460 73.9482102671 460 375.001953125 c 4
 460 660.724336528 481.346153846 739.001953125 608 739.001953125 c 4
 768.884615385 739.001953125 796 595.786064923 796 375.001953125 c 4
50 375.001953125 m 4
 50 595.786064923 77.1153846154 739.001953125 238 739.001953125 c 4
 364.653846154 739.001953125 386 660.724336528 386 375.001953125 c 4
 386 73.9482102671 364.654296875 -10 238 -10 c 4
 77.115234375 -10 50 141.478883804 50 375.001953125 c 4
EndSplineSet
Fore
SplineSet
422.94921875 450.366210938 m 0
 454.294687791 450.366210938 462.489257812 466.524414062 462.489257812 500.44140625 c 0
 462.489257812 535.280273438 460.681640625 557.666015625 460.681640625 592.504882812 c 0
 460.681640625 685.444335938 499.384765625 739.001953125 610 739.001953125 c 0
 769.173225565 739.001953125 796 595.786132812 796 375.001953125 c 0
 796 141.478515625 769.173225565 -10 610 -10 c 0
 498.55078125 -10 460.590820312 43.548828125 460.590820312 145.120117188 c 0
 460.590820312 171.31640625 462.474609375 188.0234375 462.474609375 214.219726562 c 0
 462.474609375 246.817382812 453.751052643 262.875 423.641601562 262.875 c 0
 392.53705114 262.875 383.525390625 246.817658866 383.525390625 214.219726562 c 0
 383.525390625 188.023732225 385.409179688 171.316111525 385.409179688 145.120117188 c 0
 385.409179688 43.5488007294 347.449374531 -10 236 -10 c 0
 76.8267744348 -10 50 141.478883804 50 375.001953125 c 0
 50 595.786064923 76.8269230769 739.001953125 236 739.001953125 c 0
 346.6152339 739.001953125 385.318359375 685.444163363 385.318359375 592.504882812 c 0
 385.318359375 557.665528373 383.510742188 535.280760689 383.510742188 500.44140625 c 0
 383.510742188 466.524783117 391.706223727 450.366210938 422.94921875 450.366210938 c 0
EndSplineSet
EndChar

StartChar: L
Encoding: 76 76 6
Width: 702
Flags: W
HStem: -9.99805 286.998<420.117 584.347> 719.002 20G<151.962 308.765>
VStem: 50 359.908<296.651 601.088>
LayerCount: 2
Fore
SplineSet
409.908203125 507 m 0
 409.908203125 441.318751734 405.891601562 424.787100115 405.891601562 355.6796875 c 4
 405.891601562 302.23406782 418.121989813 283.580607709 483 277 c 4
 622.139461277 262.886918497 672 226.744623232 672 140 c 4
 672 24.3194105372 604.736907651 -9.998046875 378 -9.998046875 c 4
 77.7838827839 -9.998046875 50 125.791796875 50 335.001953125 c 4
 50 580.048055231 65.9249084249 739.001953125 238 739.001953125 c 0
 379.530734906 739.001953125 409.908203125 665.854099506 409.908203125 507 c 0
EndSplineSet
EndChar

StartChar: E
Encoding: 69 69 7
Width: 702
Flags: W
HStem: -9.99805 217.206<409.164 589.791> 287.05 160.284<406.948 611.884> 520.507 218.495<408.06 590.966>
VStem: 50 356<215.328 514.412>
LayerCount: 2
Fore
SplineSet
50 394.001953125 m 0
 50 603.212109375 74.3956043956 739.001953125 338 739.001953125 c 0
 595.585466515 739.001953125 672 711.548076565 672 619.00390625 c 0
 672 537.273546335 630 520.506835938 550 520.506835938 c 0
 505.999747378 520.506835938 496.618573462 521.37890625 475.091796875 521.37890625 c 0
 412.97417428 521.37890625 406 511.441065577 406 479 c 0
 406 453.778754156 416.079674474 447.333984375 443.640625 447.333984375 c 0
 476.207138935 447.333984375 518.553870345 447.409179688 567.73828125 447.409179688 c 0
 605.576508622 447.409179688 627.650390625 417.416404955 627.650390625 366.00390625 c 0
 627.650390625 316.096123746 605.699408328 287.09375 567.92578125 287.09375 c 0
 525.274982093 287.09375 485.804438613 287.049804688 452.62109375 287.049804688 c 0
 418.461061626 287.049804688 406 278.751739959 406 256.00390625 c 0
 406 218.642670172 413.007185408 207.208007812 477.122070312 207.208007812 c 0
 500.975690418 207.208007812 514.000261962 208.063476562 560 208.063476562 c 0
 647 208.063476562 672 170.610224735 672 110 c 0
 672 17.4558296852 595.585466515 -9.998046875 338 -9.998046875 c 0
 74.3956043956 -9.998046875 50 149.013828125 50 394.001953125 c 0
EndSplineSet
EndChar

StartChar: F
Encoding: 70 70 8
Width: 702
Flags: W
HStem: -9.99805 21G<164.632 311.732> 234.67 180.284<413.929 598.061> 502.195 236.807<411.811 591.741>
VStem: 50 356<140.767 489.303>
LayerCount: 2
Back
SplineSet
377.469914917 332.12797888 m 4
 404.29278413 332.12797888 425.677130787 329.75 472.5 329.75 c 4
 514.421769058 329.75 545.608316025 332.12797888 567.530085083 332.12797888 c 4
 602.612773811 332.12797888 623 308.926133587 623 269 c 4
 623 227.870295768 602.508584172 203.876247921 567.382961449 203.876247921 c 4
 540.648850399 203.876247921 519.23411105 206.25 472.5 206.25 c 4
 425.76588895 206.25 404.351149601 203.876247921 377.617038551 203.876247921 c 4
 342.491415828 203.876247921 322 227.870295768 322 269 c 4
 322 308.926133587 342.387226189 332.12797888 377.469914917 332.12797888 c 4
EndSplineSet
Fore
SplineSet
50 394.001953125 m 0
 50 603.212109375 77.7838827839 739.001953125 378 739.001953125 c 0
 604.736907651 739.001953125 672 709.260216281 672 609.00390625 c 0
 672 531.37564915 622.294389341 502.945319018 506.999023438 502.1953125 c 0
 413.344190709 501.586079558 406 483.862111724 406 456 c 0
 406 425.925003976 418.461061626 414.954101562 452.62109375 414.954101562 c 4
 474.292904925 414.954101562 500.070841683 414.91015625 527.92578125 414.91015625 c 4
 590.997942699 414.91015625 627.650390625 382.232416097 627.650390625 326 c 4
 627.650390625 268.271878666 590.838999138 234.594726562 527.73828125 234.594726562 c 4
 499.956032716 234.594726562 476.036107784 234.669921875 457.640625 234.669921875 c 4
 424.831798459 234.669921875 410.587890625 225.654979432 410.587890625 191.291015625 c 0
 410.587890625 173.251980098 413.129882812 163.125312707 413.129882812 128 c 0
 413.129882812 49.4044023156 368.463177981 -9.998046875 255 -9.998046875 c 0
 74.2639652015 -9.998046875 50 148.955851019 50 394.001953125 c 0
EndSplineSet
EndChar

StartChar: C
Encoding: 67 67 9
Width: 777
Flags: W
HStem: -9.99805 259.68<393.134 533.516> 479.322 259.68<393.134 526.709>
VStem: 40 309.12<292.194 437.29>
LayerCount: 2
Fore
SplineSet
40 365.001953125 m 4
 40 591.8515625 184.97843379 739.001953125 418 739.001953125 c 4
 575.09062788 739.001953125 731.752929688 651 731.752929688 513.577148438 c 4
 731.752929688 449 675.625076021 408.512695312 621.03515625 408.512695312 c 4
 553.194401179 408.512695312 543.546679186 479.322265625 458 479.322265625 c 4
 390.879997826 479.322265625 349.120117188 434.21688394 349.120117188 364.681640625 c 4
 349.120117188 294.944921875 390.879997826 249.681640625 458 249.681640625 c 4
 558.54055223 249.681640625 554.905361344 318.205078125 629.966796875 318.205078125 c 4
 686.263592083 318.205078125 747.899414062 282.893844791 747.899414062 202.763671875 c 4
 747.899414062 67.0496622427 597.201240891 -9.998046875 418 -9.998046875 c 4
 184.97843379 -9.998046875 40 137.599609375 40 365.001953125 c 4
EndSplineSet
EndChar

StartChar: G
Encoding: 71 71 10
Width: 807
Flags: W
HStem: -9.99805 348.203<600.655 723.017> -9.99805 259.68<272.486 500.559> 479.322 259.68<393.134 526.709>
VStem: 40 309.12<290.115 437.29>
LayerCount: 2
Fore
SplineSet
40 365.001953125 m 0x70
 40 591.8515625 184.97843379 739.001953125 418 739.001953125 c 0
 575.09062788 739.001953125 731.752929688 651 731.752929688 513.577148438 c 0
 731.752929688 449 675.625076021 408.512695312 621.03515625 408.512695312 c 0
 553.194401179 408.512695312 543.546679186 479.322265625 458 479.322265625 c 0
 390.879997826 479.322265625 349.120117188 434.21688394 349.120117188 364.681640625 c 0
 349.120117188 294.944921875 387.044589525 249.681640625 448 249.681640625 c 0x70
 550.936328698 249.681640625 555.960450464 338.205078125 659.966796875 338.205078125 c 0
 734.885896524 338.205078125 777.899414062 273.609825661 777.899414062 161.100585938 c 0
 777.899414062 55.925651483 749.625516555 -9.998046875 666 -9.998046875 c 0xb0
 590.295485183 -9.998046875 588.248819121 44 561 44 c 0
 538.594339623 44 515.041927716 -9.998046875 371 -9.998046875 c 0
 173.972161401 -9.998046875 40 137.599609375 40 365.001953125 c 0x70
EndSplineSet
EndChar

StartChar: B
Encoding: 66 66 11
Width: 773
Flags: W
HStem: -9.99805 21G<227.468 471.718> -9.99805 21G<227.468 471.718> 719.002 20G<227.363 466.392> 719.002 20G<227.363 466.392>
LayerCount: 2
Fore
SplineSet
50 365.001953125 m 0xa0
 50 668.902768464 86.7253522172 739.001953125 368 739.001953125 c 0
 564.783395607 739.001953125 718 670.627992131 718 521 c 0
 718 420.504998924 646 402.179575794 646 371.001953125 c 0
 646 337.071445786 733 310.477240003 733 197.065429688 c 0
 733 51.6895110505 575.43501522 -9.998046875 368 -9.998046875 c 0
 86.9368085599 -9.998046875 50 60.5379276552 50 365.001953125 c 0xa0
EndSplineSet
Substitution2: "'ss01' Style Set 1 in Latin lookup 0-1" B.ss01
EndChar

StartChar: K
Encoding: 75 75 12
Width: 819
Flags: W
HStem: -9.99805 21G<146.539 297.492 569.294 684.222> -9.99805 21G<146.539 297.492 569.294 684.222> 719.002 20G<146.539 297.693 557.181 668.801> 719.002 20G<146.539 297.693 557.181 668.801>
VStem: 444.147 325.763<520.959 631.857> 445.007 344.903<95.1963 196.339>
LayerCount: 2
Back
SplineSet
399.975585938 507.510742188 m 4
 407.456618516 501.286780407 420.780649634 501.286780407 430.97265625 521.463867188 c 4
 441.164030665 541.639619074 448.222367716 581.990199472 463.122070312 621.577148438 c 4
 478.020806581 661.163017306 500.760885794 699.984334392 548.255859375 719.39453125 c 4
 595.751001367 738.806264427 668.002048888 738.806264427 712.17578125 707.418945312 c 4
 756.348330887 676.032483506 772.444317117 613.260483269 763.10546875 563.088867188 c 4
 753.765690984 512.918010795 718.991062171 475.347579668 687.684570312 444.081054688 c 4
 656.377615733 412.814666954 628.538951663 387.852157696 630.928710938 362.889648438 c 4
 633.31753783 337.926838933 665.935597801 312.963106042 698.552734375 281.697265625 c 4
 731.168521684 250.430770075 763.784308994 212.860374313 772.311523438 162.827148438 c 4
 780.8377775 112.793910768 765.27463994 50.2978400476 721.369140625 19.0498046875 c 4
 677.462134295 -12.1985773071 605.210869997 -12.1985773071 558.661132812 7.212890625 c 4
 512.113377539 26.6233261505 491.265641557 65.4451205846 474.790039062 101.711914062 c 4
 458.314607705 137.979274574 446.209662651 171.691659233 434.736328125 188.547851562 c 4
 423.26356172 205.403747139 412.420527846 205.403747139 404.939453125 201.4453125 c 4
 397.459532595 197.487654816 393.339620805 189.571416057 392.708984375 172.715820312 c 4
 392.078299199 155.859708304 394.937159089 130.062608479 389.095703125 97.75390625 c 4
 383.254315197 65.444871058 368.712712749 26.6232429763 320.271484375 7.212890625 c 4
 271.830198589 -12.1985773071 189.48896951 -12.1985773071 140.536132812 19.0498046875 c 4
 91.5842953564 50.2977178686 76.0217219139 112.793544231 67.97265625 206.57421875 c 4
 59.9327186778 300.35582987 59.4004740726 425.422601594 67.173828125 519.341796875 c 4
 74.9550607681 613.260794342 91.0521568483 676.032587198 140.270507812 707.418945312 c 4
 189.489193003 738.806264427 271.83028137 738.806264427 320.271484375 719.39453125 c 4
 368.712712749 699.984357161 383.254315197 661.163085613 389.095703125 627.80078125 c 4
 394.934371503 594.438596078 392.076875882 566.535509681 391.466796875 546.359375 c 4
 390.856387762 526.183903155 392.493687849 513.735129177 399.975585938 507.510742188 c 4
EndSplineSet
Fore
SplineSet
645.700195312 371.55859375 m 0xa8
 645.700195312 345.541174551 669.760009821 321.848609214 698.224741568 293.818363324 c 0
 739.448103987 253.224234587 789.91015625 203.53243543 789.91015625 124.505859375 c 0
 789.91015625 36.9509110989 731.443429616 -9.998046875 637 -9.998046875 c 0
 501.587611172 -9.998046875 468.454165708 82.0924062737 445.006995555 147.261014433 c 0xa4
 432.167822898 182.945960911 422.233007366 210.55859375 400 210.55859375 c 0
 382.053713548 210.55859375 379.157226562 193.363298155 379.157226562 168.575195312 c 0
 379.157226562 162.065012289 379.321777344 155.424840129 379.486328125 148.784667969 c 0
 379.650878906 142.144495809 379.815429688 135.504323649 379.815429688 128.994140625 c 0
 379.815429688 66.1779005024 366.983805938 -9.998046875 228 -9.998046875 c 0
 65.0778388278 -9.998046875 50 138.331157562 50 366.998046875 c 0
 50 591.8515625 65.0778388278 739.001953125 228 739.001953125 c 0
 367.385031308 739.001953125 380.376953125 655.757802135 380.376953125 587.823242188 c 0
 380.376953125 580.738608401 380.206542969 573.50577881 380.036132812 566.272949219 c 0
 379.865722656 559.040119627 379.6953125 551.807290036 379.6953125 544.72265625 c 0
 379.6953125 519.06992175 382.446542322 501.44140625 399 501.44140625 c 0
 421.707531756 501.44140625 431.581255542 532.860954573 444.147060652 572.847076263 c 0
 466.133599089 642.811268276 496.361922019 739.001953125 618 739.001953125 c 0
 719.602561868 739.001953125 769.91015625 681.305193604 769.91015625 607.494140625 c 0
 769.91015625 532.189528868 726.674996981 485.07489785 691.220792837 446.439403624 c 0
 666.581507654 419.589246263 645.700195312 396.834262985 645.700195312 371.55859375 c 0xa8
EndSplineSet
EndChar

StartChar: Z
Encoding: 90 90 13
Width: 693
Flags: W
HStem: -10 248.844<435.349 559.324> 490.158 248.844<136.771 247.651>
VStem: 33 630<59.212 211.089> 248.102 186.797<266.971 462.031>
LayerCount: 2
Back
SplineSet
375 739.001953125 m 4
 124.815429688 739.001953125 30 706.971679688 30 599.00390625 c 4
 30 499.727539062 76.9677734375 485.153320312 128.095703125 485.153320312 c 4
 166.522460938 485.153320312 206.25 490.158203125 241.717773438 490.158203125 c 4
 260.520507812 490.158203125 278.1015625 485.512695312 278.1015625 460 c 4
 278.1015625 325 78.2490234375 222.736328125 78.2490234375 128 c 4
 78.2490234375 38.494140625 126.302734375 -9.998046875 215 -9.998046875 c 4
 458.974609375 -9.998046875 650 414 650 599.00390625 c 4
 650 706.971679688 574.421875 739.001953125 375 739.001953125 c 4
EndSplineSet
Fore
SplineSet
650 599.00390625 m 0xd0
 650 434.064453125 434.8984375 330.92578125 434.8984375 266.970703125 c 4xd0
 434.8984375 242.270507812 452.479492188 238.84375 471.282226562 238.84375 c 4
 500.506835938 238.84375 533.241210938 243.848632812 564.904296875 243.848632812 c 4
 616.032226562 243.848632812 663 229.274414062 663 129.998046875 c 4
 663 22.0302734375 570.932617188 -10 328 -10 c 4
 114.07421875 -10 33 9.7958984375 33 129.998046875 c 4xe0
 33 280.038085938 248.1015625 400.581054688 248.1015625 462.03125 c 0
 248.1015625 486.731445312 230.520507812 490.158203125 211.717773438 490.158203125 c 0
 185.614257812 490.158203125 156.376953125 485.153320312 128.095703125 485.153320312 c 0
 76.9677734375 485.153320312 30 499.727539062 30 599.00390625 c 0
 30 706.971679688 124.815429688 739.001953125 375 739.001953125 c 0
 574.421875 739.001953125 650 719.204101562 650 599.00390625 c 0xd0
EndSplineSet
EndChar

StartChar: A
Encoding: 65 65 14
Width: 846
Flags: W
HStem: -10 21G<162.135 297.604 548.396 683.865> -10 21G<162.135 297.604 548.396 683.865> 719.002 20G<289.183 556.817> 719.002 20G<289.183 556.817>
LayerCount: 2
Back
SplineSet
423 739.001953125 m 0
 690.634765625 739.001953125 796 567.850586808 796 304 c 0
 796 113.543376086 767.730769231 -10 600 -10 c 0
 496.792779044 -10 460.681640625 43.557789762 460.681640625 136.497070312 c 0
 460.681640625 169.094726562 452.763639038 185.15234375 425.434570312 185.15234375 c 0
 394.33001989 185.15234375 385.318359375 169.095002616 385.318359375 136.497070312 c 0
 385.318359375 43.5576171875 349.207221399 -10 246 -10 c 0
 78.2690741356 -10 50 113.543317522 50 304 c 0
 50 567.851002803 155.365234375 739.001953125 423 739.001953125 c 0
377.510742188 396.787109375 m 4
 377.540659897 361.300252041 387.010027772 350.366210937 422.94921875 350.366210938 c 4
 459.051203431 350.366210938 468.489257812 361.31165755 468.489257812 396.560546875 c 4
 468.489257812 438.604936162 459.046951001 458.635742188 423.05078125 458.635742188 c 4
 387.006238871 458.635742188 377.540801949 438.677484536 377.510742188 396.787109375 c 4
EndSplineSet
Fore
SplineSet
423 739.001953125 m 0xa0
 690.634765625 739.001953125 796 567.850586808 796 304 c 0
 796 113.543376086 767.730769231 -10 600 -10 c 0
 496.792779044 -10 460.681640625 43.557789762 460.681640625 136.497070312 c 0
 460.681640625 169.094726562 452.763639038 185.15234375 425.434570312 185.15234375 c 0
 394.33001989 185.15234375 385.318359375 169.095002616 385.318359375 136.497070312 c 0
 385.318359375 43.5576171875 349.207221399 -10 246 -10 c 0
 78.2690741356 -10 50 113.543317522 50 304 c 0
 50 567.851002803 155.365234375 739.001953125 423 739.001953125 c 0xa0
EndSplineSet
Substitution2: "'ss01' Style Set 1 in Latin lookup 0-1" A.ss01
EndChar

StartChar: J
Encoding: 74 74 15
Width: 574
Flags: W
HStem: -9.99805 21G<146.464 320.525> 719.002 20G<264.031 424.207>
VStem: 174 350<283.599 611.329>
LayerCount: 2
Fore
SplineSet
174 538 m 0
 174 637.361433175 188.061103289 739.001953125 340 739.001953125 c 0
 508.4140625 739.001953125 524 591.8515625 524 365.001953125 c 0
 524 137.599609375 435.050283138 -9.998046875 206 -9.998046875 c 0
 86.9287109375 -9.998046875 30 42.8889375271 30 126 c 0
 30 269.061688428 180 218.766771012 180 355 c 0
 180 411.379133946 174 465.62947802 174 538 c 0
EndSplineSet
EndChar

StartChar: X
Encoding: 88 88 16
Width: 821
Flags: W
HStem: -9.99805 21G<142.6 264.811 570.413 693.043> 719.002 20G<157.765 276.858 558.435 677.367>
VStem: 30 351.281<83.4041 187.662> 442.868 328.952<525.758 639.508> 443.258 348.563<86.5897 184.674>
LayerCount: 2
Fore
SplineSet
410.91015625 190.55859375 m 0xe8
 395.628300609 190.55859375 389.541603364 169.838990959 381.28097496 141.719153144 c 0
 363.841143351 82.3525756454 336.711748773 -9.998046875 192.91015625 -9.998046875 c 0
 92.2908144934 -9.998046875 30 36.951171875 30 124.505859375 c 0
 30 203.532707508 80.4621732859 253.224579473 121.685562981 293.818697191 c 0
 150.150229996 321.848853182 174.209960938 345.541314121 174.209960938 371.55859375 c 0
 174.209960938 396.834204237 153.328693089 419.589109748 128.689442164 446.439195227 c 0
 93.2352232923 485.074655787 50 532.189295947 50 607.494140625 c 0
 50 681.305664062 103.619452499 739.001953125 211.91015625 739.001953125 c 0
 341.804972503 739.001953125 365.958416428 641.164699978 381.870816761 576.709066061 c 0
 389.68709983 545.048004901 395.514948001 521.44140625 410.91015625 521.44140625 c 0
 427.85262161 521.44140625 434.266183164 545.048004901 442.868022321 576.709066061 c 0
 460.379658868 641.164699978 486.960584594 739.001953125 629.91015625 739.001953125 c 0
 724.82421875 739.001953125 771.8203125 681.305664062 771.8203125 607.494140625 c 0xf0
 771.8203125 532.189295947 728.585089208 485.074655787 693.130870336 446.439195227 c 0
 668.491619411 419.589109748 647.610351562 396.834204237 647.610351562 371.55859375 c 0
 647.610351562 345.541314121 671.670082504 321.848853182 700.134749519 293.818697191 c 0
 741.358139214 253.224579473 791.8203125 203.532707508 791.8203125 124.505859375 c 0
 791.8203125 36.951171875 737.176757812 -9.998046875 648.91015625 -9.998046875 c 0
 491.915757073 -9.998046875 462.297427213 82.3525756454 443.257611053 141.719153144 c 0
 434.239126832 169.838990959 427.594016996 190.55859375 410.91015625 190.55859375 c 0xe8
EndSplineSet
EndChar

StartChar: N
Encoding: 78 78 17
Width: 846
Flags: W
HStem: -10 21G<150.692 270.536 520.088 689.587> -10 21G<150.692 270.536 520.088 689.587> 719.002 20G<156.413 330.459 575.804 695.308> 719.002 20G<156.413 330.459 575.804 695.308>
VStem: 50 293.525<128.469 232.117> 502.489 293.511<500.975 608.086>
LayerCount: 2
Fore
SplineSet
472.94921875 500.366210938 m 0xac
 496.3671875 500.366210938 502.489257812 513.297851562 502.489257812 540.44140625 c 0
 502.489257812 571.49609375 500.681640625 591.450195312 500.681640625 622.504882812 c 0
 500.681640625 692.755859375 531.608804552 739.001953125 620 739.001953125 c 0
 770.615525266 739.001953125 796 595.786132812 796 375.001953125 c 0
 796 141.478515625 769.173225565 -10 610 -10 c 0
 430.175632125 -10 451.053710938 232.875 373.641601562 232.875 c 0
 350.291015625 232.875 343.525390625 220.118164062 343.525390625 194.219726562 c 0
 343.525390625 164.232421875 345.409179688 145.107421875 345.409179688 115.120117188 c 0
 345.409179688 36.64453125 315.071357043 -10 226 -10 c 0
 75.384474734 -10 50 141.478883804 50 375.001953125 c 0
 50 595.786064923 76.8269230769 739.001953125 236 739.001953125 c 0
 424.918911267 739.001953125 402.866210938 500.366210938 472.94921875 500.366210938 c 0xac
EndSplineSet
EndChar

StartChar: M
Encoding: 77 77 18
Width: 960
Flags: W
HStem: -10 21G<147.692 252.536 707.464 812.308> -10 21G<147.692 252.536 707.464 812.308> 241.875 497.127<181.414 418.551 537.449 778.586>
VStem: 50 293.08<59.742 238.86> 609.942 300.058<59.4962 229.034>
LayerCount: 2
Fore
SplineSet
480 580.366210938 m 0xb8
 555.00390625 580.366210938 537.413085938 739.001953125 694 739.001953125 c 0
 863.172851562 739.001953125 910 475.786132812 910 155.001953125 c 0
 910 41.478515625 862.615234375 -10 762 -10 c 0
 652.928710938 -10 618.474609375 44.744140625 609.942382812 156.287109375 c 4
 604.59765625 226.154296875 594.056640625 241.875 575.358398438 241.875 c 4
 537.485351562 241.875 526.83203125 154 476 154 c 4
 425.16796875 154 414.514648438 241.875 376.641601562 241.875 c 4
 357.942382812 241.875 348.208984375 226.0703125 343.080078125 162.737304688 c 4
 333.525390625 44.744140625 307.071289062 -10 198 -10 c 0
 97.384765625 -10 50 51.478515625 50 165.001953125 c 0
 50 485.786132812 96.8271484375 739.001953125 266 739.001953125 c 0
 422.587890625 739.001953125 404.99609375 580.366210938 480 580.366210938 c 0xb8
EndSplineSet
EndChar

StartChar: P
Encoding: 80 80 19
Width: 802
Flags: W
HStem: -9.99805 21G<164.632 311.732> -9.99805 21G<164.632 311.732> 238.595 500.407<414.881 584.147>
VStem: 50 361.588<142.863 236.779>
LayerCount: 2
Fore
SplineSet
772 459 m 4xb0
 772 319.800346752 690.845315904 238.594726562 553.73828125 238.594726562 c 4
 504.807406599 238.594726562 488.712954446 240.669921875 461.640625 240.669921875 c 4
 426.739965095 240.669921875 411.587890625 230.615886562 411.587890625 192.291015625 c 4
 411.587890625 175.073994832 413.129882812 167.350245908 413.129882812 138 c 4
 413.129882812 39.084611746 368.463177981 -9.998046875 255 -9.998046875 c 4
 74.2639652015 -9.998046875 50 148.955851019 50 394.001953125 c 4
 50 603.212109375 81.1721611722 739.001953125 418 739.001953125 c 4
 680.719048273 739.001953125 772 626.831440005 772 459 c 4xb0
EndSplineSet
Substitution2: "'ss01' Style Set 1 in Latin lookup 0-1" P.ss01
EndChar

StartChar: Q
Encoding: 81 81 20
Width: 854
Flags: W
HStem: -9.99805 21G<291.489 469.388> 719.002 20G<301.489 534.511>
LayerCount: 2
Fore
SplineSet
40 365.001953125 m 0
 40 591.8515625 184.97843379 739.001953125 418 739.001953125 c 0
 651.02156621 739.001953125 796 591.8515625 796 387 c 0
 796 272.638445258 744.462890625 216 744.462890625 185.315429688 c 0
 744.462890625 168 773.040039062 138.682617188 789.229492188 122.493164062 c 0
 812.91015625 98.8125 824.809570312 73.8837890625 824.809570312 49.755859375 c 0
 824.809570312 4.69921875 778.592773438 -39.998046875 734 -39.998046875 c 0
 709.796875 -39.998046875 683.829101562 -29.3564453125 661.594726562 -4.876953125 c 0
 639 20 627 32.9150390625 606.8671875 32.9150390625 c 0
 567 32.9150390625 530.776367188 -9.998046875 408 -9.998046875 c 0
 174.978515625 -9.998046875 40 137.599609375 40 365.001953125 c 0
EndSplineSet
Substitution2: "'ss01' Style Set 1 in Latin lookup 0-1" Q.ss01
EndChar

StartChar: R
Encoding: 82 82 21
Width: 819
Flags: W
HStem: -9.99805 21G<144.632 291.731 535.458 684.222> -9.99805 21G<144.632 291.731 535.458 684.222> 225 514.002<227.892 430.43>
LayerCount: 2
Back
SplineSet
655.700195312 371.55859375 m 4
 655.700195312 433.20417917 779.91015625 479.855769038 779.91015625 607.494140625 c 4
 779.91015625 681.305193604 729.602561868 739.001953125 628 739.001953125 c 4
 436.843003149 739.001953125 471.439169752 501.44140625 409 501.44140625 c 4
 392.446248745 501.44140625 389.694970129 519.069849393 389.694970129 544.722478601 c 4
 389.694970129 558.891875765 390.377065813 573.654061572 390.377065813 587.823458737 c 4
 390.377065813 655.757921375 377.385134389 739.001953125 238 739.001953125 c 4
 75.0778388278 739.001953125 60 591.8515625 60 366.998046875 c 4
 60 138.331157562 75.0778388278 -9.998046875 238 -9.998046875 c 4
 376.983638699 -9.998046875 389.815247009 66.1776516265 389.815247009 128.993686521 c 4
 389.815247009 142.014240528 389.157154562 155.554758585 389.157154562 168.575312592 c 4
 389.157154562 193.363346189 392.053651552 210.55859375 410 210.55859375 c 4
 472.835398241 210.55859375 437.43866148 -9.998046875 647 -9.998046875 c 4
 741.443429616 -9.998046875 799.91015625 36.9509110989 799.91015625 124.505859375 c 4
 799.91015625 258.10028619 655.700195312 307.862073606 655.700195312 371.55859375 c 4
EndSplineSet
Fore
SplineSet
762 501 m 4xa0
 762 385.528569358 671.955078125 359.044296275 671.955078125 322.567382812 c 4
 671.955078125 277.286217174 789.91015625 225.109083917 789.91015625 124.505859375 c 4
 789.91015625 36.951171875 731.443359375 -9.998046875 637 -9.998046875 c 4
 433.915774769 -9.998046875 474.004484305 225 404 225 c 4
 385.405273438 225 380.018554688 213.772460938 380.018554688 191 c 4
 380.018554688 169.708007812 383.129882812 155 383.129882812 116 c 4
 383.129882812 49.0849609375 348.462890625 -9.998046875 235 -9.998046875 c 4
 54.263671875 -9.998046875 50 148.955851019 50 394.001953125 c 4
 50 603.212109375 77.7838827839 739.001953125 378 739.001953125 c 4
 647.743621756 739.001953125 762 650.837890625 762 501 c 4xa0
EndSplineSet
Substitution2: "'ss01' Style Set 1 in Latin lookup 0-1" R.ss01
EndChar

StartChar: Y
Encoding: 89 89 22
Width: 821
Flags: W
HStem: -9.99805 21G<329.039 491.961> 719.002 20G<157.765 276.858 558.435 677.367>
VStem: 50 331.871<503.802 643.768> 232.5 356<66.0412 275.015> 442.868 328.952<509.229 636.053>
LayerCount: 2
Fore
SplineSet
588.5 225.001953125 m 0xd0
 588.5 82.496484375 573.421875 -9.998046875 410.5 -9.998046875 c 0
 247.578125 -9.998046875 232.5 82.496484375 232.5 225.001953125 c 0xd0
 232.5 251.968782279 219.882158994 265.16626549 195.533203125 291.973632812 c 0
 122.447117386 372.438912599 50 477.686678895 50 607.494140625 c 0
 50 681.305664062 103.619452499 739.001953125 211.91015625 739.001953125 c 0
 341.805184196 739.001953125 365.958667485 649.107775671 381.87109375 556.708984375 c 4
 387.405805774 524.5705353 395.515094847 501.44140625 410.91015625 501.44140625 c 4
 427.852696754 501.44140625 436.75893265 524.474074489 442.868164062 556.708984375 c 4
 460.379787339 649.107775671 486.960692922 739.001953125 629.91015625 739.001953125 c 0
 724.82421875 739.001953125 771.8203125 681.305664062 771.8203125 607.494140625 c 0xe8
 771.8203125 477.686678895 698.774232178 372.261239151 624.791015625 291.973632812 c 0
 600.525923173 265.64082003 588.5 251.968782279 588.5 225.001953125 c 0xd0
EndSplineSet
EndChar

StartChar: S
Encoding: 83 83 23
Width: 576
Flags: W
HStem: -9.99805 21G<156.464 330.525> -9.99805 21G<156.464 330.525> 719.002 20G<243.475 417.536> 719.002 20G<243.475 417.536>
VStem: 40 368<421.091 580.202> 170 366<161.3 317.918>
LayerCount: 2
Fore
SplineSet
170 271 m 0xa4
 170 301.048563185 145.58203125 320.797851562 120.380859375 345.514648438 c 0
 84.376953125 380.826171875 40 423.331128145 40 529 c 0
 40 631.404296875 128.950195312 739.001953125 358 739.001953125 c 0
 477.071289062 739.001953125 534 693.892578125 534 623.00390625 c 0
 534 559.658570745 500.474609375 543.598632812 467.172851562 531.328125 c 4
 431 518 408 504.877929688 408 468 c 4xa8
 408 440.076171875 429.831054688 417.965820312 457.052734375 392.795898438 c 4
 494.897460938 357.803710938 536 311.629360748 536 225 c 0xa4
 536 97.599609375 445.049804688 -9.998046875 216 -9.998046875 c 0
 96.9287109375 -9.998046875 40 35.111328125 40 106 c 0xa8
 40 176.770606097 76.7802734375 192.48828125 110.430664062 208.26953125 c 0
 140.5859375 222.411132812 170 234.364014766 170 271 c 0xa4
EndSplineSet
Substitution2: "'ss02' Style Set 2 in Latin lookup 1-1" S.ss02
EndChar

StartChar: S.ss02
Encoding: 65536 -1 24
Width: 704
Flags: W
HStem: -9.99805 21G<146.464 320.525> -9.99805 21G<146.464 320.525> 719.002 20G<383.475 557.536> 719.002 20G<383.475 557.536>
LayerCount: 2
Fore
SplineSet
180 355 m 2xa0
 180 425 l 2
 180 641.404296875 268.950195312 739.001953125 498 739.001953125 c 0
 617.071289062 739.001953125 674 686.115234375 674 603.00390625 c 0
 674 459.942382812 524 510.237304688 524 374.00390625 c 2
 524 301 l 6
 524 87.599609375 435.050283138 -9.998046875 206 -9.998046875 c 0
 86.9287109375 -9.998046875 30 42.8889375271 30 126 c 0
 30 269.061688428 180 218.766601562 180 355 c 2xa0
EndSplineSet
EndChar

StartChar: T
Encoding: 84 84 25
Width: 750
Flags: W
HStem: -9.99805 21G<293.539 456.461> -9.99805 21G<293.539 456.461> 719.002 20G<249.908 500.092> 719.002 20G<249.908 500.092>
VStem: 30 690<513.317 669.79> 197 356<114.922 484.657>
LayerCount: 2
Back
SplineSet
325 739.001953125 m 4
 552.5078125 739.001953125 620 709.259765625 620 609.00390625 c 4
 620 531.375976562 568 502.1953125 324.000976562 502.1953125 c 4
 82 502.1953125 30 531.375976562 30 609.00390625 c 4
 30 709.259765625 97.4921875 739.001953125 325 739.001953125 c 4
EndSplineSet
Fore
SplineSet
375 739.001953125 m 4xa8
 625.184570312 739.001953125 720 706.971679688 720 599.00390625 c 4xa8
 720 499.727539062 673.032226562 485.153320312 621.904296875 485.153320312 c 4
 610.533203125 485.153320312 598.77734375 486.158203125 588.282226562 486.158203125 c 4
 568.405273438 486.158203125 553 480.05859375 553 445.001953125 c 4
 553 114.223632812 537.921875 -9.998046875 375 -9.998046875 c 4
 212.078125 -9.998046875 197 114.223632812 197 445.001953125 c 4xa4
 197 480.05859375 181.594726562 486.158203125 161.717773438 486.158203125 c 4
 151.22265625 486.158203125 139.466796875 485.153320312 128.095703125 485.153320312 c 4
 76.9677734375 485.153320312 30 499.727539062 30 599.00390625 c 0
 30 706.971679688 124.815429688 739.001953125 375 739.001953125 c 4xa8
EndSplineSet
EndChar

StartChar: W
Encoding: 87 87 26
Width: 1000
Flags: W
HStem: -10 517.127<211.414 448.051 555.949 788.586> 719.002 20G<147.692 252.536 747.464 852.308> 719.002 20G<147.692 252.536 747.464 852.308>
VStem: 50 300.058<524.465 676.773> 656.92 293.08<514.578 676.096>
LayerCount: 2
Fore
SplineSet
500 148.635742188 m 4xd8
 424.99609375 148.635742188 452.586914062 -10 296 -10 c 0
 126.827148438 -10 50 263.215820312 50 584 c 0
 50 697.5234375 97.384765625 739.001953125 198 739.001953125 c 0
 307.071289062 739.001953125 337.525390625 694.2578125 350.057617188 592.71484375 c 0
 358.640556401 523.17116578 369.943359375 507.126953125 388.641601562 507.126953125 c 0
 443.514648438 507.126953125 433.16796875 645.001953125 504 645.001953125 c 0
 574.83203125 645.001953125 564.485351562 507.126953125 619.358398438 507.126953125 c 0
 638.057617188 507.126953125 649.006786752 523.218967773 656.919921875 586.264648438 c 0
 670.474609375 694.2578125 692.928710938 739.001953125 802 739.001953125 c 0
 902.615234375 739.001953125 950 687.5234375 950 574 c 0
 950 253.215820312 873.172851562 -10 704 -10 c 0
 547.412109375 -10 575.00390625 148.635742188 500 148.635742188 c 4xd8
EndSplineSet
EndChar

StartChar: A.ss01
Encoding: 65537 -1 27
Width: 846
Flags: W
HStem: -10 21G<162.135 297.604 548.396 683.865> 185.152 165.214<388.814 457.204> 458.636 280.366<384.898 461.12>
VStem: 50 327.511<206.404 453.254> 468.489 327.511<206.404 453.245>
LayerCount: 2
Fore
SplineSet
377.510742188 396.787109375 m 4
 377.540659897 361.300252041 387.010027772 350.366210937 422.94921875 350.366210938 c 4
 459.051203431 350.366210938 468.489257812 361.31165755 468.489257812 396.560546875 c 4
 468.489257812 438.604936162 459.046951001 458.635742188 423.05078125 458.635742188 c 4
 387.006238871 458.635742188 377.540801949 438.677484536 377.510742188 396.787109375 c 4
423 739.001953125 m 0
 690.634765625 739.001953125 796 567.850586808 796 304 c 0
 796 113.543376086 767.730769231 -10 600 -10 c 0
 496.792779044 -10 460.681640625 43.557789762 460.681640625 136.497070312 c 0
 460.681640625 169.094726562 452.763639038 185.15234375 425.434570312 185.15234375 c 0
 394.33001989 185.15234375 385.318359375 169.095002616 385.318359375 136.497070312 c 0
 385.318359375 43.5576171875 349.207221399 -10 246 -10 c 0
 78.2690741356 -10 50 113.543317522 50 304 c 0
 50 567.851002803 155.365234375 739.001953125 423 739.001953125 c 0
EndSplineSet
EndChar

StartChar: B.ss01
Encoding: 65538 -1 28
Width: 773
Flags: W
HStem: -9.99805 216.68<351.227 454.743> 316.322 117.359<347.451 445.397> 526.322 212.68<350.173 442.753>
VStem: 50 293.12<214.191 523.317> 452.88 265.12<442.453 595.814> 466.88 266.12<124.377 283.778>
LayerCount: 2
Fore
SplineSet
343.120117188 480.681640625 m 0xf8
 343.120117188 439.91967731 353.565920963 433.681640625 392 433.681640625 c 0
 427.788544662 433.681640625 452.879882812 448.093590353 452.879882812 480.681640625 c 0
 452.879882812 512.346141882 427.788544662 526.322265625 392 526.322265625 c 0
 353.565920963 526.322265625 343.120117188 520.308524327 343.120117188 480.681640625 c 0xf8
343.120117188 261.681640625 m 0
 343.120117188 213.981470788 355.702956319 206.681640625 402 206.681640625 c 0
 440.139964738 206.681640625 466.879882812 223.546688179 466.879882812 261.681640625 c 0xf4
 466.879882812 299.590151716 440.139964738 316.322265625 402 316.322265625 c 0
 355.702956319 316.322265625 343.120117188 309.12265819 343.120117188 261.681640625 c 0
50 365.001953125 m 0
 50 668.902768464 86.7253522172 739.001953125 368 739.001953125 c 0
 564.783395607 739.001953125 718 670.627992131 718 521 c 4xf8
 718 420.504998924 646 402.179575794 646 371.001953125 c 0
 646 337.071445786 733 310.477240003 733 197.065429688 c 0
 733 51.6895110505 575.43501522 -9.998046875 368 -9.998046875 c 0
 86.9368085599 -9.998046875 50 60.5379276552 50 365.001953125 c 0
EndSplineSet
EndChar

StartChar: D.ss01
Encoding: 65539 -1 29
Width: 806
Flags: W
HStem: -9.99805 271.162<191.383 451.403> 467.84 271.162<191.304 451.41>
VStem: 50 272.309<270.541 458.894> 487.692 278.308<297.248 432.234>
LayerCount: 2
Fore
SplineSet
322.30859375 364.6640625 m 4
 322.30859375 274.901015625 333.633002882 261.1640625 375.299804688 261.1640625 c 4
 441.370345827 261.1640625 487.692382812 292.901015625 487.692382812 364.6640625 c 4
 487.692382812 436.245239469 441.370345827 467.83984375 375.299804688 467.83984375 c 4
 333.633002882 467.83984375 322.30859375 454.245103173 322.30859375 364.6640625 c 4
50 365.001953125 m 0
 50 668.902768464 94.608572057 739.001953125 288 739.001953125 c 0
 606.443604325 739.001953125 766 614.160756509 766 365.001953125 c 0
 766 115.202704907 606.410775062 -9.998046875 288 -9.998046875 c 0
 94.766831835 -9.998046875 50 60.5379276552 50 365.001953125 c 0
EndSplineSet
EndChar

StartChar: O.ss01
Encoding: 65540 -1 30
Width: 836
Flags: W
HStem: -9.99805 271.162<353.944 482.056> 467.84 271.162<353.944 482.056>
VStem: 40 280.008<298.929 430.554> 515.992 280.008<298.929 430.554>
LayerCount: 2
Fore
SplineSet
320.0078125 364.6640625 m 4
 320.0078125 301.901015625 357.59181744 261.1640625 418 261.1640625 c 4
 478.40818256 261.1640625 515.9921875 301.901015625 515.9921875 364.6640625 c 4
 515.9921875 427.245307617 478.40818256 467.83984375 418 467.83984375 c 4
 357.59181744 467.83984375 320.0078125 427.245307617 320.0078125 364.6640625 c 4
40 365.001953125 m 0
 40 591.8515625 184.97843379 739.001953125 418 739.001953125 c 0
 651.02156621 739.001953125 796 591.8515625 796 365.001953125 c 0
 796 137.599609375 651.02156621 -9.998046875 418 -9.998046875 c 0
 184.97843379 -9.998046875 40 137.599609375 40 365.001953125 c 0
EndSplineSet
EndChar

StartChar: P.ss01
Encoding: 65541 -1 31
Width: 802
Flags: W
HStem: -9.99805 21G<164.632 311.732> -9.99805 21G<164.632 311.732> 240.67 175.012<416.569 503.054> 528.322 210.68<399.943 500.605>
VStem: 50 343.12<271.479 522.012> 512.88 259.12<426.774 515.079>
LayerCount: 2
Fore
SplineSet
393.120117188 472.681640625 m 4x3c
 393.120117188 423.246919158 405.702956319 415.681640625 452 415.681640625 c 4
 487.788544662 415.681640625 512.879882812 433.159962636 512.879882812 472.681640625 c 4
 512.879882812 511.283930586 487.788544662 528.322265625 452 528.322265625 c 4
 405.702956319 528.322265625 393.120117188 520.990895286 393.120117188 472.681640625 c 4x3c
772 459 m 0
 772 319.800346752 690.845315904 238.594726562 553.73828125 238.594726562 c 0
 504.807406599 238.594726562 488.712954446 240.669921875 461.640625 240.669921875 c 0
 426.739965095 240.669921875 411.587890625 230.615886562 411.587890625 192.291015625 c 0
 411.587890625 175.073994832 413.129882812 167.350245908 413.129882812 138 c 0
 413.129882812 39.084611746 368.463177981 -9.998046875 255 -9.998046875 c 0xbc
 74.2639652015 -9.998046875 50 148.955851019 50 394.001953125 c 0
 50 603.212109375 81.1721611722 739.001953125 418 739.001953125 c 0
 680.719048273 739.001953125 772 626.831440005 772 459 c 0
EndSplineSet
EndChar

StartChar: Q.ss01
Encoding: 65542 -1 32
Width: 854
Flags: W
HStem: -9.99805 271.162<354.127 482.084> 467.84 271.162<353.944 482.056>
VStem: 40 280.008<298.929 430.554> 515.992 280.008<295.191 434.187>
LayerCount: 2
Fore
SplineSet
320.0078125 364.6640625 m 4
 320.0078125 301.901015625 357.59181744 261.1640625 418 261.1640625 c 4
 478.40818256 261.1640625 515.9921875 301.901015625 515.9921875 364.6640625 c 4
 515.9921875 427.245307617 478.40818256 467.83984375 418 467.83984375 c 4
 357.59181744 467.83984375 320.0078125 427.245307617 320.0078125 364.6640625 c 4
40 365.001953125 m 0
 40 591.8515625 184.97843379 739.001953125 418 739.001953125 c 0
 651.02156621 739.001953125 796 591.8515625 796 387 c 0
 796 272.638445258 744.462890625 216 744.462890625 185.315429688 c 0
 744.462890625 168 773.040039062 138.682617188 789.229492188 122.493164062 c 0
 812.91015625 98.8125 824.809570312 73.8837890625 824.809570312 49.755859375 c 0
 824.809570312 4.69921875 778.592773438 -39.998046875 734 -39.998046875 c 0
 709.796875 -39.998046875 683.829101562 -29.3564453125 661.594726562 -4.876953125 c 0
 639 20 627 32.9150390625 606.8671875 32.9150390625 c 0
 567 32.9150390625 530.776367188 -9.998046875 408 -9.998046875 c 0
 174.978515625 -9.998046875 40 137.599609375 40 365.001953125 c 0
EndSplineSet
EndChar

StartChar: R.ss01
Encoding: 65543 -1 33
Width: 819
Flags: W
HStem: -9.99805 21G<144.632 291.731 535.458 684.222> -9.99805 21G<144.632 291.731 535.458 684.222> 528.322 210.68<227.618 482.871>
VStem: 50 323.12<133.383 522.012> 492.88 269.12<426.032 516.513>
LayerCount: 2
Fore
SplineSet
373.120117188 472.681640625 m 0x38
 373.120117188 423.246919158 385.702956319 415.681640625 432 415.681640625 c 0
 467.788544662 415.681640625 492.879882812 433.159962636 492.879882812 472.681640625 c 0
 492.879882812 511.283930586 467.788544662 528.322265625 432 528.322265625 c 0
 385.702956319 528.322265625 373.120117188 520.990895286 373.120117188 472.681640625 c 0x38
762 501 m 4
 762 385.528569358 671.955078125 359.044296275 671.955078125 322.567382812 c 0
 671.955078125 277.286217174 789.91015625 225.109083917 789.91015625 124.505859375 c 0
 789.91015625 36.951171875 731.443359375 -9.998046875 637 -9.998046875 c 0
 433.915774769 -9.998046875 474.004484305 225 404 225 c 0
 385.405273438 225 380.018554688 213.772460938 380.018554688 191 c 0
 380.018554688 169.708007812 383.129882812 155 383.129882812 116 c 0
 383.129882812 49.0849609375 348.462890625 -9.998046875 235 -9.998046875 c 0xb8
 54.263671875 -9.998046875 50 148.955851019 50 394.001953125 c 0
 50 603.212109375 77.7838827839 739.001953125 378 739.001953125 c 0
 647.743621756 739.001953125 762 650.837890625 762 501 c 4
EndSplineSet
EndChar

StartChar: zero
Encoding: 48 48 61
Width: 756
Flags: W
HStem: -9.99805 21G<273.818 482.182> -9.99805 21G<273.818 482.182> 719.002 20G<273.818 482.182> 719.002 20G<273.818 482.182>
VStem: 40 676<202.648 526.99>
LayerCount: 2
Fore
SplineSet
40 365.001953125 m 0xa8
 40 631.8515625 169.636800585 739.001953125 378 739.001953125 c 0
 586.363199415 739.001953125 716 631.8515625 716 365.001953125 c 0
 716 97.599609375 586.363199415 -9.998046875 378 -9.998046875 c 0
 169.636800585 -9.998046875 40 97.599609375 40 365.001953125 c 0xa8
EndSplineSet
Substitution2: "'sups' Superscript lookup 0 subtable" zero.superior
Substitution2: "'ss01' Style Set 1 in Latin lookup 0-1" zero.ss01
EndChar

StartChar: one
Encoding: 49 49 62
Width: 534
Flags: W
HStem: -9.99805 21G<224.031 384.207> -9.99805 21G<224.031 384.207> 719.002 20G<207.785 360.909> 719.002 20G<207.785 360.909>
VStem: 134 350<117.675 456.889>
LayerCount: 2
Fore
SplineSet
134 191.00390625 m 0xa8
 134 279.192628287 140 345.301741803 140 414.00390625 c 0
 140 496.695794385 30 436.167435692 30 553.00390625 c 0
 30 656.671308537 139.570811879 739.001953125 276 739.001953125 c 4
 445.818740173 739.001953125 484 631.404296875 484 364.001953125 c 0
 484 137.15234375 468.4140625 -9.998046875 300 -9.998046875 c 0
 148.061523438 -9.998046875 134 91.642578125 134 191.00390625 c 0xa8
EndSplineSet
Substitution2: "'sups' Superscript lookup 0 subtable" one.superior
EndChar

StartChar: two
Encoding: 50 50 63
Width: 713
Flags: W
HStem: -10 248.844<455.213 569.324> 490.158 248.844<255.687 451.963>
VStem: 43 630<61.751 212.339> 349.102 105.797<265 450>
LayerCount: 2
Fore
SplineSet
659 529.00390625 m 0xd0
 659 333.665039062 454.8984375 338.990332421 454.8984375 265 c 0xd0
 454.8984375 242.270839914 472.47975521 238.84375 491.282226562 238.84375 c 0
 517.385564589 238.84375 546.623261455 243.848632812 574.904296875 243.848632812 c 0
 626.03256692 243.848632812 673 229.274019171 673 129.998046875 c 0
 673 22.0300824503 580.932617188 -10 338 -10 c 0
 124.074262477 -10 43 9.79600340728 43 160 c 0xe0
 43 336.059277022 349.1015625 351.964641053 349.1015625 450 c 4
 349.1015625 477.039059866 335.961719032 490.158203125 305.717773438 490.158203125 c 4
 234.942686623 490.158203125 243.436523438 406.153320312 149 406.153320312 c 4
 99.708644224 406.153320312 40 429.466796875 40 517.00390625 c 0
 40 636.8515625 129.319102729 739.001953125 365 739.001953125 c 0
 538.925737523 739.001953125 659 672.147460938 659 529.00390625 c 0xd0
EndSplineSet
Substitution2: "'sups' Superscript lookup 0 subtable" two.superior
EndChar

StartChar: zero.ss01
Encoding: 65544 -1 64
Width: 756
Flags: W
HStem: -9.99805 263.496<329.791 426.209> 475.506 263.496<329.791 426.209>
VStem: 40 267.807<279.138 450.309> 448.193 267.807<279.138 450.309>
LayerCount: 2
Fore
SplineSet
40 365.001953125 m 0
 40 631.8515625 169.636800585 739.001953125 378 739.001953125 c 4
 586.363199415 739.001953125 716 631.8515625 716 365.001953125 c 4
 716 97.599609375 586.363199415 -9.998046875 378 -9.998046875 c 4
 169.636800585 -9.998046875 40 97.599609375 40 365.001953125 c 0
307.806640625 364.647460938 m 4
 307.806640625 297.245761566 325.728609864 253.498046875 378 253.498046875 c 4
 430.271390136 253.498046875 448.193359375 297.245761566 448.193359375 364.647460938 c 4
 448.193359375 431.888595647 430.271390136 475.505859375 378 475.505859375 c 4
 325.728609864 475.505859375 307.806640625 431.888595647 307.806640625 364.647460938 c 4
EndSplineSet
EndChar

StartChar: three
Encoding: 51 51 65
Width: 706
Flags: W
HStem: -19.998 218.228<80.2848 269.551> 490.158 248.844<139.772 238.096>
VStem: 33.001 610<542.782 669.025>
LayerCount: 2
Back
SplineSet
156.000976562 376.969726562 m 4
 156.000976562 411.311523438 174 416 209.000976562 426.00390625 c 4
 262.844726562 441.393554688 284.000976562 453.375976562 284.000976562 483.00390625 c 4
 284.000976562 521.000976562 268.047851562 537.6484375 181 546.774414062 c 4
 104.549804688 554.790039062 30 563.129882812 30 654.953125 c 4
 30 734.412109375 90.525390625 765.001953125 187 765.001953125 c 4
 494.192382812 765.001953125 623 716.374023438 623 587 c 4
 623 485 527.899414062 464.752929688 527.899414062 426.969726562 c 4
 527.899414062 389.186523438 656.000976562 381.625976562 656.000976562 236 c 4
 656.000976562 66.5595703125 494.192382812 -19.998046875 187 -19.998046875 c 4
 90.525390625 -19.998046875 30 10.591796875 30 90.05078125 c 4
 30 181.874023438 104.549804688 190.213867188 181 198.229492188 c 4
 268.047851562 207.35546875 304.000976562 224.002929688 304.000976562 262 c 4
 304.000976562 291.627929688 294 311 229.000976562 329 c 4
 182.362304688 341.916015625 156.000976562 342.627929688 156.000976562 376.969726562 c 4
EndSplineSet
Fore
SplineSet
643.000976562 612 m 4
 643.000976562 509.642578125 527.899414062 472.0078125 527.899414062 426.970703125 c 4
 527.899414062 389.1875 656.000976562 381.625976562 656.000976562 236 c 4
 656.000976562 66.5595703125 494.192382812 -19.998046875 187 -19.998046875 c 4
 90.525390625 -19.998046875 30 10.591796875 30 90.05078125 c 4
 30 181.874023438 104.549804688 190.213867188 181 198.229492188 c 4
 268.047851562 207.35546875 304.000976562 224.002929688 304.000976562 262 c 4
 304.000976562 291.627929688 291.307617188 310 229.000976562 310 c 4
 180.606445312 310 156.000976562 315.65625 156.000976562 349.998046875 c 4
 156.000976562 405.12890625 238.102539062 442.44140625 238.102539062 472 c 4
 238.102539062 486.731445312 228.802734375 490.158203125 214.71875 490.158203125 c 4
 188.615234375 490.158203125 159.377929688 485.153320312 131.096679688 485.153320312 c 4
 79.96875 485.153320312 33.0009765625 499.727539062 33.0009765625 599.00390625 c 4
 33.0009765625 706.971679688 127.81640625 739.001953125 378.000976562 739.001953125 c 4
 570.171875 739.001953125 643.000976562 707.51171875 643.000976562 612 c 4
EndSplineSet
Substitution2: "'sups' Superscript lookup 0 subtable" three.superior
EndChar

StartChar: four
Encoding: 52 52 66
Width: 792
Flags: W
HStem: -9.99805 21G<436.166 540.528> -9.99805 21G<436.166 540.528> 719.002 20G<387.071 552.3> 719.002 20G<387.071 552.3>
LayerCount: 2
Fore
SplineSet
629.908203125 587 m 0xa0
 629.908203125 533.766843926 625.891601562 501.689963918 625.891601562 445.6796875 c 0
 625.891601562 413.416015625 627.098183496 403.53880909 663.373046875 398.18359375 c 0
 721.368638556 389.621772883 752 363.289576081 752 285 c 0
 752 210.464755273 720.448182622 177.244896487 669.318359375 171.6953125 c 0
 642.327382066 168.765736649 628.163088334 165.990242293 625.90625 129.637695312 c 0
 620.629529199 44.6416909865 593.055067989 -9.998046875 488 -9.998046875 c 0
 384.33127053 -9.998046875 351.52238806 38 344 138 c 0
 342.45314526 158.563346745 335.427441728 164.822037972 314 165.41796875 c 4
 65.6741192915 172.324301164 40 236.454451448 40 315.001953125 c 0
 40 483.303377418 276.142747975 739.001953125 498 739.001953125 c 0
 606.599068736 739.001953125 629.908203125 691.077148438 629.908203125 587 c 0xa0
EndSplineSet
Substitution2: "'sups' Superscript lookup 0 subtable" four.superior
Substitution2: "'ss01' Style Set 1 in Latin lookup 0-1" four.ss01
EndChar

StartChar: five
Encoding: 53 53 67
Width: 716
Flags: W
HStem: -19.998 218.228<90.2839 279.55> 529 225<402.303 583.74>
VStem: 49.999 346.892<381.5 522.607>
LayerCount: 2
Fore
SplineSet
396.890625 492 m 0
 396.890625 460.336914062 409.012695312 458.869140625 463.999023438 450 c 0
 587.999023438 430 666 379.450195312 666 246 c 0
 666 66.5595703125 504.19140625 -19.998046875 196.999023438 -19.998046875 c 0
 100.524414062 -19.998046875 39.9990234375 10.591796875 39.9990234375 90.05078125 c 0
 39.9990234375 181.874023438 114.548828125 190.213867188 190.999023438 198.229492188 c 0
 278.046875 207.35546875 314 224.002929688 314 262 c 0
 314 291.627929688 301.185546875 306.11328125 239 310 c 0
 78.9990234375 320 49.9990234375 333 49.9990234375 430 c 0
 49.9990234375 546.27734375 55.9990234375 662 111.999023438 697 c 0
 155.586914062 724.2421875 185.999023438 731.0078125 346.999023438 731.0078125 c 0
 465.31535962 731.0078125 515.740930668 754 559.999023438 754 c 0
 620.999023438 754 651.999023438 710.633789062 651.999023438 648 c 0
 651.999023438 572.336914062 604.45000383 536.432617188 457.999023438 529 c 4
 411.881074869 526.659441704 396.890625 522 396.890625 492 c 0
EndSplineSet
Substitution2: "'sups' Superscript lookup 0 subtable" five.superior
EndChar

StartChar: six
Encoding: 54 54 68
Width: 736
Flags: W
HStem: -9.99805 445.104<364.734 531.783> 528 211.002<410.841 578.022>
VStem: 40 324.136<209.493 531.622>
LayerCount: 2
Fore
SplineSet
364.135742188 464 m 0
 364.13577219 440.723849826 381.094817114 435.10546875 407.221679688 435.10546875 c 0
 428.920308027 435.10546875 450.626778093 440 488 440 c 0
 592.633294224 440 696 390 696 225.001953125 c 0
 696 82.4966399629 601.021484375 -9.998046875 368 -9.998046875 c 0
 134.978515625 -9.998046875 40 113.983984375 40 305.001953125 c 4
 40 568.244547961 200.320066995 739.001953125 458 739.001953125 c 0
 590.850720454 739.001953125 641.752929688 690 641.752929688 622 c 0
 641.752929688 559.465610208 592.159894843 535.83371708 518 528 c 0
 393.55640853 514.854675427 364.135799589 495 364.135742188 464 c 0
EndSplineSet
Substitution2: "'sups' Superscript lookup 0 subtable" six.superior
Substitution2: "'ss01' Style Set 1 in Latin lookup 0-1" six.ss01
EndChar

StartChar: seven
Encoding: 55 55 69
Width: 680
Flags: W
HStem: -9.99805 21G<200.651 343.574> -9.99805 21G<200.651 343.574> 500.158 238.844<134.712 474.711>
VStem: 315.102 334.898<385.216 652.988>
LayerCount: 2
Fore
SplineSet
375 739.001953125 m 4xb0
 574.421875 739.001953125 650 706.971679688 650 599.00390625 c 4
 650 414 442.1484375 -9.998046875 245 -9.998046875 c 4
 156.302734375 -9.998046875 108.249023438 38.494140625 108.249023438 100 c 4
 108.249023438 224.099609375 315.1015625 356.432617188 315.1015625 464 c 4
 315.1015625 494.588867188 294.137695312 500.158203125 271.717773438 500.158203125 c 4
 226.884765625 500.158203125 176.668945312 485.153320312 128.095703125 485.153320312 c 4
 76.9677734375 485.153320312 30 499.727539062 30 599.00390625 c 4
 30 706.971679688 124.815429688 739.001953125 375 739.001953125 c 4xb0
EndSplineSet
Substitution2: "'sups' Superscript lookup 0 subtable" seven.superior
EndChar

StartChar: eight
Encoding: 56 56 70
Width: 733
Flags: W
HStem: -9.99805 21G<275.491 455.922> -9.99805 21G<275.491 455.922> 719.002 20G<280.664 450.743> 719.002 20G<280.664 450.743>
VStem: 50 633<108.356 283.99> 65 603<440.08 612.983>
LayerCount: 2
Fore
SplineSet
365 -9.998046875 m 4xa8
 185.981063179 -9.998046875 50 51.689453125 50 197.065429688 c 4xa8
 50 310.477539062 137 337.071289062 137 371.001953125 c 4
 137 402.1796875 65 420.504882812 65 521 c 4
 65 670.627929688 196.328125 739.001953125 365 739.001953125 c 4
 536.485140414 739.001953125 668 670.627929688 668 521 c 4xa4
 668 420.504882812 596 402.1796875 596 371.001953125 c 4
 596 337.071289062 683 310.477539062 683 197.065429688 c 4
 683 51.689453125 546.843042834 -9.998046875 365 -9.998046875 c 4xa8
EndSplineSet
Substitution2: "'sups' Superscript lookup 0 subtable" eight.superior
Substitution2: "'ss01' Style Set 1 in Latin lookup 0-1" eight.ss01
EndChar

StartChar: four.ss01
Encoding: 65545 -1 72
Width: 792
Flags: W
HStem: -9.99805 21G<436.166 540.528> -9.99805 21G<436.166 540.528> 470.322 268.68<295.354 552.3>
VStem: 40 249.12<275.728 410.291>
LayerCount: 2
Fore
SplineSet
629.908203125 587 m 0xb0
 629.908203125 533.766843926 625.891601562 501.689963918 625.891601562 445.6796875 c 0
 625.891601562 413.416015625 627.098183496 403.53880909 663.373046875 398.18359375 c 0
 721.368638556 389.621772883 752 363.289576081 752 285 c 0
 752 210.464755273 720.448182622 177.244896487 669.318359375 171.6953125 c 0
 642.327382066 168.765736649 628.163088334 165.990242293 625.90625 129.637695312 c 0
 620.629529199 44.6416909865 593.055067989 -9.998046875 488 -9.998046875 c 0
 384.33127053 -9.998046875 351.52238806 38 344 138 c 0
 342.45314526 158.563346745 335.427441728 164.822037972 314 165.41796875 c 0
 65.6741192915 172.324301164 40 236.454451448 40 315.001953125 c 0
 40 483.303377418 276.142747975 739.001953125 498 739.001953125 c 0
 606.599068736 739.001953125 629.908203125 691.077148438 629.908203125 587 c 0xb0
289.120117188 404.681640625 m 4
 289.120117188 383.457421875 297.775959029 369.681640625 327 369.681640625 c 4
 357.132451982 369.681640625 375.879882812 387.393359375 375.879882812 414.681640625 c 4
 375.879882812 448.430448236 373.620966868 470.322265625 348 470.322265625 c 4
 314.565896568 470.322265625 289.120117188 427.463995072 289.120117188 404.681640625 c 4
EndSplineSet
EndChar

StartChar: six.ss01
Encoding: 65546 -1 73
Width: 736
Flags: W
HStem: -9.99805 189.68<332.95 433.085> 289.322 145.783<365.668 436.238> 528 211.002<410.841 578.022>
VStem: 40 279.12<194.327 436.623> 446.88 249.12<191.909 276.451>
LayerCount: 2
Fore
SplineSet
319.120117188 234.681640625 m 4
 319.120117188 201.329101562 343.62109375 179.681640625 383 179.681640625 c 4
 422.37890625 179.681640625 446.879882812 201.329101562 446.879882812 234.681640625 c 4
 446.879882812 267.82421875 422.37890625 289.322265625 383 289.322265625 c 4
 343.62109375 289.322265625 319.120117188 267.82421875 319.120117188 234.681640625 c 4
364.135742188 464 m 0
 364.13577219 440.723849826 381.094817114 435.10546875 407.221679688 435.10546875 c 0
 428.920308027 435.10546875 450.626778093 440 488 440 c 0
 592.633294224 440 696 390 696 225.001953125 c 0
 696 82.4966399629 601.021484375 -9.998046875 368 -9.998046875 c 0
 134.978515625 -9.998046875 40 113.983984375 40 305.001953125 c 0
 40 568.244547961 200.320066995 739.001953125 458 739.001953125 c 0
 590.850720454 739.001953125 641.752929688 690 641.752929688 622 c 0
 641.752929688 559.465610208 592.159894843 535.83371708 518 528 c 0
 393.55640853 514.854675427 364.135799589 495 364.135742188 464 c 0
EndSplineSet
EndChar

StartChar: eight.ss01
Encoding: 65547 -1 74
Width: 733
Flags: W
HStem: -9.99805 189.68<314.562 417.301> 289.322 155.842<317.78 415.22> 543.84 195.162<317.886 413.976>
VStem: 50 252.62<121.484 277.692> 65 244.008<455.37 534.822> 423.992 244.008<455.37 534.822> 430.38 252.62<121.484 277.692>
LayerCount: 2
Fore
SplineSet
365 -9.998046875 m 4xe2
 185.981063179 -9.998046875 50 51.689453125 50 197.065429688 c 4xf2
 50 310.477539062 137 337.071289062 137 371.001953125 c 4
 137 402.1796875 65 420.504882812 65 521 c 4
 65 670.627929688 196.328125 739.001953125 365 739.001953125 c 4
 536.485140414 739.001953125 668 670.627929688 668 521 c 4xec
 668 420.504882812 596 402.1796875 596 371.001953125 c 4
 596 337.071289062 683 310.477539062 683 197.065429688 c 4
 683 51.689453125 546.843042834 -9.998046875 365 -9.998046875 c 4xe2
309.0078125 494.6640625 m 0xec
 309.0078125 464.646484375 331.05859375 445.1640625 366.5 445.1640625 c 0
 401.94140625 445.1640625 423.9921875 464.646484375 423.9921875 494.6640625 c 0
 423.9921875 524.4921875 401.94140625 543.83984375 366.5 543.83984375 c 0
 331.05859375 543.83984375 309.0078125 524.4921875 309.0078125 494.6640625 c 0xec
302.620117188 234.681640625 m 0xf2
 302.620117188 201.329101562 327.12109375 179.681640625 366.5 179.681640625 c 0
 405.87890625 179.681640625 430.379882812 201.329101562 430.379882812 234.681640625 c 0
 430.379882812 267.82421875 405.87890625 289.322265625 366.5 289.322265625 c 0
 327.12109375 289.322265625 302.620117188 267.82421875 302.620117188 234.681640625 c 0xf2
EndSplineSet
EndChar

StartChar: period
Encoding: 46 46 76
Width: 316
Flags: W
HStem: -9.99805 239<79.7963 236.204>
VStem: 40 236<29.5814 189.112>
LayerCount: 2
Fore
SplineSet
40 109.001953125 m 4
 40 194.622148646 85.2578179556 229.001953125 158 229.001953125 c 4
 230.742182044 229.001953125 276 194.622148646 276 109.001953125 c 4
 276 24.1462760417 230.742182044 -9.998046875 158 -9.998046875 c 4
 85.2578179556 -9.998046875 40 24.1462760417 40 109.001953125 c 4
EndSplineSet
EndChar

StartChar: comma
Encoding: 44 44 77
Width: 316
Flags: W
HStem: -83 312.002<78.5945 177.669>
VStem: 70.5576 205.442<14.1219 151.812>
LayerCount: 2
Fore
SplineSet
70.5576171875 15 m 4
 70.5576171875 60 43.03125 71.4904705684 43.03125 128.220703125 c 0
 43.03125 199.634480592 89.2055479122 229.001953125 158 229.001953125 c 0
 230.742182044 229.001953125 276 194.622148646 276 109.001953125 c 0
 276 -1.95064396577 203.467136932 -83 85 -83 c 0
 60.8792120331 -83 48.5810546875 -68.8241065586 48.5810546875 -54 c 0
 48.5810546875 -25.6095207878 70.5576171875 -23.0136986301 70.5576171875 15 c 4
EndSplineSet
EndChar

StartChar: exclam
Encoding: 33 33 80
Width: 456
Flags: W
HStem: -9.99805 199<136.514 319.486> 719.002 20G<146.539 309.461> 719.002 20G<146.539 309.461>
VStem: 50 356<448.325 689.181> 100 256<24.7653 153.906>
LayerCount: 2
Fore
SplineSet
50 585.001953125 m 4xd0
 50 678.410615809 65.0778388278 739.001953125 228 739.001953125 c 0
 390.922161172 739.001953125 406 678.410615809 406 585.001953125 c 4
 406 413.050071465 316.717202712 240.001953125 228 240.001953125 c 4
 144.956348549 240.001953125 50 424.046561268 50 585.001953125 c 4xd0
100 89.001953125 m 0x88
 100 160.352050781 149.093220339 189.001953125 228 189.001953125 c 0
 306.906779661 189.001953125 356 160.352050781 356 89.001953125 c 0
 356 18.4079076943 306.906779661 -9.998046875 228 -9.998046875 c 0
 149.093220339 -9.998046875 100 18.4079076943 100 89.001953125 c 0x88
EndSplineSet
EndChar

StartChar: question
Encoding: 63 63 81
Width: 713
Flags: W
HStem: -9.99805 199<256.514 439.486> 490.158 248.844<261.288 451.963>
VStem: 220 256<24.7653 153.906> 369.102 289.898<398.655 585.574>
LayerCount: 2
Fore
SplineSet
220 89.001953125 m 4xe0
 220 160.352050781 269.093220339 189.001953125 348 189.001953125 c 4
 426.906779661 189.001953125 476 160.352050781 476 89.001953125 c 4
 476 18.4079076943 426.906779661 -9.998046875 348 -9.998046875 c 4
 269.093220339 -9.998046875 220 18.4079076943 220 89.001953125 c 4xe0
318 240.001953125 m 4
 274.903846154 240.001953125 264 259.739028601 264 277 c 4
 264 339.886446153 369.1015625 350.037396807 369.1015625 430 c 4
 369.1015625 470.50532965 352.932974021 490.158203125 315.717773438 490.158203125 c 4
 230.426601098 490.158203125 249.462420907 406.153320312 149 406.153320312 c 4
 99.708644224 406.153320312 40 429.466796875 40 517.00390625 c 4
 40 636.8515625 129.319102729 739.001953125 365 739.001953125 c 4
 538.925737523 739.001953125 659 672.147460938 659 499 c 4xd0
 659 315.16875911 484.781931464 240.001953125 318 240.001953125 c 4
EndSplineSet
EndChar

StartChar: dollar
Encoding: 36 36 82
Width: 576
Flags: W
HStem: -89.998 250.998<219.697 356.35> -9.99805 21G<156.464 330.525 156.464 330.525> 581 238.002<219.697 356.35> 719.002 20G<243.475 417.536 243.475 417.536>
VStem: 40 368<421.091 580.202> 170 366<161.3 317.918> 187 202.048<-53.4446 161 581 784.601>
LayerCount: 2
Fore
SplineSet
187.857365097 581 m 5x22
 187.373200452 613.381874018 187 643.358190821 187 672.841796875 c 4
 187 763.75390625 200.870277804 819.001953125 288.0234375 819.001953125 c 4
 375.177235091 819.001953125 389.047851562 763.754882812 389.047851562 672.844726562 c 4
 389.047851562 643.360355549 388.674511196 613.383103225 388.190171841 581 c 5
 187.857365097 581 l 5x22
388.078632706 161 m 5x82
 388.615981337 126.139410311 389.047851563 93.9311671347 389.047851562 62.076171875 c 4
 389.047851562 -30.345703125 375.177235091 -89.998046875 288.0234375 -89.998046875 c 4
 200.870277804 -89.998046875 187 -30.3447265625 187 62.0791015625 c 4
 187 93.9333536319 187.431710633 126.140659421 187.968868305 161 c 5
 388.078632706 161 l 5x82
EndSplineSet
Refer: 23 83 N 1 0 0 1 0 0 2
EndChar

StartChar: bar
Encoding: 124 124 83
Width: 302
Flags: W
VStem: 50 202.048<-53.4446 784.601>
LayerCount: 2
Fore
SplineSet
53.0234375 365.001953125 m 4
 53.0234375 501.012270792 50 588.922851562 50 672.841796875 c 4
 50 763.75390625 63.8702778041 819.001953125 151.0234375 819.001953125 c 4
 238.177235091 819.001953125 252.047851562 763.754882812 252.047851562 672.844726562 c 4
 252.047851562 588.92578125 249.0234375 501.014025897 249.0234375 365.001953125 c 4
 249.0234375 233.147645267 252.047851562 146.375 252.047851562 62.076171875 c 4
 252.047851562 -30.345703125 238.177235091 -89.998046875 151.0234375 -89.998046875 c 4
 63.8702778041 -89.998046875 50 -30.3447265625 50 62.0791015625 c 4
 50 146.377929688 53.0234375 233.149330354 53.0234375 365.001953125 c 4
EndSplineSet
EndChar

StartChar: slash
Encoding: 47 47 84
Width: 563
Flags: W
VStem: 40 212.631<-15.7446 86.1084> 312.056 211.555<656.628 759.176>
LayerCount: 2
Fore
SplineSet
147.580078125 -82.796875 m 0
 88.365234375 -82.796875 40 -41.9326171875 40 8.0986328125 c 0
 40 32.212890625 47.3818359375 61.51171875 64.4619140625 105.184570312 c 0
 95.166015625 183.692382812 140.155273438 280.655273438 188.178710938 403.451171875 c 4
 237.717773438 530.119140625 281.490234375 633.344726562 312.055664062 711.499023438 c 0
 343.309570312 791.415039062 370.55078125 820.858398438 413.23828125 820.858398438 c 0
 473.18359375 820.858398438 523.610351562 779.5859375 523.610351562 730.5234375 c 0
 523.610351562 707.573242188 516.578125 679.72265625 500.225585938 637.911132812 c 0
 469.66015625 559.755859375 420.254882812 458.732421875 370.715820312 332.0625 c 4
 322.69140625 209.265625 283.333984375 110.098632812 252.630859375 31.5908203125 c 0
 220.106445312 -51.5693359375 191.428710938 -82.796875 147.580078125 -82.796875 c 0
EndSplineSet
EndChar

StartChar: backslash
Encoding: 92 92 85
Width: 563
Flags: W
VStem: 40 211.555<656.628 759.176> 310.979 212.631<-15.7446 86.1084>
LayerCount: 2
Fore
SplineSet
416.030273438 -82.796875 m 0
 372.181640625 -82.796875 343.50390625 -51.5693359375 310.979492188 31.5908203125 c 0
 280.276367188 110.098632812 240.918945312 209.265625 192.89453125 332.0625 c 4
 143.35546875 458.732421875 93.9501953125 559.755859375 63.384765625 637.911132812 c 0
 47.0322265625 679.72265625 40 707.573242188 40 730.5234375 c 0
 40 779.5859375 90.4267578125 820.858398438 150.372070312 820.858398438 c 0
 193.059570312 820.858398438 220.30078125 791.415039062 251.5546875 711.499023438 c 0
 282.120117188 633.344726562 325.892578125 530.119140625 375.431640625 403.451171875 c 4
 423.455078125 280.655273438 468.444335938 183.692382812 499.1484375 105.184570312 c 0
 516.228515625 61.51171875 523.610351562 32.212890625 523.610351562 8.0986328125 c 0
 523.610351562 -41.9326171875 475.245117188 -82.796875 416.030273438 -82.796875 c 0
EndSplineSet
EndChar

StartChar: hyphen
Encoding: 45 45 86
Width: 470
Flags: W
HStem: 273.67 180.284<69.5899 400.469>
VStem: 40 390.059<302.236 426.083>
LayerCount: 2
Fore
SplineSet
235.009765625 273.669921875 m 4
 196.614257812 273.669921875 167.694335938 273.594726562 139.912109375 273.594726562 c 4
 76.8115234375 273.594726562 40 307.271484375 40 365 c 4
 40 421.232421875 76.65234375 453.91015625 139.724609375 453.91015625 c 4
 167.579101562 453.91015625 193.357421875 453.954101562 235.029296875 453.954101562 c 4
 276.701171875 453.954101562 302.479492188 453.91015625 330.333984375 453.91015625 c 4
 393.40625 453.91015625 430.05859375 421.232421875 430.05859375 365 c 4
 430.05859375 307.271484375 393.247070312 273.594726562 330.146484375 273.594726562 c 4
 302.364257812 273.594726562 273.444335938 273.669921875 235.009765625 273.669921875 c 4
EndSplineSet
EndChar

StartChar: plus
Encoding: 43 43 87
Width: 550
Flags: W
HStem: 273.67 180.284<69.5899 480.469>
VStem: 184.85 180.284<153.335 574.214>
LayerCount: 2
Fore
SplineSet
365.133789062 363.754882812 m 0
 365.133789062 325.359375 365.208984375 251.439453125 365.208984375 223.657226562 c 0
 365.208984375 160.556640625 331.532226562 123.745117188 273.803710938 123.745117188 c 0
 217.571289062 123.745117188 184.893554688 160.397460938 184.893554688 223.469726562 c 0
 184.893554688 251.32421875 184.849609375 322.102539062 184.849609375 363.774414062 c 0
 184.849609375 405.446289062 184.893554688 476.224609375 184.893554688 504.079101562 c 0
 184.893554688 567.151367188 217.571289062 603.803710938 273.803710938 603.803710938 c 0
 331.532226562 603.803710938 365.208984375 566.9921875 365.208984375 503.891601562 c 0
 365.208984375 476.109375 365.133789062 402.189453125 365.133789062 363.754882812 c 0
275.009765625 273.669921875 m 4
 236.614257812 273.669921875 167.694335938 273.594726562 139.912109375 273.594726562 c 4
 76.8115234375 273.594726562 40 307.271484375 40 365 c 4
 40 421.232421875 76.65234375 453.91015625 139.724609375 453.91015625 c 4
 167.579101562 453.91015625 233.357421875 453.954101562 275.029296875 453.954101562 c 4
 316.701171875 453.954101562 382.479492188 453.91015625 410.333984375 453.91015625 c 4
 473.40625 453.91015625 510.05859375 421.232421875 510.05859375 365 c 4
 510.05859375 307.271484375 473.247070312 273.594726562 410.146484375 273.594726562 c 4
 382.364257812 273.594726562 313.444335938 273.669921875 275.009765625 273.669921875 c 4
EndSplineSet
EndChar

StartChar: equal
Encoding: 61 61 88
Width: 550
Flags: W
HStem: 163.67 180.284<69.5899 480.469> 383.67 180.284<69.5899 480.469>
LayerCount: 2
Fore
SplineSet
275.009765625 163.669921875 m 0
 236.614257812 163.669921875 167.694335938 163.594726562 139.912109375 163.594726562 c 0
 76.8115234375 163.594726562 40 197.271484375 40 255 c 0
 40 311.232421875 76.65234375 343.91015625 139.724609375 343.91015625 c 0
 167.579101562 343.91015625 233.357421875 343.954101562 275.029296875 343.954101562 c 0
 316.701171875 343.954101562 382.479492188 343.91015625 410.333984375 343.91015625 c 0
 473.40625 343.91015625 510.05859375 311.232421875 510.05859375 255 c 0
 510.05859375 197.271484375 473.247070312 163.594726562 410.146484375 163.594726562 c 0
 382.364257812 163.594726562 313.444335938 163.669921875 275.009765625 163.669921875 c 0
275.009765625 383.669921875 m 4
 236.614257812 383.669921875 167.694335938 383.594726562 139.912109375 383.594726562 c 4
 76.8115234375 383.594726562 40 417.271484375 40 475 c 4
 40 531.232421875 76.65234375 563.91015625 139.724609375 563.91015625 c 4
 167.579101562 563.91015625 233.357421875 563.954101562 275.029296875 563.954101562 c 4
 316.701171875 563.954101562 382.479492188 563.91015625 410.333984375 563.91015625 c 4
 473.40625 563.91015625 510.05859375 531.232421875 510.05859375 475 c 4
 510.05859375 417.271484375 473.247070312 383.594726562 410.146484375 383.594726562 c 4
 382.364257812 383.594726562 313.444335938 383.669921875 275.009765625 383.669921875 c 4
EndSplineSet
EndChar

StartChar: less
Encoding: 60 60 89
Width: 550
Flags: W
HStem: 100.129 527.662<272.927 475.172>
LayerCount: 2
Fore
SplineSet
507.3671875 187.766601562 m 0
 507.3671875 139.33984375 475.172072549 100.12890625 419.9765625 100.12890625 c 0
 272.927031746 100.12890625 42.6328125 241.302649932 42.6328125 361.627929688 c 0
 42.6328125 485.872497455 269.566456771 627.791015625 420.860351562 627.791015625 c 0
 475.730679698 627.791015625 506.759765625 588.959960938 506.759765625 539.931640625 c 0
 506.759765625 442.009765625 291.255859375 410 291.255859375 363.817382812 c 4
 291.255859375 308 507.3671875 285.080078125 507.3671875 187.766601562 c 0
EndSplineSet
EndChar

StartChar: greater
Encoding: 62 62 90
Width: 550
Flags: W
HStem: 100.129 527.662<74.8281 277.073>
LayerCount: 2
Fore
SplineSet
42.6328125 540.153320312 m 0
 42.6328125 588.580078125 74.828125 627.791015625 130.0234375 627.791015625 c 0
 277.073242188 627.791015625 507.3671875 486.6171875 507.3671875 366.291992188 c 0
 507.3671875 242.047851562 280.43359375 100.12890625 129.139648438 100.12890625 c 0
 74.26953125 100.12890625 43.240234375 138.959960938 43.240234375 187.98828125 c 0
 43.240234375 285.91015625 258.744140625 317.919921875 258.744140625 364.102539062 c 4
 258.744140625 419.919921875 42.6328125 442.83984375 42.6328125 540.153320312 c 0
EndSplineSet
EndChar

StartChar: parenleft
Encoding: 40 40 91
Width: 389
Flags: W
VStem: 40 196<202.942 528.971>
LayerCount: 2
Fore
SplineSet
40 365.001953125 m 0
 40 685 200.005859375 819.001953125 288 819.001953125 c 0
 334.60546875 819.001953125 349.024414062 801.5546875 349.024414062 772.844726562 c 0
 349.024414062 661.665039062 236 611.720703125 236 365.001953125 c 0
 236 123.0078125 349.024414062 74.203125 349.024414062 -37.923828125 c 0
 349.024414062 -69.5712890625 334.60546875 -89.998046875 288 -89.998046875 c 0
 200.005859375 -89.998046875 40 47 40 365.001953125 c 0
EndSplineSet
EndChar

StartChar: parenright
Encoding: 41 41 92
Width: 389
Flags: W
VStem: 153.024 196<202.942 528.971>
LayerCount: 2
Fore
SplineSet
349.024414062 365.001953125 m 0
 349.024414062 47 189.018554688 -89.998046875 101.024414062 -89.998046875 c 0
 54.4189453125 -89.998046875 40 -69.5712890625 40 -37.923828125 c 0
 40 74.203125 153.024414062 123.0078125 153.024414062 365.001953125 c 0
 153.024414062 611.720703125 40 661.665039062 40 772.844726562 c 0
 40 801.5546875 54.4189453125 819.001953125 101.024414062 819.001953125 c 0
 189.018554688 819.001953125 349.024414062 685 349.024414062 365.001953125 c 0
EndSplineSet
EndChar

StartChar: underscore
Encoding: 95 95 93
Width: 710
Flags: W
HStem: -180.24 180.284<69.5899 640.469>
VStem: 40 630.059<-151.674 -27.8269>
LayerCount: 2
Fore
SplineSet
355.009765625 -180.240234375 m 0
 268.164473463 -180.240234375 202.751637231 -180.315429688 139.912109375 -180.315429688 c 0
 76.8115234375 -180.315429688 40 -146.638671875 40 -88.91015625 c 0
 40 -32.677734375 76.65234375 0 139.724609375 0 c 0
 202.651238623 0 260.887547295 0.0439453125 355.029296875 0.0439453125 c 0
 449.171046455 0.0439453125 507.407355127 0 570.333984375 0 c 4
 633.40625 0 670.05859375 -32.677734375 670.05859375 -88.91015625 c 4
 670.05859375 -146.638671875 633.247070312 -180.315429688 570.146484375 -180.315429688 c 4
 507.321350812 -180.315429688 441.923498327 -180.240234375 355.009765625 -180.240234375 c 0
EndSplineSet
EndChar

StartChar: grave
Encoding: 96 96 94
Width: 298
Flags: W
HStem: 444.134 294.858<152.209 198.841>
VStem: 40 218<578.856 670.36>
LayerCount: 2
Back
SplineSet
63.3857421875 556.0390625 m 4
 47.0322265625 597.856445312 40 625.70703125 40 648.657226562 c 4
 40 697.719726562 90.4267578125 738.9921875 150.372070312 738.9921875 c 4
 193.059570312 738.9921875 220.30078125 709.548828125 251.5546875 629.6328125 c 4
 268.634765625 585.959960938 276.016601562 556.661132812 276.016601562 532.546875 c 4
 276.016601562 482.515625 227.651367188 441.651367188 168.436523438 441.651367188 c 4
 124.587890625 441.651367188 95.91015625 472.87890625 63.3857421875 556.0390625 c 4
EndSplineSet
Fore
SplineSet
40 648.657226562 m 4
 40 697.719726562 80.4267578125 738.9921875 140.372070312 738.9921875 c 4
 213.059570312 738.9921875 258 657.133789062 258 579.133789062 c 0
 258 499.133789062 236.563476562 444.133789062 197 444.133789062 c 4
 148.977539062 444.133789062 40 569.133789062 40 648.657226562 c 4
EndSplineSet
EndChar

StartChar: asciicircum
Encoding: 94 94 95
Width: 567
Flags: W
HStem: 718.992 20G<221.336 343.621> 718.992 20G<221.336 343.621>
VStem: 40 487.662<376.453 529.051>
LayerCount: 2
Fore
SplineSet
127.637695312 344.2578125 m 0xa0
 79.2109375 344.2578125 40 376.453125 40 431.6484375 c 0
 40 548.698242188 161.173828125 738.9921875 281.499023438 738.9921875 c 4
 405.743164062 738.9921875 527.662109375 552.05859375 527.662109375 430.764648438 c 4
 527.662109375 375.89453125 488.831054688 344.865234375 439.802734375 344.865234375 c 4
 341.880859375 344.865234375 329.87109375 520.369140625 283.688476562 520.369140625 c 4
 227.87109375 520.369140625 224.951171875 344.2578125 127.637695312 344.2578125 c 0xa0
EndSplineSet
EndChar

StartChar: M.ss03
Encoding: 65549 -1 96
Width: 920
Flags: W
HStem: -10 21G<150.692 270.536 649.464 769.308> -10 21G<150.692 270.536 649.464 769.308> 719.002 20G<156.413 309.294 610.706 763.586> 719.002 20G<156.413 309.294 610.706 763.586>
VStem: 50 293.525<127.562 485.394> 576.475 293.525<127.562 485.394>
LayerCount: 2
Fore
SplineSet
460 570.366210938 m 0xac
 525.004360465 570.366210938 537.412699855 739.001953125 684 739.001953125 c 0
 843.172851562 739.001953125 870 595.786132812 870 375.001953125 c 0
 870 141.478515625 844.615234375 -10 694 -10 c 0
 604.928710938 -10 566.590820312 26.64453125 566.590820312 105.120117188 c 0
 566.590820312 146.1015625 576.474609375 192.238286217 576.474609375 233.219726562 c 0
 576.474609375 255.768241116 571.056640625 267.875 552.358398438 267.875 c 0
 517.485351562 267.875 490.831762925 180 460 180 c 0
 429.168237075 180 402.514648438 267.875 367.641601562 267.875 c 0
 348.942382812 267.875 343.525390625 255.767998264 343.525390625 233.219726562 c 0
 343.525390625 192.238644605 353.409179688 146.1015625 353.409179688 105.120117188 c 0
 353.409179688 26.64453125 315.071357043 -10 226 -10 c 0
 75.384474734 -10 50 141.478883804 50 375.001953125 c 0
 50 595.786064923 76.8269230769 739.001953125 236 739.001953125 c 0
 382.587423053 739.001953125 394.995639535 570.366210938 460 570.366210938 c 0xac
EndSplineSet
EndChar

StartChar: W.ss04
Encoding: 65550 -1 97
Width: 1219
Flags: W
HStem: -10 280.366<261.45 456.184 762.812 957.55> 719.002 20G<156.413 291.308 559.061 663.934 927.692 1062.59>
VStem: 50 333.511<276.356 608.843> 462.489 294.021<274.121 685.309> 835.489 333.511<276.356 608.843>
LayerCount: 2
Fore
SplineSet
373 -10 m 4
 149.900725746 -10 50 149.347876809 50 395.001953125 c 0
 50 603.655069769 76.8269230769 739.001953125 236 739.001953125 c 0
 346.6152339 739.001953125 385.318359375 685.444163363 385.318359375 592.504882812 c 0
 385.318359375 497.117122877 383.510742188 435.829166186 383.510742188 340.44140625 c 0
 383.510742188 292.978506194 391.706223727 270.366210938 422.94921875 270.366210938 c 4
 454.294687791 270.366210938 462.489257812 292.97798974 462.489257812 340.44140625 c 0
 462.489257812 435.827832123 460.681640625 497.118456939 460.681640625 592.504882812 c 0
 460.681640625 691.802335784 508.622412002 738.9921875 609.5 738.9921875 c 0
 718.368889917 738.9921875 758.318359375 699.503963579 758.318359375 592.504882812 c 0
 758.318359375 497.117122877 756.510742188 435.829166186 756.510742188 340.44140625 c 0
 756.510742188 292.978506194 764.706223727 270.366210938 795.94921875 270.366210938 c 0
 827.294687791 270.366210938 835.489257812 292.97798974 835.489257812 340.44140625 c 0
 835.489257812 435.827832123 833.681640625 497.118456939 833.681640625 592.504882812 c 0
 833.681640625 685.444335938 872.384765625 739.001953125 983 739.001953125 c 0
 1142.17322557 739.001953125 1169 603.655133929 1169 395.001953125 c 0
 1169 149.347489504 1069.09927425 -10 846 -10 c 0
 681.701070681 -10 609.5 93.6806640625 609.5 93.6806640625 c 1
 609.5 93.6806640625 537.298946966 -10 373 -10 c 4
EndSplineSet
EndChar

StartChar: at
Encoding: 64 64 98
Width: 927
Flags: W
HStem: -89.998 179.68<399.817 709.82> 158.281 419.439<441.181 634.934> 639.322 179.68<379.865 607.995>
VStem: 40 189.12<252.967 485.398> 714 50.8799<276.737 526.267>
LayerCount: 2
Fore
SplineSet
321.51953125 368.28125 m 0
 321.51953125 495.316699543 402.707708867 577.720703125 533.200195312 577.720703125 c 0
 676.021263145 577.720703125 764.879882812 479.578689851 764.879882812 328.28125 c 0
 764.879882812 225.1921875 683.692079747 158.28125 553.200195312 158.28125 c 0
 410.37852547 158.28125 321.51953125 240.9359375 321.51953125 368.28125 c 0
40 365.001953125 m 0
 40 640.375543115 215.6617002 819.001953125 498 819.001953125 c 4
 746.323640693 819.001953125 881.752929688 670.964583178 881.752929688 383 c 0
 881.752929688 208.872624427 841.952597251 158.28125 781 158.28125 c 0
 723.898398709 158.28125 697 193.738305009 697 239 c 0
 697 289.727272727 714 352.606474709 714 425 c 0
 714 572.954606741 634.082678812 639.322265625 488 639.322265625 c 4
 328.411122345 639.322265625 229.120117188 531.26484517 229.120117188 364.681640625 c 0
 229.120117188 197.919921875 343.752755551 89.681640625 528 89.681640625 c 0
 708.926527366 89.681640625 710.476946901 124.205078125 784 124.205078125 c 0
 827.621747333 124.205078125 857.899414062 101.740810609 857.899414062 50.763671875 c 0
 857.899414062 -61.5771015988 711.769244554 -89.998046875 538 -89.998046875 c 0
 231.003333406 -89.998046875 40 89.087109375 40 365.001953125 c 0
EndSplineSet
EndChar

StartChar: asterisk
Encoding: 42 42 99
Width: 532
Flags: W
HStem: 300.149 172.584<149.78 203.986 328.896 383.102> 504.275 128.281<73.0746 164.742 368.139 459.807>
VStem: 92.4922 153.117<348.809 422.415> 202.486 127.909<626.7 761.361> 287.272 153.117<348.809 422.415>
LayerCount: 2
Back
SplineSet
269.688476562 990 m 0
 329.633789062 990 370.060546875 954.159179688 370.060546875 889.665039062 c 0
 370.060546875 805.362304688 317.7109375 695.141601562 269.688476562 695.141601562 c 0
 221.666015625 695.141601562 169.31640625 805.362304688 169.31640625 889.665039062 c 0
 169.31640625 954.159179688 209.743164062 990 269.688476562 990 c 0
537.688476562 368.4765625 m 4
 537.688476562 318.328125 498.067382812 276.141601562 439.31640625 276.141601562 c 4
 336.763671875 276.141601562 291.688476562 404.502929688 291.688476562 502 c 4
 291.688476562 529.934570312 308.26171875 547 332.688476562 547 c 4
 392.688476562 547 537.688476562 499.701171875 537.688476562 368.4765625 c 4
519.17578125 783.525390625 m 0
 571.787109375 783.525390625 609.376953125 750.595703125 609.376953125 701.765625 c 0
 609.376953125 630.2890625 535.721679688 580.80859375 415.079101562 580.80859375 c 0
 353.155273438 580.80859375 326.063476562 597.46484375 326.063476562 628.204101562 c 0
 326.063476562 680.271484375 409.159179688 783.525390625 519.17578125 783.525390625 c 0
1.6884765625 368.4765625 m 0
 1.6884765625 499.701171875 146.688476562 547 206.688476562 547 c 0
 231.115234375 547 247.688476562 529.934570312 247.688476562 502 c 0
 247.688476562 404.502929688 202.61328125 276.141601562 100.060546875 276.141601562 c 0
 41.3095703125 276.141601562 1.6884765625 318.328125 1.6884765625 368.4765625 c 0
20.201171875 783.525390625 m 0
 130.217773438 783.525390625 213.313476562 680.271484375 213.313476562 628.204101562 c 0
 213.313476562 597.46484375 186.221679688 580.80859375 124.297851562 580.80859375 c 0
 3.6552734375 580.80859375 -70 630.2890625 -70 701.765625 c 0
 -70 750.595703125 -32.41015625 783.525390625 20.201171875 783.525390625 c 0
EndSplineSet
Fore
SplineSet
266.44140625 775.001953125 m 0xd0
 304.63671875 775.001953125 330.395507812 752.165039062 330.395507812 711.071289062 c 0
 330.395507812 657.35546875 297.040039062 587.125976562 266.44140625 587.125976562 c 0
 235.842773438 587.125976562 202.486328125 657.35546875 202.486328125 711.071289062 c 0
 202.486328125 752.165039062 228.245117188 775.001953125 266.44140625 775.001953125 c 0xd0
440.389648438 358.982421875 m 0xc8
 440.389648438 327.029296875 415.143554688 300.149414062 377.708984375 300.149414062 c 0
 314.885203254 300.149414062 287.272460938 381.938476562 287.272460938 444.060546875 c 0
 287.272460938 461.859375 297.833007812 472.733398438 313.397460938 472.733398438 c 0
 350.566303498 472.733398438 440.389648438 442.595703125 440.389648438 358.982421875 c 0xc8
435.408203125 632.556640625 m 0
 468.930664062 632.556640625 492.881835938 611.57421875 492.881835938 580.4609375 c 0
 492.881835938 534.91796875 445.950195312 504.275390625 369.080078125 504.275390625 c 0
 329.624023438 504.275390625 312.361328125 514.888671875 312.361328125 534.474609375 c 0
 312.361328125 567.650390625 365.307617188 632.556640625 435.408203125 632.556640625 c 0
92.4921875 358.982421875 m 0xe0
 92.4921875 442.595703125 182.31553244 472.733398438 219.484375 472.733398438 c 0
 235.048828125 472.733398438 245.609375 461.859375 245.609375 444.060546875 c 0
 245.609375 381.938476562 217.995723665 300.149414062 155.171875 300.149414062 c 0
 117.737304688 300.149414062 92.4921875 327.029296875 92.4921875 358.982421875 c 0xe0
97.4736328125 632.556640625 m 0
 167.573242188 632.556640625 220.51953125 567.650390625 220.51953125 534.474609375 c 0
 220.51953125 514.888671875 203.2578125 504.275390625 163.801757812 504.275390625 c 0
 86.931640625 504.275390625 40 534.91796875 40 580.4609375 c 4
 40 611.57421875 63.951171875 632.556640625 97.4736328125 632.556640625 c 0
EndSplineSet
EndChar

StartChar: quotesingle
Encoding: 39 39 100
Width: 296
Flags: W
HStem: 410.002 329<107.807 188.193>
VStem: 40 216<514.244 709.768>
LayerCount: 2
Fore
SplineSet
40 625.001953125 m 0
 40 694.1484375 58.30078125 739.001953125 148 739.001953125 c 0
 237.69921875 739.001953125 256 694.1484375 256 625.001953125 c 4
 256 517.84375 201.828125 410.001953125 148 410.001953125 c 0
 97.6142578125 410.001953125 40 524.696289062 40 625.001953125 c 0
EndSplineSet
EndChar

StartChar: percent
Encoding: 37 37 102
Width: 1101
Flags: W
HStem: -10 399<754.687 971.313> 339.992 399<129.687 346.313> 718.992 20G<757.924 794.733>
VStem: 40 396<429.959 648.612> 665 396<79.9666 298.619>
LayerCount: 2
Fore
SplineSet
665 189 m 4x98
 665 331.700195312 740.94140625 389 863 389 c 4
 985.05859375 389 1061 331.700195312 1061 189 c 4
 1061 47.0986328125 985.05859375 -10 863 -10 c 4
 740.94140625 -10 665 47.0986328125 665 189 c 4x98
40 538.9921875 m 4
 40 681.692513369 115.941084366 738.9921875 238 738.9921875 c 4
 360.058915634 738.9921875 436 681.692513369 436 538.9921875 c 4
 436 397.090677083 360.058915634 339.9921875 238 339.9921875 c 4x58
 115.941084366 339.9921875 40 397.090677083 40 538.9921875 c 4
324.85546875 -8 m 0
 283.634765625 -8 223.310546875 33.5283203125 223.310546875 91.5380859375 c 0
 223.310546875 116.8984375 236.244140625 146.495117188 279.873046875 200.171875 c 0
 333.04296875 265.5859375 405.443359375 344.225585938 488.609375 446.541992188 c 0
 574.396484375 552.084960938 614.04296875 596.780273438 666.97265625 661.901367188 c 0
 710.771484375 715.78515625 741.9921875 738.9921875 773.85546875 738.9921875 c 0x38
 815.611328125 738.9921875 877.689453125 695.358398438 877.689453125 637.7109375 c 0
 877.689453125 613.875976562 865.64453125 585.990234375 823.763671875 534.46484375 c 0
 770.83203125 469.34375 726.4921875 428.461914062 640.703125 322.916992188 c 0
 557.5390625 220.598632812 489.830078125 138.14453125 436.66015625 72.7294921875 c 0
 390.888671875 16.41796875 357.990234375 -8 324.85546875 -8 c 0
EndSplineSet
EndChar

StartChar: ampersand
Encoding: 38 38 103
Width: 910
Flags: W
HStem: -19.998 488.143<415.99 598.06> 546.774 218.228<421.793 565.716>
VStem: 73.001 338.999<492.211 651.687>
LayerCount: 2
Fore
SplineSet
880 376.969726562 m 4
 880 441.178616847 827.78920573 468.14453125 762.392578125 468.14453125 c 4
 622.766583262 468.14453125 565.638014147 465.4296875 487.04296875 465.4296875 c 4
 430.410484272 465.4296875 412 479.417803078 412 505.00390625 c 4
 412 529.89247899 423.277728974 540.979609023 485.000976562 546.774414062 c 4
 551.51543543 553.019035603 616.000976562 563.129882812 616.000976562 654.953125 c 4
 616.000976562 734.412109375 555.475585938 765.001953125 459.000976562 765.001953125 c 4
 187.037078017 765.001953125 73.0009765625 716.374023438 73.0009765625 587 c 4
 73.0009765625 485 168.1015625 464.752929687 168.1015625 426.969726562 c 4
 168.1015625 389.186523437 40 381.625976563 40 236 c 4
 40 66.5595703125 170.757968772 -19.998046875 419.000976562 -19.998046875 c 4
 646.975408821 -19.998046875 790 60.1168615659 790 196 c 4
 790 245.346938776 779 261.897959184 779 279 c 4
 779 300.625107646 880 281 880 376.969726562 c 4
EndSplineSet
Substitution2: "'ss01' Style Set 1 in Latin lookup 0-1" ampersand.ss01
EndChar

StartChar: three.ss05
Encoding: 65551 -1 104
Width: 696
Flags: W
HStem: -19.998 218.228<80.2848 269.551> 546.774 218.228<80.2848 255.756>
LayerCount: 2
Fore
SplineSet
156.000976562 376.969726562 m 4
 156.000976562 411.311523438 174 416 209.000976562 426.00390625 c 4
 262.844726562 441.393554688 284.000976562 453.375976562 284.000976562 483.00390625 c 4
 284.000976562 521.000976562 268.047851562 537.6484375 181 546.774414062 c 4
 104.549804688 554.790039062 30 563.129882812 30 654.953125 c 4
 30 734.412109375 90.525390625 765.001953125 187 765.001953125 c 4
 494.192382812 765.001953125 623 716.374023438 623 587 c 4
 623 485 527.899414062 464.752929688 527.899414062 426.969726562 c 4
 527.899414062 389.186523438 656.000976562 381.625976562 656.000976562 236 c 4
 656.000976562 66.5595703125 494.192382812 -19.998046875 187 -19.998046875 c 4
 90.525390625 -19.998046875 30 10.591796875 30 90.05078125 c 4
 30 181.874023438 104.549804688 190.213867188 181 198.229492188 c 4
 268.047851562 207.35546875 304.000976562 224.002929688 304.000976562 262 c 4
 304.000976562 291.627929688 294 311 229.000976562 329 c 4
 182.362304688 341.916015625 156.000976562 342.627929688 156.000976562 376.969726562 c 4
EndSplineSet
EndChar

StartChar: ampersand.ss01
Encoding: 65552 -1 105
Width: 910
Flags: W
HStem: -19.998 222.02<384.199 504.579> 285.286 180.144<417.292 518.139> 546.774 218.228<421.793 565.716>
VStem: 73.001 338.999<492.211 651.687>
LayerCount: 2
Fore
SplineSet
880 376.969726562 m 4
 880 441.178616847 827.78920573 468.14453125 762.392578125 468.14453125 c 4
 622.766583262 468.14453125 565.638014147 465.4296875 487.04296875 465.4296875 c 4
 430.410484272 465.4296875 412 479.417803078 412 505.00390625 c 4
 412 529.89247899 423.277728974 540.979609023 485.000976562 546.774414062 c 4
 551.51543543 553.019035603 616.000976562 563.129882812 616.000976562 654.953125 c 4
 616.000976562 734.412109375 555.475585938 765.001953125 459.000976562 765.001953125 c 4
 187.037078017 765.001953125 73.0009765625 716.374023438 73.0009765625 587 c 4
 73.0009765625 485 168.1015625 464.752929687 168.1015625 426.969726562 c 4
 168.1015625 389.186523437 40 381.625976563 40 236 c 4
 40 66.5595703125 170.757968772 -19.998046875 419.000976562 -19.998046875 c 4
 646.975408821 -19.998046875 790 60.1168615659 790 196 c 4
 790 245.346938776 779 261.897959184 779 279 c 4
 779 300.625107646 880 281 880 376.969726562 c 4
518.702148438 255.879882812 m 0
 518.702148438 217.269826806 489.35252015 202.021484375 442.084960938 202.021484375 c 0
 404.490449622 202.021484375 374.6796875 220.187730035 374.6796875 246.969726562 c 0
 374.6796875 270.78241806 383.663689118 285.286132812 456.497070312 285.286132812 c 0
 503.616960888 285.286132812 518.702148438 281.623001852 518.702148438 255.879882812 c 0
EndSplineSet
EndChar

StartChar: bracketleft
Encoding: 91 91 106
Width: 429
Flags: W
HStem: -89.998 157.632<296.187 372.38> 665.033 153.969<284.799 372.761>
VStem: 50 206<119.467 628.94>
LayerCount: 2
Fore
SplineSet
50 365.001953125 m 0
 50 790.0859375 70.3271484375 819.001953125 282 819.001953125 c 0
 353.379882812 819.001953125 399.024414062 796.96875 399.024414062 742.844726562 c 0
 399.024414062 691.333984375 374.365234375 668.133789062 342.513671875 665.033203125 c 0
 269.680664062 657.943359375 256 644.326171875 256 375.001953125 c 4
 256 113.5234375 267.626953125 88.4658203125 344.852539062 67.6337890625 c 0
 376.037109375 59.2216796875 399.024414062 38.201171875 399.024414062 -7.923828125 c 0
 399.024414062 -65.6923828125 355.629882812 -89.998046875 290 -89.998046875 c 0
 66.462890625 -89.998046875 50 -70.8701171875 50 365.001953125 c 0
EndSplineSet
EndChar

StartChar: bracketright
Encoding: 93 93 107
Width: 429
Flags: W
HStem: -89.998 153.969<56.2632 144.226> 661.37 157.632<56.6448 132.837>
VStem: 173.024 206<100.064 609.537>
LayerCount: 2
Fore
SplineSet
379.024414062 364.001953125 m 0
 379.024414062 -61.08203125 358.697265625 -89.998046875 147.024414062 -89.998046875 c 0
 75.64453125 -89.998046875 30 -67.96484375 30 -13.8408203125 c 0
 30 37.669921875 54.6591796875 60.8701171875 86.5107421875 63.970703125 c 0
 159.34375 71.060546875 173.024414062 84.677734375 173.024414062 354.001953125 c 4
 173.024414062 615.48046875 161.397460938 640.538085938 84.171875 661.370117188 c 0
 52.9873046875 669.782226562 30 690.802734375 30 736.927734375 c 0
 30 794.696289062 73.39453125 819.001953125 139.024414062 819.001953125 c 0
 362.561523438 819.001953125 379.024414062 799.874023438 379.024414062 364.001953125 c 0
EndSplineSet
EndChar

StartChar: braceleft
Encoding: 123 123 108
Width: 499
Flags: W
HStem: -89.998 157.632<373.037 442.38> 665.033 153.969<365.895 442.761>
VStem: 123.081 203.533<127.556 270.895 460.804 618.909>
LayerCount: 2
Fore
SplineSet
30 365.001953125 m 0
 30 446 121.631835938 417.981445312 123.748046875 530.174804688 c 0
 128.181640625 765.134765625 213.918945312 819.001953125 352 819.001953125 c 0
 423.379882812 819.001953125 469.024414062 796.96875 469.024414062 742.844726562 c 0
 469.024414062 691.333984375 444.365234375 668.133789062 412.513671875 665.033203125 c 0
 347.032226562 658.659179688 328.859375 597.016601562 327.138671875 484.911132812 c 0
 325.786132812 396.7734375 276 392.188476562 276 371 c 0
 276 347.271484375 325.717773438 345.625976562 326.614257812 254.900390625 c 0
 327.599609375 155.142578125 342.86328125 87.052734375 414.852539062 67.6337890625 c 0
 446.037109375 59.2216796875 469.024414062 38.201171875 469.024414062 -7.923828125 c 0
 469.024414062 -65.6923828125 425.629882812 -89.998046875 360 -89.998046875 c 0
 209.28125 -89.998046875 127.790039062 -43.8271484375 123.081054688 200.943359375 c 0
 120.806640625 319.241210938 30 285 30 365.001953125 c 0
EndSplineSet
EndChar

StartChar: braceright
Encoding: 125 125 109
Width: 499
Flags: W
HStem: -89.998 153.969<56.2632 133.129> 661.37 157.632<56.6448 125.988>
VStem: 171.886 203.391<110.095 266.761 458.109 601.448>
LayerCount: 2
Fore
SplineSet
469.024414062 364.001953125 m 4
 469.024414062 283.00390625 377.392578125 311.022460938 375.276367188 198.829101562 c 4
 370.842773438 -36.130859375 285.10546875 -89.998046875 147.024414062 -89.998046875 c 4
 75.64453125 -89.998046875 30 -67.96484375 30 -13.8408203125 c 4
 30 37.669921875 54.6591796875 60.8701171875 86.5107421875 63.970703125 c 4
 151.9921875 70.3447265625 170.165039062 131.987304688 171.885742188 244.092773438 c 4
 173.23828125 332.23046875 223.024414062 336.815429688 223.024414062 358.00390625 c 4
 223.024414062 381.732421875 173.306640625 383.377929688 172.41015625 474.103515625 c 4
 171.424804688 573.861328125 156.161132812 641.951171875 84.171875 661.370117188 c 4
 52.9873046875 669.782226562 30 690.802734375 30 736.927734375 c 4
 30 794.696289062 73.39453125 819.001953125 139.024414062 819.001953125 c 4
 289.743164062 819.001953125 371.234375 772.831054688 375.943359375 528.060546875 c 4
 378.217773438 409.762695312 469.024414062 444.00390625 469.024414062 364.001953125 c 4
EndSplineSet
EndChar

StartChar: numbersign
Encoding: 35 35 110
Width: 1019
Flags: W
HStem: -9.99805 21G<272.697 378.308 641.591 747.202> -9.99805 21G<272.697 378.308 641.591 747.202> 152.642 169.358<57.0086 135.506 884.393 962.89> 719.002 20G<268.6 378.308 641.591 751.298> 719.002 20G<268.6 378.308 641.591 751.298>
LayerCount: 2
Back
SplineSet
549.373046875 364.784179688 m 4
 549.373046875 394.819335938 540.649414062 412.875 510.540039062 412.875 c 4
 479.435546875 412.875 470.423828125 394.819335938 470.423828125 364.784179688 c 4
 470.423828125 332.186523438 479.147460938 316.12890625 509.256835938 316.12890625 c 4
 540.361328125 316.12890625 549.373046875 332.186523438 549.373046875 364.784179688 c 4
136.8984375 365.001953125 m 0
 136.8984375 585.786132812 163.725585938 739.001953125 322.8984375 739.001953125 c 0
 433.513671875 739.001953125 472.216796875 707.379882812 472.216796875 652.504882812 c 0
 472.216796875 640.37109375 470.409179688 632.575195312 470.409179688 620.44140625 c 0
 470.409179688 579.751953125 478.604492188 560.366210938 509.84765625 560.366210938 c 0
 541.193359375 560.366210938 549.387695312 579.750976562 549.387695312 620.44140625 c 0
 549.387695312 632.575195312 547.580078125 640.37109375 547.580078125 652.504882812 c 0
 547.580078125 707.379882812 586.283203125 739.001953125 696.8984375 739.001953125 c 0
 856.071289062 739.001953125 882.8984375 585.786132812 882.8984375 365.001953125 c 0
 882.8984375 144.217773438 856.071289062 -9.998046875 696.8984375 -9.998046875 c 0
 586.283203125 -9.998046875 547.580078125 21.6240234375 547.580078125 76.4990234375 c 0
 547.580078125 88.6328125 549.387695312 96.4287109375 549.387695312 108.5625 c 0
 549.387695312 149.251953125 541.192382812 168.637695312 509.94921875 168.637695312 c 0
 478.603515625 168.637695312 470.409179688 149.252929688 470.409179688 108.5625 c 0
 470.409179688 96.4287109375 472.216796875 88.6328125 472.216796875 76.4990234375 c 0
 472.216796875 21.6240234375 433.513671875 -9.998046875 322.8984375 -9.998046875 c 0
 163.725585938 -9.998046875 136.8984375 144.217773438 136.8984375 365.001953125 c 0
EndSplineSet
Fore
SplineSet
509.84765625 560.366210938 m 0xb0
 541.193359375 560.366210938 549.387695312 579.750976562 549.387695312 620.44140625 c 0
 549.387695312 632.575195312 547.580078125 640.37109375 547.580078125 652.504882812 c 0
 547.580078125 707.379882812 586.283203125 739.001953125 696.8984375 739.001953125 c 0
 805.698242188 739.001953125 847.8984375 667 866.8984375 577 c 0
 872.032226562 552.681640625 884.223632812 550.434570312 907.8984375 549 c 0
 973.8984375 545 989.8984375 513 989.8984375 466 c 0
 989.8984375 419 964.684570312 386.934570312 907.8984375 382 c 0
 884.883789062 380 882.8984375 372 882.8984375 356 c 0
 882.8984375 339.998046875 884.815429688 324 911.8984375 322 c 0
 964.754882812 318.096679688 989.8984375 284 989.8984375 237 c 0
 989.8984375 190 964.76171875 156.640625 896.798828125 152.641601562 c 0
 868.8984375 151 864.920898438 148.994140625 857.296875 120.16015625 c 0
 838.775390625 50.1123046875 797.504882812 -9.998046875 696.8984375 -9.998046875 c 0
 586.283203125 -9.998046875 547.580078125 21.6240234375 547.580078125 76.4990234375 c 0
 547.580078125 88.6328125 549.387695312 96.4287109375 549.387695312 108.5625 c 0
 549.387695312 149.251953125 541.192382812 168.637695312 509.94921875 168.637695312 c 0
 478.706054688 168.637695312 470.510742188 149.251953125 470.510742188 108.5625 c 0
 470.510742188 96.4287109375 472.318359375 88.6328125 472.318359375 76.4990234375 c 0
 472.318359375 21.6240234375 433.615234375 -9.998046875 323 -9.998046875 c 0
 222.393554688 -9.998046875 181.123046875 50.1123046875 162.6015625 120.16015625 c 0
 154.977539062 148.994140625 151 151 123.099609375 152.641601562 c 0
 55.13671875 156.640625 30 190 30 237 c 0
 30 284 55.1435546875 318.096679688 108 322 c 0
 135.083007812 324 137 339.998046875 137 356 c 0
 137 372 135.014648438 380 112 382 c 0
 55.2138671875 386.934570312 30 419 30 466 c 0
 30 513 46 545 112 549 c 0
 135.674804688 550.434570312 147.866210938 552.681640625 153 577 c 0
 172 667 214.200195312 739.001953125 323 739.001953125 c 0
 433.615234375 739.001953125 472.318359375 707.379882812 472.318359375 652.504882812 c 0
 472.318359375 640.37109375 470.510742188 632.575195312 470.510742188 620.44140625 c 0
 470.510742188 579.750976562 478.501953125 560.366210938 509.84765625 560.366210938 c 0xb0
EndSplineSet
Substitution2: "'ss01' Style Set 1 in Latin lookup 0-1" numbersign.ss01
EndChar

StartChar: numbersign.ss01
Encoding: 65553 -1 111
Width: 1019
Flags: W
HStem: -10 21G<243.311 378.623 641.173 776.485> 262.875 187.491<473.917 545.766> 719.002 20G<243.311 378.206 641.59 776.485>
VStem: 136.898 333.525<135.673 260.223 453.05 601.276> 549.387 333.511<135.672 260.223 453.05 601.276>
LayerCount: 2
Fore
SplineSet
549.373046875 364.784179688 m 4
 549.373046875 394.819335938 540.649414062 412.875 510.540039062 412.875 c 4
 479.435546875 412.875 470.423828125 394.819335938 470.423828125 364.784179688 c 4
 470.423828125 332.186523438 479.147460938 316.12890625 509.256835938 316.12890625 c 4
 540.361328125 316.12890625 549.373046875 332.186523438 549.373046875 364.784179688 c 4
509.84765625 560.366210938 m 0
 541.193359375 560.366210938 549.387695312 579.750976562 549.387695312 620.44140625 c 0
 549.387695312 632.575195312 547.580078125 640.37109375 547.580078125 652.504882812 c 0
 547.580078125 707.379882812 586.283203125 739.001953125 696.8984375 739.001953125 c 0
 805.698242188 739.001953125 847.8984375 667 866.8984375 577 c 0
 872.032226562 552.681640625 884.223632812 550.434570312 907.8984375 549 c 0
 973.8984375 545 989.8984375 513 989.8984375 466 c 0
 989.8984375 419 964.684570312 386.934570312 907.8984375 382 c 0
 884.883789062 380 882.8984375 372 882.8984375 356 c 0
 882.8984375 339.998046875 884.815429688 324 911.8984375 322 c 0
 964.754882812 318.096679688 989.8984375 284 989.8984375 237 c 0
 989.8984375 190 964.76171875 156.640625 896.798828125 152.641601562 c 0
 868.8984375 151 864.920898438 148.994140625 857.296875 120.16015625 c 0
 838.775390625 50.1123046875 797.504882812 -9.998046875 696.8984375 -9.998046875 c 0
 586.283203125 -9.998046875 547.580078125 21.6240234375 547.580078125 76.4990234375 c 0
 547.580078125 88.6328125 549.387695312 96.4287109375 549.387695312 108.5625 c 0
 549.387695312 149.251953125 541.192382812 168.637695312 509.94921875 168.637695312 c 0
 478.706054688 168.637695312 470.510742188 149.251953125 470.510742188 108.5625 c 0
 470.510742188 96.4287109375 472.318359375 88.6328125 472.318359375 76.4990234375 c 0
 472.318359375 21.6240234375 433.615234375 -9.998046875 323 -9.998046875 c 0
 222.393554688 -9.998046875 181.123046875 50.1123046875 162.6015625 120.16015625 c 0
 154.977539062 148.994140625 151 151 123.099609375 152.641601562 c 0
 55.13671875 156.640625 30 190 30 237 c 0
 30 284 55.1435546875 318.096679688 108 322 c 0
 135.083007812 324 137 339.998046875 137 356 c 0
 137 372 135.014648438 380 112 382 c 0
 55.2138671875 386.934570312 30 419 30 466 c 0
 30 513 46 545 112 549 c 0
 135.674804688 550.434570312 147.866210938 552.681640625 153 577 c 0
 172 667 214.200195312 739.001953125 323 739.001953125 c 0
 433.615234375 739.001953125 472.318359375 707.379882812 472.318359375 652.504882812 c 0
 472.318359375 640.37109375 470.510742188 632.575195312 470.510742188 620.44140625 c 0
 470.510742188 579.750976562 478.501953125 560.366210938 509.84765625 560.366210938 c 0
EndSplineSet
EndChar

StartChar: asciitilde
Encoding: 126 126 112
Width: 557
Flags: W
HStem: 257.057 183.612<296.976 422.636> 307.772 184.562<124.989 256.041>
LayerCount: 2
Back
SplineSet
338.26953125 430.668945312 m 4xa4
 361.618164062 430.668945312 369.236328125 444.62109375 378.249023438 458.924804688 c 4
 388.306640625 474.887695312 398.32421875 492.333984375 443.427734375 492.333984375 c 4xa8
 488.607421875 492.333984375 517.356445312 465.330078125 517.356445312 408.848632812 c 4
 517.356445312 300.19921875 448.782226562 257.056640625 367.5859375 257.056640625 c 4xa4
 312.375976562 257.056640625 282.947265625 276.552734375 260.645507812 294.504882812 c 4
 244.604492188 307.416992188 230.512695312 317.772460938 212.715820312 317.772460938 c 4xa8
 189.212890625 317.772460938 180.849609375 306.86328125 172.356445312 289.704101562 c 4
 164.53515625 273.908203125 154.299804688 258.005859375 113.928710938 258.005859375 c 4
 68.75 258.005859375 40 285.008789062 40 341.490234375 c 4
 40 450.140625 108.57421875 492.333984375 173.838867188 492.333984375 c 4
 241.184570312 492.333984375 268.274414062 471.284179688 290.780273438 454.205078125 c 4
 306.532226562 442.250976562 319.118164062 430.668945312 338.26953125 430.668945312 c 4xa4
EndSplineSet
Fore
SplineSet
358 440.668945312 m 4x80
 432.16796875 440.668945312 433.992533916 492.333984375 478 492.333984375 c 4x40
 498.294330613 492.333984375 517.356445312 478.268350885 517.356445312 448.848632812 c 4
 517.356445312 311.568086766 448.782226562 257.056640625 367.5859375 257.056640625 c 4x80
 269.336170111 257.056640625 247.151367188 307.772460938 190 307.772460938 c 4
 114.3396366 307.772460938 119.987436054 258.005859375 71 258.005859375 c 4
 57.4754901961 258.005859375 40 272.070832858 40 301.490234375 c 4
 40 438.951998524 108.57421875 492.333984375 173.838867188 492.333984375 c 4x40
 287.178399478 492.333984375 302.521484375 440.668945312 358 440.668945312 c 4x80
EndSplineSet
EndChar

StartChar: cent
Encoding: 162 162 113
Width: 687
Flags: W
HStem: 70.002 90.998<277.969 478.079> 581 78.002<277.857 478.19>
VStem: 277 202.048<-53.4446 161 581 784.601>
LayerCount: 2
Fore
SplineSet
277.857421875 581 m 1
 277.373225167 613.381874018 277 643.358190821 277 672.841796875 c 0
 277 763.75390625 290.870277804 819.001953125 378.0234375 819.001953125 c 0
 465.177235091 819.001953125 479.047851562 763.754882812 479.047851562 672.844726562 c 0
 479.047851562 643.360355549 478.674623435 613.383103225 478.190429688 581 c 1
 277.857421875 581 l 1
478.079101562 161 m 1
 478.616190253 126.139410311 479.047851563 93.9311671347 479.047851562 62.076171875 c 0
 479.047851562 -30.345703125 465.177235091 -89.998046875 378.0234375 -89.998046875 c 0
 290.870277804 -89.998046875 277 -30.3447265625 277 62.0791015625 c 0
 277 93.9333536319 277.431657918 126.140659421 277.96875 161 c 1
 478.079101562 161 l 1
40 365.001953125 m 0
 40 564.683944611 169.63687376 659.001953125 378 659.001953125 c 0
 510.056660397 659.001953125 641.752929688 618.766267281 641.752929688 503.577148438 c 0
 641.752929688 445.146431692 595.763981803 408.512695312 551.03515625 408.512695312 c 0
 491.516625248 408.512695312 483.052589354 449.322265625 408 449.322265625 c 0
 353.209087337 449.322265625 319.120117188 426.869512741 319.120117188 364.681640625 c 0
 319.120117188 302.285978618 353.209087337 279.681640625 408 279.681640625 c 0
 496.847942607 279.681640625 493.635120448 318.205078125 559.966796875 318.205078125 c 0
 606.7163105 318.205078125 657.899414062 285.952646176 657.899414062 212.763671875 c 4
 657.899414062 100.616343093 530.041200648 70.001953125 378 70.001953125 c 0
 169.63687376 70.001953125 40 164.752128032 40 365.001953125 c 0
EndSplineSet
EndChar

StartChar: sterling
Encoding: 163 163 114
Width: 660
Flags: W
HStem: -10 238.844<185.289 525.734> 285.595 176.927<395.006 493.209> 527 212<404.33 525.015>
VStem: 30 600<59.8228 188.206>
LayerCount: 2
Back
SplineSet
285 -10 m 0
 85.578125 -10 30 22.0302734375 30 98 c 0
 30 210 100 211 120 408 c 0
 147.819335938 682.018554688 291.693359375 739 415 739 c 0
 541 739 578 687.505859375 578 626 c 0
 578 553.780273438 544 524 493 524 c 0
 477.52734375 524 461.627929688 527 447 527 c 0
 417.000976562 527 393 510 384.522460938 436.109375 c 0
 375.44829071 320.446289062 362.8984375 298.28125 362.8984375 265.001953125 c 4
 362.8984375 234.413085938 383.862304688 228.84375 406.282226562 228.84375 c 4
 442.026674747 228.84375 493.17752645 243.848632812 531.904296875 243.848632812 c 0
 583.032226562 243.848632812 630 229.274414062 630 129.998046875 c 0
 630 22.0302734375 535.184570312 -10 285 -10 c 0
EndSplineSet
Fore
SplineSet
285 -10 m 0
 85.578125 -10 30 22.0302734375 30 98 c 0
 30 173.788976442 64 198 87.9248046875 273.548828125 c 0
 89.7331540698 279.259164258 91 284.303381807 91 287 c 0
 91 295 85 297 74 297 c 0
 46.0996472196 297 18 314.931467782 18 375 c 0
 18 463.119831 62.8717948718 479 110 479 c 0
 125 479 130.644736775 480.85603036 134.75 498.102539062 c 0
 179 684 301.441212388 739 415 739 c 0
 541 739 578 687.505859375 578 626 c 0
 578 553.780273438 544 524 493 524 c 0
 477.52734375 524 461.627929688 527 447 527 c 0
 421.202329695 527 395 508 395 476 c 0
 395 464.356310985 403.763461094 462.521981003 417.099853183 462.521981003 c 0
 423.234838699 462.521981003 430.337533751 462.91015625 438 462.91015625 c 0
 483.40625 462.91015625 520.05859375 431.232421875 520.05859375 375 c 0
 520.05859375 317.271484375 483.247070312 285.594726562 434 285.594726562 c 0
 413.100911458 285.594726562 400.571443257 288 387 288 c 0
 371.458984375 288 362.8984375 282 362.8984375 265.001953125 c 0
 362.8984375 234.413085938 383.862304688 228.84375 406.282226562 228.84375 c 0
 442.026674747 228.84375 493.17752645 243.848632812 531.904296875 243.848632812 c 0
 583.032226562 243.848632812 630 229.274414062 630 129.998046875 c 0
 630 22.0302734375 535.184570312 -10 285 -10 c 0
EndSplineSet
EndChar

StartChar: yen
Encoding: 165 165 115
Width: 821
Flags: W
HStem: -9.99805 21G<329.039 491.961> -9.99805 21G<329.039 491.961> 93.5498 114.03<125.977 510.5 645.617 695.023> 243.55 114.03<125.977 695.023> 719.002 20G<157.765 260.976 574.341 677.367> 719.002 20G<157.765 260.976 574.341 677.367>
VStem: 50 721.82<525.854 681.306> 232.5 356<121.855 378.145>
LayerCount: 2
Fore
SplineSet
588.5 325.001953125 m 0xb9
 588.5 121.855302527 573.421875 -9.998046875 410.5 -9.998046875 c 0
 247.578125 -9.998046875 232.5 121.855302527 232.5 325.001953125 c 0xb9
 232.5 351.96875 224.286702138 369.956808481 195.533203125 391.973632812 c 0
 122.447265625 447.936221794 50 518.827309527 50 607.494140625 c 0
 50 681.305664062 103.619140625 739.001953125 211.91015625 739.001953125 c 0
 310.042396997 739.001953125 359.310455301 690.05112942 378.87109375 637.708984375 c 0
 386.60805061 617.00572772 393.924152069 601.44140625 410.91015625 601.44140625 c 0
 429.442974509 601.44140625 437.497279834 617.009003947 445.868164062 637.708984375 c 0
 467.034852504 690.05112942 518.772550242 739.001953125 629.91015625 739.001953125 c 0
 724.82421875 739.001953125 771.8203125 681.305664062 771.8203125 607.494140625 c 0xba
 771.8203125 518.827309527 698.774414062 447.815485003 624.791015625 391.973632812 c 0
 596.210585895 370.401440047 588.5 351.96875 588.5 325.001953125 c 0xb9
510.48046875 93.5498046875 m 0
 375.185546875 93.5498046875 273.279296875 93.5029296875 175.3828125 93.5029296875 c 0
 137.544921875 93.5029296875 115.470703125 114.803710938 115.470703125 151.31640625 c 0
 115.470703125 186.8828125 137.421875 207.551757812 175.1953125 207.551757812 c 0
 273.194335938 207.551757812 363.888671875 207.580078125 510.5 207.580078125 c 0
 569.662109375 207.580078125 606.259765625 207.551757812 645.8046875 207.551757812 c 0
 683.578125 207.551757812 705.529296875 186.8828125 705.529296875 151.31640625 c 0
 705.529296875 114.803710938 683.455078125 93.5029296875 645.6171875 93.5029296875 c 0
 606.154296875 93.5029296875 565.075195312 93.5498046875 510.48046875 93.5498046875 c 0
510.48046875 243.549804688 m 0
 375.185546875 243.549804688 273.279296875 243.502929688 175.3828125 243.502929688 c 0
 137.544921875 243.502929688 115.470703125 264.803710938 115.470703125 301.31640625 c 0
 115.470703125 336.8828125 137.421875 357.551757812 175.1953125 357.551757812 c 0
 273.194335938 357.551757812 363.888671875 357.580078125 510.5 357.580078125 c 0
 569.662109375 357.580078125 606.259765625 357.551757812 645.8046875 357.551757812 c 0
 683.578125 357.551757812 705.529296875 336.8828125 705.529296875 301.31640625 c 0
 705.529296875 264.803710938 683.455078125 243.502929688 645.6171875 243.502929688 c 0
 606.154296875 243.502929688 565.075195312 243.549804688 510.48046875 243.549804688 c 0
EndSplineSet
EndChar

StartChar: brokenbar
Encoding: 166 166 116
Width: 302
Flags: W
HStem: -90 419<82.6974 219.35> 400.002 419<82.6974 219.35>
VStem: 50 202.048<-53.4466 301.66 429.345 784.601>
LayerCount: 2
Fore
SplineSet
51.0234375 135 m 0
 51.0234375 169.391330721 50 191.620246211 50 212.83984375 c 0
 50 285.091852101 63.8702778041 329 151.0234375 329 c 4
 238.177235091 329 252.047851562 285.092855522 252.047851562 212.842773438 c 0
 252.047851562 191.6225792 251.0234375 169.392741617 251.0234375 135 c 0
 251.0234375 103.257642608 252.047851562 82.3681596424 252.047851562 62.07421875 c 0
 252.047851562 -30.34765625 238.177235091 -90 151.0234375 -90 c 0
 63.8702778041 -90 50 -30.3466796875 50 62.0771484375 c 0
 50 82.3704703133 51.0234375 103.259016483 51.0234375 135 c 0
51.0234375 595.001953125 m 0
 51.0234375 629.393283846 50 651.622199336 50 672.841796875 c 0
 50 763.75390625 63.8702778041 819.001953125 151.0234375 819.001953125 c 0
 238.177235091 819.001953125 252.047851562 763.754882812 252.047851562 672.844726562 c 0
 252.047851562 651.624532324 251.0234375 629.394694742 251.0234375 595.001953125 c 0
 251.0234375 563.259595733 252.047851562 542.370112767 252.047851562 522.076171875 c 0
 252.047851562 447.886553945 238.177235091 400.001953125 151.0234375 400.001953125 c 0
 63.8702778041 400.001953125 50 447.887564562 50 522.079101562 c 0
 50 542.372423438 51.0234375 563.260969608 51.0234375 595.001953125 c 0
EndSplineSet
EndChar

StartChar: section
Encoding: 167 167 117
Width: 984
Flags: W
HStem: -158.998 999<400.46 583.54>
VStem: 220 224<297.694 598.069> 540 224<106.967 407.341>
LayerCount: 2
Back
SplineSet
220 355 m 6xa0
 220 425 l 6
 220 641.404296875 292.167139593 739.001953125 478 739.001953125 c 4
 583.54046076 739.001953125 634 705.559160213 634 653.00390625 c 4
 634 478.706242323 444 650 444 374.00390625 c 6
 444 301 l 6
 444 87.599609375 371.833248584 -9.998046875 186 -9.998046875 c 4
 80.4595392401 -9.998046875 30 23.4449140219 30 76 c 4
 30 250.297864941 220 82 220 355 c 6xa0
EndSplineSet
Fore
SplineSet
540 206 m 2
 540 436 l 2
 540 569.702532232 612.167139593 630.001953125 798 630.001953125 c 0
 903.54046076 630.001953125 954 596.559160213 954 544.00390625 c 0
 954 394.695154714 764 541.430667563 764 305.00390625 c 2
 764 112 l 6
 764 -73.9532226741 691.833248584 -158.998046875 506 -158.998046875 c 0
 400.45953924 -158.998046875 350 -125.555085978 350 -73 c 0
 350 61.297864941 540 -7 540 206 c 2
220 416 m 2
 220 566 l 2
 220 754.837041994 292.167139593 840.001953125 478 840.001953125 c 0
 583.54046076 840.001953125 634 806.559160213 634 754.00390625 c 0
 634 644.695154714 444 691.430667563 444 515.00390625 c 2
 444 242 l 2
 444 110.941113228 371.833248584 51.001953125 186 51.001953125 c 0
 80.4595392401 51.001953125 30 84.4449140219 30 137 c 0
 30 311.297864941 220 143 220 416 c 2
EndSplineSet
EndChar

StartChar: dieresis
Encoding: 168 168 118
Width: 596
Flags: W
HStem: 499.992 239<79.7963 236.204 359.796 516.204>
VStem: 40 236<539.572 699.102> 320 236<539.572 699.102>
LayerCount: 2
Fore
SplineSet
320 618.9921875 m 4
 320 704.612383021 365.257817956 738.9921875 438 738.9921875 c 4
 510.742182044 738.9921875 556 704.612383021 556 618.9921875 c 4
 556 534.136510417 510.742182044 499.9921875 438 499.9921875 c 4
 365.257817956 499.9921875 320 534.136510417 320 618.9921875 c 4
40 618.9921875 m 0
 40 704.612383021 85.2578179556 738.9921875 158 738.9921875 c 0
 230.742182044 738.9921875 276 704.612383021 276 618.9921875 c 0
 276 534.136510417 230.742182044 499.9921875 158 499.9921875 c 0
 85.2578179556 499.9921875 40 534.136510417 40 618.9921875 c 0
EndSplineSet
EndChar

StartChar: copyright
Encoding: 169 169 119
Width: 996
Flags: W
HStem: -89.998 156.35<381.214 614.786> 139.802 155.808<482.674 589.974> 433.395 155.808<482.674 585.518> 662.652 156.35<381.214 614.786>
VStem: 40 167.4<242.46 487.136> 281.58 185.472<310.686 415.7> 788.6 167.4<242.46 487.136>
LayerCount: 2
Fore
SplineSet
281.580078125 364.801757812 m 4
 281.580078125 500.911760371 368.567063489 589.202148438 508.379882812 589.202148438 c 4
 602.63435733 589.202148438 696.631835938 536.400976562 696.631835938 453.947265625 c 4
 696.631835938 415.200736468 662.955123737 390.908203125 630.201171875 390.908203125 c 4
 589.496637561 390.908203125 583.707992807 433.39453125 532.379882812 433.39453125 c 4
 492.107761106 433.39453125 467.051757812 406.330994856 467.051757812 364.609375 c 4
 467.051757812 322.76734375 492.107761106 295.609375 532.379882812 295.609375 c 4
 592.703985771 295.609375 590.522879497 336.723632812 635.559570312 336.723632812 c 4
 669.337740673 336.723632812 706.319335938 315.536952554 706.319335938 267.458984375 c 4
 706.319335938 186.030454012 615.900521254 139.801757812 508.379882812 139.801757812 c 4
 368.567063489 139.801757812 281.580078125 228.360351562 281.580078125 364.801757812 c 4
207.400390625 364.8515625 m 0
 207.400390625 183.839296875 318.857206041 66.3515625 498 66.3515625 c 0
 677.142793959 66.3515625 788.599609375 183.839296875 788.599609375 364.8515625 c 0
 788.599609375 545.482554206 677.142793959 662.65234375 498 662.65234375 c 0
 318.857206041 662.65234375 207.400390625 545.482554206 207.400390625 364.8515625 c 0
40 365.001953125 m 0
 40 640.375543115 215.661700201 819.001953125 498 819.001953125 c 0
 780.338299799 819.001953125 956 640.375543115 956 365.001953125 c 0
 956 89.087109375 780.338299799 -89.998046875 498 -89.998046875 c 0
 215.661700201 -89.998046875 40 89.087109375 40 365.001953125 c 0
EndSplineSet
EndChar

StartChar: registered
Encoding: 174 174 120
Width: 996
Flags: W
HStem: -89.998 156.35<381.214 614.786> 280.801 308.401<384.718 511.388> 662.652 156.35<381.214 614.786>
VStem: 40 167.4<242.459 487.136> 277.982 198.011<190.906 280.796> 788.6 167.4<242.459 487.136>
LayerCount: 2
Fore
SplineSet
705.181640625 446.400390625 m 4
 705.181640625 377.117382813 651.155273438 361.226757813 651.155273438 339.340820312 c 4
 651.155273438 312.172070313 721.927734375 280.866015625 721.927734375 220.50390625 c 4
 721.927734375 167.971220888 686.84765625 139.801757812 630.181640625 139.801757812 c 4
 508.331420235 139.801757812 532.384706943 280.80078125 490.381835938 280.80078125 c 4
 479.225151441 280.80078125 475.993164062 274.06412882 475.993164062 260.400390625 c 4
 475.993164062 247.625195313 477.860351562 238.800390625 477.860351562 215.400390625 c 4
 477.860351562 175.251470914 457.06015625 139.801757812 388.982421875 139.801757812 c 4
 280.540625 139.801757812 277.982421875 235.174372442 277.982421875 382.202148438 c 4
 277.982421875 507.728125 294.652913143 589.202148438 474.782226562 589.202148438 c 4
 636.627713405 589.202148438 705.181640625 536.303493886 705.181640625 446.400390625 c 4
207.400390625 364.8515625 m 0
 207.400390625 183.838867188 318.857421875 66.3515625 498 66.3515625 c 0
 677.142578125 66.3515625 788.599609375 183.838867188 788.599609375 364.8515625 c 0
 788.599609375 545.482421875 677.142578125 662.65234375 498 662.65234375 c 0
 318.857421875 662.65234375 207.400390625 545.482421875 207.400390625 364.8515625 c 0
40 365.001953125 m 0
 40 640.375976562 215.662109375 819.001953125 498 819.001953125 c 0
 780.337890625 819.001953125 956 640.375976562 956 365.001953125 c 0
 956 89.0869140625 780.337890625 -89.998046875 498 -89.998046875 c 0
 215.662109375 -89.998046875 40 89.0869140625 40 365.001953125 c 0
EndSplineSet
EndChar

StartChar: registered.ss01
Encoding: 65554 -1 121
Width: 996
Flags: W
HStem: -89.998 156.35<381.214 614.786> 462.794 126.408<383.554 539.887> 662.652 156.35<381.214 614.786>
VStem: 40 167.4<242.459 487.136> 277.982 193.872<190.906 280.796 293.365 460.03> 543.71 161.472<397.239 459.816> 788.6 167.4<242.459 487.136>
LayerCount: 2
Fore
SplineSet
471.854492188 429.41015625 m 4
 471.854492188 399.74915398 479.40402871 395.209960938 507.181640625 395.209960938 c 4
 528.654997053 395.209960938 543.709960938 405.697014034 543.709960938 429.41015625 c 4
 543.709960938 452.571123716 528.654997053 462.793945312 507.181640625 462.793945312 c 4
 479.40402871 462.793945312 471.854492188 458.395200314 471.854492188 429.41015625 c 4
705.181640625 446.400390625 m 0
 705.181640625 377.117382813 651.155273438 361.226757813 651.155273438 339.340820312 c 0
 651.155273438 312.172070313 721.927734375 280.866015625 721.927734375 220.50390625 c 0
 721.927734375 167.971220888 686.84765625 139.801757812 630.181640625 139.801757812 c 0
 508.331420235 139.801757812 532.384706943 280.80078125 490.381835938 280.80078125 c 0
 479.225151441 280.80078125 475.993164062 274.06412882 475.993164062 260.400390625 c 0
 475.993164062 247.625195313 477.860351562 238.800390625 477.860351562 215.400390625 c 0
 477.860351562 175.251470914 457.06015625 139.801757812 388.982421875 139.801757812 c 0
 280.540625 139.801757812 277.982421875 235.174372442 277.982421875 382.202148438 c 0
 277.982421875 507.728125 294.652913143 589.202148438 474.782226562 589.202148438 c 0
 636.627713405 589.202148438 705.181640625 536.303493886 705.181640625 446.400390625 c 0
207.400390625 364.8515625 m 0
 207.400390625 183.838867188 318.857421875 66.3515625 498 66.3515625 c 0
 677.142578125 66.3515625 788.599609375 183.838867188 788.599609375 364.8515625 c 0
 788.599609375 545.482421875 677.142578125 662.65234375 498 662.65234375 c 0
 318.857421875 662.65234375 207.400390625 545.482421875 207.400390625 364.8515625 c 0
40 365.001953125 m 0
 40 640.375976562 215.662109375 819.001953125 498 819.001953125 c 0
 780.337890625 819.001953125 956 640.375976562 956 365.001953125 c 0
 956 89.0869140625 780.337890625 -89.998046875 498 -89.998046875 c 0
 215.662109375 -89.998046875 40 89.0869140625 40 365.001953125 c 0
EndSplineSet
EndChar

StartChar: uni2117
Encoding: 8471 8471 122
Width: 996
Flags: W
HStem: -89.998 156.35<381.214 614.786> 288.958 300.244<503.177 630.425> 662.652 156.35<381.214 614.786>
VStem: 40 167.4<242.459 487.136> 285.982 216.952<205.866 289.815> 788.6 167.4<242.459 487.136>
LayerCount: 2
Fore
SplineSet
719.181640625 421.201171875 m 4
 719.181640625 337.681379926 670.488830167 288.958007812 588.224609375 288.958007812 c 4
 558.866499657 288.958007812 549.209964892 290.203125 532.966796875 290.203125 c 4
 512.025992371 290.203125 502.934570312 284.170703812 502.934570312 261.17578125 c 4
 502.934570312 250.845382959 503.860351562 246.211050246 503.860351562 228.600585938 c 4
 503.860351562 169.251352985 477.060328664 139.801757812 408.982421875 139.801757812 c 4
 300.540800996 139.801757812 285.982421875 235.17425024 285.982421875 382.202148438 c 4
 285.982421875 507.728242187 304.685702034 589.202148438 506.782226562 589.202148438 c 4
 664.413220676 589.202148438 719.181640625 521.899918809 719.181640625 421.201171875 c 4
207.400390625 364.8515625 m 0
 207.400390625 183.838867188 318.857421875 66.3515625 498 66.3515625 c 0
 677.142578125 66.3515625 788.599609375 183.838867188 788.599609375 364.8515625 c 0
 788.599609375 545.482421875 677.142578125 662.65234375 498 662.65234375 c 0
 318.857421875 662.65234375 207.400390625 545.482421875 207.400390625 364.8515625 c 0
40 365.001953125 m 0
 40 640.375976562 215.662109375 819.001953125 498 819.001953125 c 0
 780.337890625 819.001953125 956 640.375976562 956 365.001953125 c 0
 956 89.0869140625 780.337890625 -89.998046875 498 -89.998046875 c 0
 215.662109375 -89.998046875 40 89.0869140625 40 365.001953125 c 0
EndSplineSet
EndChar

StartChar: uni2117.ss01
Encoding: 65555 -1 123
Width: 996
Flags: W
HStem: -89.998 156.35<381.214 614.786> 290.203 105.007<503.797 561.919> 462.794 126.408<494.949 561.673> 662.652 156.35<381.214 614.786>
VStem: 40 167.4<242.459 487.136> 285.982 205.872<294.034 460.03> 563.71 155.472<397.93 459.083> 788.6 167.4<242.459 487.136>
LayerCount: 2
Fore
SplineSet
491.854492188 429.41015625 m 4
 491.854492188 399.74915398 499.40402871 395.209960938 527.181640625 395.209960938 c 4
 548.654997053 395.209960938 563.709960938 405.697014034 563.709960938 429.41015625 c 4
 563.709960938 452.571123716 548.654997053 462.793945312 527.181640625 462.793945312 c 4
 499.40402871 462.793945312 491.854492188 458.395200314 491.854492188 429.41015625 c 4
719.181640625 421.201171875 m 0
 719.181640625 337.681379926 670.488830167 288.958007812 588.224609375 288.958007812 c 0
 558.866499657 288.958007812 549.209964892 290.203125 532.966796875 290.203125 c 0
 512.025992371 290.203125 502.934570312 284.170703812 502.934570312 261.17578125 c 0
 502.934570312 250.845382959 503.860351562 246.211050246 503.860351562 228.600585938 c 0
 503.860351562 169.251352985 477.060328664 139.801757812 408.982421875 139.801757812 c 0
 300.540800996 139.801757812 285.982421875 235.17425024 285.982421875 382.202148438 c 0
 285.982421875 507.728242187 304.685702034 589.202148438 506.782226562 589.202148438 c 0
 664.413220676 589.202148438 719.181640625 521.899918809 719.181640625 421.201171875 c 0
207.400390625 364.8515625 m 0
 207.400390625 183.838867188 318.857421875 66.3515625 498 66.3515625 c 0
 677.142578125 66.3515625 788.599609375 183.838867188 788.599609375 364.8515625 c 0
 788.599609375 545.482421875 677.142578125 662.65234375 498 662.65234375 c 0
 318.857421875 662.65234375 207.400390625 545.482421875 207.400390625 364.8515625 c 0
40 365.001953125 m 0
 40 640.375976562 215.662109375 819.001953125 498 819.001953125 c 0
 780.337890625 819.001953125 956 640.375976562 956 365.001953125 c 0
 956 89.0869140625 780.337890625 -89.998046875 498 -89.998046875 c 0
 215.662109375 -89.998046875 40 89.0869140625 40 365.001953125 c 0
EndSplineSet
EndChar

StartChar: guillemotleft
Encoding: 171 171 124
Width: 810
Flags: W
VStem: 42.6328 238.623<305.83 418.02> 412.633 238.623<305.83 418.02>
LayerCount: 2
Fore
SplineSet
767.3671875 167.766601562 m 4
 767.3671875 119.33984375 731.488025782 80.12890625 669.9765625 80.12890625 c 4
 569.690609228 80.12890625 412.6328125 232.099917304 412.6328125 361.627929688 c 4
 412.6328125 495.208470347 567.567370242 647.791015625 670.860351562 647.791015625 c 4
 732.11842154 647.791015625 766.759765625 608.959960938 766.759765625 559.931640625 c 4
 766.759765625 450.889499019 651.255859375 448.468239637 651.255859375 363.817382812 c 4
 651.255859375 268.437147692 767.3671875 276.135237992 767.3671875 167.766601562 c 4
397.3671875 167.766601562 m 0
 397.3671875 119.33984375 361.488025782 80.12890625 299.9765625 80.12890625 c 0
 199.690609228 80.12890625 42.6328125 232.099917304 42.6328125 361.627929688 c 0
 42.6328125 495.208470348 197.567370242 647.791015625 300.860351562 647.791015625 c 0
 362.11842154 647.791015625 396.759765625 608.959960938 396.759765625 559.931640625 c 0
 396.759765625 450.889499019 281.255859375 448.468239637 281.255859375 363.817382812 c 0
 281.255859375 268.437147692 397.3671875 276.135237992 397.3671875 167.766601562 c 0
EndSplineSet
EndChar

StartChar: guillemotright
Encoding: 187 187 125
Width: 810
Flags: W
VStem: 158.744 238.623<309.9 422.09> 528.744 238.623<309.9 422.09>
LayerCount: 2
Fore
SplineSet
42.6328125 560.153320312 m 4
 42.6328125 608.580078125 78.51171875 647.791015625 140.0234375 647.791015625 c 4
 240.309570312 647.791015625 397.3671875 495.8203125 397.3671875 366.291992188 c 4
 397.3671875 232.711914062 242.432617188 80.12890625 139.139648438 80.12890625 c 4
 77.8818359375 80.12890625 43.240234375 118.959960938 43.240234375 167.98828125 c 4
 43.240234375 277.030273438 158.744140625 279.452148438 158.744140625 364.102539062 c 4
 158.744140625 459.482421875 42.6328125 451.78515625 42.6328125 560.153320312 c 4
412.6328125 560.153320312 m 0
 412.6328125 608.580078125 448.51171875 647.791015625 510.0234375 647.791015625 c 0
 610.309570312 647.791015625 767.3671875 495.8203125 767.3671875 366.291992188 c 0
 767.3671875 232.711914062 612.432617188 80.12890625 509.139648438 80.12890625 c 0
 447.881835938 80.12890625 413.240234375 118.959960938 413.240234375 167.98828125 c 0
 413.240234375 277.030273438 528.744140625 279.452148438 528.744140625 364.102539062 c 0
 528.744140625 459.482421875 412.6328125 451.78515625 412.6328125 560.153320312 c 0
EndSplineSet
EndChar

StartChar: uni00AD
Encoding: 173 173 126
Width: 470
Flags: W
HStem: 273.67 180.284<69.5899 400.469>
VStem: 40 390.059<302.236 426.083>
LayerCount: 2
Fore
SplineSet
235.009765625 273.669921875 m 4
 196.614257812 273.669921875 167.694335938 273.594726562 139.912109375 273.594726562 c 4
 76.8115234375 273.594726562 40 307.271484375 40 365 c 4
 40 421.232421875 76.65234375 453.91015625 139.724609375 453.91015625 c 4
 167.579101562 453.91015625 193.357421875 453.954101562 235.029296875 453.954101562 c 4
 276.701171875 453.954101562 302.479492188 453.91015625 330.333984375 453.91015625 c 4
 393.40625 453.91015625 430.05859375 421.232421875 430.05859375 365 c 4
 430.05859375 307.271484375 393.247070312 273.594726562 330.146484375 273.594726562 c 4
 302.364257812 273.594726562 273.444335938 273.669921875 235.009765625 273.669921875 c 4
EndSplineSet
EndChar

StartChar: logicalnot
Encoding: 172 172 127
Width: 550
Flags: W
HStem: 273.67 180.284<69.5899 332.029>
VStem: 40 470.059<305.742 408.322>
LayerCount: 2
Fore
SplineSet
235.009765625 273.669921875 m 0
 196.614257812 273.669921875 167.694335938 273.594726562 139.912109375 273.594726562 c 0
 76.8115234375 273.594726562 40 307.271484375 40 365 c 0
 40 421.232421875 76.65234375 453.91015625 139.724609375 453.91015625 c 0
 167.579101562 453.91015625 193.357421875 453.954101562 235.029296875 453.954101562 c 0
 294.191130068 453.954101562 330.788779835 453.91015625 370.333984375 453.91015625 c 0
 458.704826157 453.91015625 510.05859375 421.232421875 510.05859375 326 c 0
 510.05859375 215 480.615851467 151 430.146484375 151 c 0
 329.705587153 151 418 273.669921875 235.009765625 273.669921875 c 0
EndSplineSet
EndChar

StartChar: macron
Encoding: 175 175 128
Width: 470
Flags: W
HStem: 550.768 180.284<69.5899 400.469>
VStem: 40 390.059<579.334 703.181>
LayerCount: 2
Fore
SplineSet
235.009765625 550.767578125 m 0
 196.614257812 550.767578125 167.694335938 550.692382812 139.912109375 550.692382812 c 0
 76.8115234375 550.692382812 40 584.369140625 40 642.09765625 c 0
 40 698.330078125 76.65234375 731.0078125 139.724609375 731.0078125 c 0
 167.579101562 731.0078125 193.357421875 731.051757812 235.029296875 731.051757812 c 0
 276.701171875 731.051757812 302.479492188 731.0078125 330.333984375 731.0078125 c 0
 393.40625 731.0078125 430.05859375 698.330078125 430.05859375 642.09765625 c 0
 430.05859375 584.369140625 393.247070312 550.692382812 330.146484375 550.692382812 c 0
 302.364257812 550.692382812 273.444335938 550.767578125 235.009765625 550.767578125 c 0
EndSplineSet
EndChar

StartChar: degree
Encoding: 176 176 129
Width: 428
Flags: W
HStem: -9.99805 239<79.7963 236.204>
VStem: 40 236<29.5814 189.112>
LayerCount: 2
Fore
SplineSet
155.432617188 569.294921875 m 4
 155.432617188 527.248688761 177.89559981 510.330078125 214 510.330078125 c 4
 250.105002201 510.330078125 272.568359375 527.248688761 272.568359375 569.294921875 c 4
 272.568359375 611.647932654 250.105002201 628.654296875 214 628.654296875 c 4
 177.89559981 628.654296875 155.432617188 611.647932654 155.432617188 569.294921875 c 4
40 568.9921875 m 0
 40 690.287464488 106.736104443 738.9921875 214 738.9921875 c 0
 321.263895556 738.9921875 388 690.287464488 388 568.9921875 c 0
 388 448.482864583 321.263895556 399.9921875 214 399.9921875 c 0
 106.736104443 399.9921875 40 448.482864583 40 568.9921875 c 0
EndSplineSet
EndChar

StartChar: plusminus
Encoding: 177 177 130
Width: 550
Flags: W
HStem: 83.5947 180.315<69.5899 184.894 365.209 480.469> 153.745 110.209<217.571 331.532> 323.67 180.284<69.5899 480.469>
VStem: 184.85 180.284<190.557 604.214>
LayerCount: 2
Fore
SplineSet
275.009765625 83.669921875 m 0xb0
 236.614257812 83.669921875 167.694335938 83.5947265625 139.912109375 83.5947265625 c 0
 76.8115234375 83.5947265625 40 117.271484375 40 175 c 0
 40 231.232421875 76.65234375 263.91015625 139.724609375 263.91015625 c 0xb0
 167.579101562 263.91015625 233.357421875 263.954101562 275.029296875 263.954101562 c 0x70
 316.701171875 263.954101562 382.479492188 263.91015625 410.333984375 263.91015625 c 0
 473.40625 263.91015625 510.05859375 231.232421875 510.05859375 175 c 0
 510.05859375 117.271484375 473.247070312 83.5947265625 410.146484375 83.5947265625 c 0
 382.364257812 83.5947265625 313.444335938 83.669921875 275.009765625 83.669921875 c 0xb0
365.133789062 393.754882812 m 0
 365.133789062 355.359375 365.208984375 281.439453125 365.208984375 253.657226562 c 0
 365.208984375 190.556640625 331.532226562 153.745117188 273.803710938 153.745117188 c 0x70
 217.571289062 153.745117188 184.893554688 190.397460938 184.893554688 253.469726562 c 0
 184.893554688 281.32421875 184.849609375 352.102539062 184.849609375 393.774414062 c 0
 184.849609375 435.446289062 184.893554688 506.224609375 184.893554688 534.079101562 c 0
 184.893554688 597.151367188 217.571289062 633.803710938 273.803710938 633.803710938 c 0
 331.532226562 633.803710938 365.208984375 596.9921875 365.208984375 533.891601562 c 0
 365.208984375 506.109375 365.133789062 432.189453125 365.133789062 393.754882812 c 0
275.009765625 323.669921875 m 4
 236.614257812 323.669921875 167.694335938 323.594726562 139.912109375 323.594726562 c 4
 76.8115234375 323.594726562 40 357.271484375 40 415 c 4
 40 471.232421875 76.65234375 503.91015625 139.724609375 503.91015625 c 4
 167.579101562 503.91015625 233.357421875 503.954101562 275.029296875 503.954101562 c 4
 316.701171875 503.954101562 382.479492188 503.91015625 410.333984375 503.91015625 c 4
 473.40625 503.91015625 510.05859375 471.232421875 510.05859375 415 c 4
 510.05859375 357.271484375 473.247070312 323.594726562 410.146484375 323.594726562 c 4
 382.364257812 323.594726562 313.444335938 323.669921875 275.009765625 323.669921875 c 4
EndSplineSet
EndChar

StartChar: acute
Encoding: 180 180 131
Width: 298
Flags: W
HStem: 444.134 294.858<99.1588 145.791>
VStem: 40 218<578.856 670.36>
LayerCount: 2
Fore
SplineSet
258 648.657226562 m 4
 258 569.133789062 149.022460938 444.133789062 101 444.133789062 c 4
 61.4365234375 444.133789062 40 499.133789062 40 579.133789062 c 0
 40 657.133789062 84.9404296875 738.9921875 157.627929688 738.9921875 c 4
 217.573242188 738.9921875 258 697.719726562 258 648.657226562 c 4
EndSplineSet
EndChar

StartChar: currency.ss01
Encoding: 65556 -1 132
Width: 586
Flags: W
HStem: 188.915 130.761<255.938 330.913> 427.325 130.76<255.938 330.913>
VStem: 103.94 137.147<326.967 419.617> 345.763 137.148<326.967 419.617>
LayerCount: 2
Fore
SplineSet
241.087890625 373.340820312 m 0
 241.087890625 335.073615542 261.161722501 319.67578125 293.42578125 319.67578125 c 0
 325.689237991 319.67578125 345.762695312 335.073615542 345.762695312 373.340820312 c 0
 345.762695312 411.858861104 325.689237991 427.325195312 293.42578125 427.325195312 c 0
 261.161722501 427.325195312 241.087890625 411.858861104 241.087890625 373.340820312 c 0
255.083984375 505.411132812 m 1
 146.0703125 434.698242188 l 1
 146.0703125 434.698242188 40 536.8203125 40 584.962890625 c 0
 40 629.237304688 78.302734375 660.094726562 116.60546875 660.094726562 c 0
 195.752929688 660.094726562 255.083984375 505.411132812 255.083984375 505.411132812 c 1
331.767578125 505.411132812 m 1
 331.767578125 505.411132812 391.098632812 660.094726562 470.24609375 660.094726562 c 0
 508.548828125 660.094726562 546.8515625 629.237304688 546.8515625 584.962890625 c 0
 546.8515625 536.8203125 440.783203125 434.698242188 440.783203125 434.698242188 c 1
 331.767578125 505.411132812 l 1
255.083984375 241.588867188 m 1
 255.083984375 241.588867188 195.752929688 86.9052734375 116.60546875 86.9052734375 c 0
 78.302734375 86.9052734375 40 117.762695312 40 162.037109375 c 0
 40 210.1796875 146.0703125 312.301757812 146.0703125 312.301757812 c 1
 255.083984375 241.588867188 l 1
331.767578125 241.588867188 m 1
 440.783203125 312.301757812 l 1
 440.783203125 312.301757812 546.8515625 210.1796875 546.8515625 162.037109375 c 0
 546.8515625 117.762695312 508.548828125 86.9052734375 470.24609375 86.9052734375 c 0
 391.098632812 86.9052734375 331.767578125 241.588867188 331.767578125 241.588867188 c 1
103.940429688 372.955078125 m 0
 103.940429688 505.045898438 176.616210938 558.084960938 293.42578125 558.084960938 c 0
 410.235351562 558.084960938 482.911132812 505.045898438 482.911132812 372.955078125 c 0
 482.911132812 241.720703125 410.235351562 188.915039062 293.42578125 188.915039062 c 0
 176.616210938 188.915039062 103.940429688 241.720703125 103.940429688 372.955078125 c 0
EndSplineSet
EndChar

StartChar: mu
Encoding: 181 181 135
Width: 806
Flags: W
HStem: -153.994 742.996<130.615 315.257> -10 599.002<492.006 630.064>
VStem: 50 313.511<257.132 504.604> 442.489 313.511<258.091 488.255>
LayerCount: 2
Back
SplineSet
403 -10 m 4
 159.179430923 -10 50 133.609692023 50 355.001953125 c 4
 50 496.934734965 75.384828629 589.001953125 226 589.001953125 c 4
 329.207221399 589.001953125 365.318359375 535.444335938 365.318359375 442.504882812 c 4
 365.318359375 396.312733637 363.510742188 366.633555426 363.510742188 320.44140625 c 4
 363.510742188 272.978515625 371.706054688 250.366210938 402.94921875 250.366210938 c 4
 434.294921875 250.366210938 442.489257812 272.977539062 442.489257812 320.44140625 c 4
 442.489257812 366.633082519 440.681640625 396.313206544 440.681640625 442.504882812 c 4
 440.681640625 535.444335938 476.792778601 589.001953125 580 589.001953125 c 4
 730.615171371 589.001953125 756 496.934734965 756 355.001953125 c 4
 756 133.609692023 646.820569077 -10 403 -10 c 4
EndSplineSet
Fore
SplineSet
402.969726562 10.61328125 m 4x70
 377.357421875 10.61328125 369 1.1826171875 366.309570312 -30.7734375 c 0
 358.975585938 -117.84375 329.153576273 -153.994140625 232 -153.994140625 c 0
 76.962962963 -153.994140625 50 -92 50 355.001953125 c 0
 50 496.934734965 75.384828629 589.001953125 226 589.001953125 c 0xb0
 329.207221399 589.001953125 365.318359375 535.444335938 365.318359375 442.504882812 c 0
 365.318359375 396.312733637 363.510742188 366.633555426 363.510742188 320.44140625 c 0
 363.510742188 272.978515625 371.706054688 250.366210938 402.94921875 250.366210938 c 0
 434.294921875 250.366210938 442.489257812 272.977539062 442.489257812 320.44140625 c 0
 442.489257812 366.633082519 440.681640625 396.313206544 440.681640625 442.504882812 c 0
 440.681640625 535.444335938 476.792778601 589.001953125 580 589.001953125 c 0
 730.615171371 589.001953125 756 485.130859375 756 295.001953125 c 0
 756 91.806640625 668.470703125 -10 533 -10 c 0
 454 -10 438.369140625 10.61328125 402.969726562 10.61328125 c 4x70
EndSplineSet
EndChar

StartChar: cedilla
Encoding: 184 184 137
Width: 389
Flags: W
HStem: -299.788 124.422<138.833 246.98>
VStem: 204.551 144.949<-223.074 -105.372>
LayerCount: 2
Fore
SplineSet
223.25 -54 m 0
 185.740234375 -54 176.25 -70.537109375 176.25 -85 c 0
 176.25 -112.538085938 204.55078125 -113.463867188 204.55078125 -152 c 0
 204.55078125 -165.540039062 196.466796875 -175.366210938 177.859375 -175.366210938 c 0
 135.213867188 -175.366210938 144.731445312 -133.36328125 94.5 -133.36328125 c 0
 69.8544921875 -133.36328125 40 -145.020507812 40 -188.7890625 c 0
 40 -248.712890625 84.6591796875 -299.788085938 202.5 -299.788085938 c 0
 289.462890625 -299.788085938 349.5 -266.361328125 349.5 -179.787109375 c 0
 349.5 -90.505859375 284.998046875 -54 223.25 -54 c 0
EndSplineSet
EndChar

StartChar: zero.superior
Encoding: 8304 8304 138
Width: 505
VWidth: 885
Flags: W
HStem: 279.802 449.4<146.072 359.528>
VStem: 50 405.6<381.523 627.795>
LayerCount: 2
Fore
SplineSet
50 504.801757812 m 0
 50 664.912109375 127.782226562 729.202148438 252.799804688 729.202148438 c 0
 377.817382812 729.202148438 455.599609375 664.912109375 455.599609375 504.801757812 c 0
 455.599609375 344.360351562 377.817382812 279.801757812 252.799804688 279.801757812 c 0
 127.782226562 279.801757812 50 344.360351562 50 504.801757812 c 0
EndSplineSet
EndChar

StartChar: one.superior
Encoding: 185 185 139
Width: 372
VWidth: 885
Flags: W
HStem: 279.802 449.4<143.339 271.88>
VStem: 112.4 210<331.248 559.934>
LayerCount: 2
Fore
SplineSet
112.400390625 400.403320312 m 0
 112.400390625 453.31640625 116 492.981445312 116 534.203125 c 0
 116 583.818359375 50 547.500976562 50 617.603515625 c 0
 50 679.803710938 115.743164062 729.202148438 197.600585938 729.202148438 c 4
 299.491210938 729.202148438 322.400390625 664.643554688 322.400390625 504.202148438 c 0
 322.400390625 368.091796875 313.048828125 279.801757812 212 279.801757812 c 0
 120.836914062 279.801757812 112.400390625 340.786132812 112.400390625 400.403320312 c 0
EndSplineSet
EndChar

StartChar: two.superior
Encoding: 178 178 140
Width: 479
VWidth: 885
Flags: W
HStem: 279.801 149.306<298.947 392.492> 579.896 149.306<172.662 297.178>
VStem: 51.8008 378<312.076 421.069> 235.461 185.939<531.713 646.146> 235.461 63.4785<444.801 555.801>
LayerCount: 2
Fore
SplineSet
421.400390625 603.203125 m 0xd0
 421.400390625 485.999023438 298.939453125 489.194335938 298.939453125 444.80078125 c 0xc8
 298.939453125 431.163085938 309.48828125 429.106445312 320.76953125 429.106445312 c 0
 336.431640625 429.106445312 353.974609375 432.109375 370.943359375 432.109375 c 0
 401.620117188 432.109375 429.80078125 423.365234375 429.80078125 363.798828125 c 0
 429.80078125 299.018554688 374.559570312 279.80078125 228.80078125 279.80078125 c 0
 100.4453125 279.80078125 51.80078125 291.677734375 51.80078125 381.80078125 c 0xe0
 51.80078125 487.436523438 235.4609375 496.979492188 235.4609375 555.80078125 c 4
 235.4609375 572.0234375 227.577148438 579.895507812 209.430664062 579.895507812 c 4
 166.965820312 579.895507812 172.0625 529.4921875 115.400390625 529.4921875 c 4
 85.826171875 529.4921875 50 543.48046875 50 596.002929688 c 0
 50 667.911132812 103.591796875 729.201171875 245 729.201171875 c 0
 349.35546875 729.201171875 421.400390625 689.088867188 421.400390625 603.203125 c 0xd0
EndSplineSet
EndChar

StartChar: three.superior
Encoding: 179 179 141
Width: 475
VWidth: 883
Flags: W
HStem: 271.802 130.937<67.8774 201.535> 577.896 149.307<90.2227 174.857>
VStem: 51.8008 366<596.722 694.068>
LayerCount: 2
Fore
SplineSet
417.80078125 651.000976562 m 4
 417.80078125 589.5859375 348.739257812 567.005859375 348.739257812 539.983398438 c 4
 348.739257812 517.313476562 425.600585938 512.776367188 425.600585938 425.400390625 c 4
 425.600585938 323.736328125 328.515625 271.801757812 144.200195312 271.801757812 c 4
 86.3154296875 271.801757812 50 290.15625 50 337.831054688 c 4
 50 392.924804688 94.7294921875 397.928710938 140.599609375 402.73828125 c 4
 192.829101562 408.213867188 214.400390625 418.202148438 214.400390625 441.000976562 c 4
 214.400390625 458.77734375 206.784179688 469.80078125 169.400390625 469.80078125 c 4
 140.364257812 469.80078125 125.600585938 473.194335938 125.600585938 493.799804688 c 4
 125.600585938 526.877929688 174.861328125 549.265625 174.861328125 567.000976562 c 4
 174.861328125 575.83984375 169.28125 577.895507812 160.831054688 577.895507812 c 4
 145.168945312 577.895507812 127.626953125 574.892578125 110.658203125 574.892578125 c 4
 79.9814453125 574.892578125 51.80078125 583.637695312 51.80078125 643.203125 c 4
 51.80078125 707.983398438 108.689453125 727.202148438 258.80078125 727.202148438 c 4
 374.103515625 727.202148438 417.80078125 708.307617188 417.80078125 651.000976562 c 4
EndSplineSet
EndChar

StartChar: four.superior
Encoding: 8308 8308 142
Width: 527
VWidth: 885
Flags: W
LayerCount: 2
Fore
SplineSet
403.944335938 638.000976562 m 0
 403.944335938 606.060546875 401.534179688 586.815429688 401.534179688 553.208984375 c 0
 401.534179688 533.850585938 402.258789062 527.923828125 424.0234375 524.7109375 c 0
 458.8203125 519.57421875 477.19921875 503.774414062 477.19921875 456.80078125 c 0
 477.19921875 412.080078125 458.268554688 392.147460938 427.590820312 388.818359375 c 0
 411.395507812 387.060546875 402.897460938 385.39453125 401.54296875 363.583007812 c 0
 398.377929688 312.5859375 381.83203125 279.801757812 318.799804688 279.801757812 c 0
 256.598632812 279.801757812 236.913085938 308.600585938 232.399414062 368.600585938 c 0
 231.471679688 380.938476562 227.255859375 384.694335938 214.399414062 385.051757812 c 4
 65.404296875 389.1953125 50 427.672851562 50 474.801757812 c 0
 50 575.783203125 191.685546875 729.202148438 324.799804688 729.202148438 c 0
 389.958984375 729.202148438 403.944335938 700.447265625 403.944335938 638.000976562 c 0
EndSplineSet
EndChar

StartChar: five.superior
Encoding: 8309 8309 143
Width: 475
VWidth: 886
Flags: W
HStem: 274.802 130.937<67.8774 201.535> 604.2 135<264.634 393.338>
VStem: 56 208.135<515.701 602.725>
LayerCount: 2
Fore
SplineSet
264.134765625 582 m 0
 264.134765625 563.002929688 271.408203125 562.122070312 304.400390625 556.80078125 c 0
 378.799804688 544.80078125 425.600585938 514.470703125 425.600585938 434.400390625 c 0
 425.600585938 326.736328125 328.515625 274.801757812 144.200195312 274.801757812 c 0
 86.3154296875 274.801757812 50 293.155273438 50 340.831054688 c 0
 50 395.924804688 94.7294921875 400.928710938 140.599609375 405.73828125 c 0
 192.829101562 411.213867188 214.400390625 421.202148438 214.400390625 444 c 0
 214.400390625 461.77734375 206.711914062 470.46875 169.400390625 472.80078125 c 0
 73.400390625 478.80078125 56 486.600585938 56 544.80078125 c 0
 56 614.56640625 59.599609375 684 93.2001953125 705 c 0
 119.352539062 721.345703125 137.599609375 725.405273438 234.200195312 725.405273438 c 0
 305.189453125 725.405273438 335.4453125 739.200195312 362 739.200195312 c 0
 398.599609375 739.200195312 417.200195312 713.180664062 417.200195312 675.600585938 c 0
 417.200195312 630.202148438 388.670898438 608.66015625 300.799804688 604.200195312 c 4
 273.12890625 602.795898438 264.134765625 600 264.134765625 582 c 0
EndSplineSet
EndChar

StartChar: six.superior
Encoding: 8310 8310 144
Width: 493
VWidth: 885
Flags: W
HStem: 279.802 267.062<244.489 366.644> 602.601 126.602<252.338 387.438>
VStem: 50 194.481<411.497 587.637>
LayerCount: 2
Fore
SplineSet
244.481445312 564.201171875 m 0
 244.481445312 550.235351562 254.65625 546.864257812 270.333007812 546.864257812 c 0
 283.3515625 546.864257812 296.375976562 549.80078125 318.799804688 549.80078125 c 0
 381.579101562 549.80078125 443.599609375 519.80078125 443.599609375 420.801757812 c 0
 443.599609375 335.298828125 386.612304688 279.801757812 246.799804688 279.801757812 c 0
 106.987304688 279.801757812 50 354.19140625 50 468.801757812 c 4
 50 626.747070312 146.192382812 729.202148438 300.799804688 729.202148438 c 0
 380.509765625 729.202148438 411.051757812 699.80078125 411.051757812 659.000976562 c 0
 411.051757812 621.48046875 381.295898438 607.30078125 336.799804688 602.600585938 c 0
 262.133789062 594.713867188 244.481445312 582.80078125 244.481445312 564.201171875 c 0
EndSplineSet
EndChar

StartChar: seven.superior
Encoding: 8311 8311 145
Width: 472
VWidth: 885
Flags: W
HStem: 585.896 143.307<99.3232 316.827>
VStem: 221.061 200.939<541.898 677.593>
LayerCount: 2
Fore
SplineSet
257 729.202148438 m 4
 376.653320312 729.202148438 422 709.983398438 422 645.203125 c 4
 422 534.201171875 297.2890625 279.801757812 179 279.801757812 c 4
 125.78125 279.801757812 96.94921875 308.897460938 96.94921875 345.80078125 c 4
 96.94921875 420.260742188 221.060546875 499.66015625 221.060546875 564.201171875 c 4
 221.060546875 582.553710938 208.482421875 585.895507812 195.030273438 585.895507812 c 4
 168.130859375 585.895507812 138.000976562 576.892578125 108.857421875 576.892578125 c 4
 78.1806640625 576.892578125 50 585.637695312 50 645.203125 c 4
 50 709.983398438 106.889648438 729.202148438 257 729.202148438 c 4
EndSplineSet
EndChar

StartChar: eight.superior
Encoding: 8312 8312 146
Width: 479
VWidth: 885
Flags: W
HStem: 279.802 449.4<130.533 348.842>
VStem: 50 379.801<339.286 468.171> 59 361.801<537.805 668.519>
LayerCount: 2
Fore
SplineSet
239 279.801757812 m 4xc0
 131.588867188 279.801757812 50 316.814453125 50 404.040039062 c 4xc0
 50 472.086914062 102.200195312 488.043945312 102.200195312 508.40234375 c 4
 102.200195312 527.108398438 59 538.103515625 59 598.400390625 c 4
 59 688.177734375 137.796875 729.202148438 239 729.202148438 c 4
 341.891601562 729.202148438 420.80078125 688.177734375 420.80078125 598.400390625 c 4xa0
 420.80078125 538.103515625 377.600585938 527.108398438 377.600585938 508.40234375 c 4
 377.600585938 488.043945312 429.80078125 472.086914062 429.80078125 404.040039062 c 4
 429.80078125 316.814453125 348.106445312 279.801757812 239 279.801757812 c 4xc0
EndSplineSet
EndChar

StartChar: uni2080
Encoding: 8320 8320 148
Width: 505
VWidth: 525
Flags: W
HStem: -80.1982 449.4<146.072 359.528>
VStem: 50 405.6<21.5227 267.795>
LayerCount: 2
Fore
SplineSet
50 144.801757812 m 0
 50 304.912109375 127.782226562 369.202148438 252.799804688 369.202148438 c 0
 377.817382812 369.202148438 455.599609375 304.912109375 455.599609375 144.801757812 c 0
 455.599609375 -15.6396484375 377.817382812 -80.1982421875 252.799804688 -80.1982421875 c 0
 127.782226562 -80.1982421875 50 -15.6396484375 50 144.801757812 c 0
EndSplineSet
EndChar

StartChar: uni2081
Encoding: 8321 8321 149
Width: 372
VWidth: 525
Flags: W
HStem: -80.1982 449.4<143.339 271.88>
VStem: 112.4 210<-28.7516 199.934>
LayerCount: 2
Fore
SplineSet
112.400390625 40.4033203125 m 0
 112.400390625 93.31640625 116 132.981445312 116 174.203125 c 0
 116 223.818359375 50 187.500976562 50 257.603515625 c 0
 50 319.803710938 115.743164062 369.202148438 197.600585938 369.202148438 c 4
 299.491210938 369.202148438 322.400390625 304.643554688 322.400390625 144.202148438 c 0
 322.400390625 8.091796875 313.048828125 -80.1982421875 212 -80.1982421875 c 0
 120.836914062 -80.1982421875 112.400390625 -19.2138671875 112.400390625 40.4033203125 c 0
EndSplineSet
EndChar

StartChar: uni2082
Encoding: 8322 8322 150
Width: 479
VWidth: 525
Flags: W
HStem: -80.1992 149.306<298.947 392.492> 219.896 149.306<172.662 297.178>
VStem: 51.8008 378<-47.9244 61.0693> 235.461 185.939<171.713 286.146> 235.461 63.4785<84.8008 195.801>
LayerCount: 2
Fore
SplineSet
421.400390625 243.203125 m 0xd0
 421.400390625 125.999023438 298.939453125 129.194335938 298.939453125 84.80078125 c 0xc8
 298.939453125 71.1630859375 309.48828125 69.1064453125 320.76953125 69.1064453125 c 0
 336.431640625 69.1064453125 353.974609375 72.109375 370.943359375 72.109375 c 0
 401.620117188 72.109375 429.80078125 63.365234375 429.80078125 3.798828125 c 0
 429.80078125 -60.9814453125 374.559570312 -80.19921875 228.80078125 -80.19921875 c 0
 100.4453125 -80.19921875 51.80078125 -68.322265625 51.80078125 21.80078125 c 0xe0
 51.80078125 127.436523438 235.4609375 136.979492188 235.4609375 195.80078125 c 4
 235.4609375 212.0234375 227.577148438 219.895507812 209.430664062 219.895507812 c 4
 166.965820312 219.895507812 172.0625 169.4921875 115.400390625 169.4921875 c 4
 85.826171875 169.4921875 50 183.48046875 50 236.002929688 c 0
 50 307.911132812 103.591796875 369.201171875 245 369.201171875 c 0
 349.35546875 369.201171875 421.400390625 329.088867188 421.400390625 243.203125 c 0xd0
EndSplineSet
EndChar

StartChar: uni2083
Encoding: 8323 8323 151
Width: 475
VWidth: 523
Flags: W
HStem: -88.1982 130.937<67.8774 201.535> 217.896 149.307<90.2227 174.857>
VStem: 51.8008 366<236.722 334.068>
LayerCount: 2
Fore
SplineSet
417.80078125 291.000976562 m 4
 417.80078125 229.5859375 348.739257812 207.005859375 348.739257812 179.983398438 c 4
 348.739257812 157.313476562 425.600585938 152.776367188 425.600585938 65.400390625 c 4
 425.600585938 -36.263671875 328.515625 -88.1982421875 144.200195312 -88.1982421875 c 4
 86.3154296875 -88.1982421875 50 -69.84375 50 -22.1689453125 c 4
 50 32.9248046875 94.7294921875 37.9287109375 140.599609375 42.73828125 c 4
 192.829101562 48.2138671875 214.400390625 58.2021484375 214.400390625 81.0009765625 c 4
 214.400390625 98.77734375 206.784179688 109.80078125 169.400390625 109.80078125 c 4
 140.364257812 109.80078125 125.600585938 113.194335938 125.600585938 133.799804688 c 4
 125.600585938 166.877929688 174.861328125 189.265625 174.861328125 207.000976562 c 4
 174.861328125 215.83984375 169.28125 217.895507812 160.831054688 217.895507812 c 4
 145.168945312 217.895507812 127.626953125 214.892578125 110.658203125 214.892578125 c 4
 79.9814453125 214.892578125 51.80078125 223.637695312 51.80078125 283.203125 c 4
 51.80078125 347.983398438 108.689453125 367.202148438 258.80078125 367.202148438 c 4
 374.103515625 367.202148438 417.80078125 348.307617188 417.80078125 291.000976562 c 4
EndSplineSet
EndChar

StartChar: uni2084
Encoding: 8324 8324 152
Width: 527
VWidth: 525
Flags: W
LayerCount: 2
Fore
SplineSet
403.944335938 278.000976562 m 0
 403.944335938 246.060546875 401.534179688 226.815429688 401.534179688 193.208984375 c 0
 401.534179688 173.850585938 402.258789062 167.923828125 424.0234375 164.7109375 c 0
 458.8203125 159.57421875 477.19921875 143.774414062 477.19921875 96.80078125 c 0
 477.19921875 52.080078125 458.268554688 32.1474609375 427.590820312 28.818359375 c 0
 411.395507812 27.060546875 402.897460938 25.39453125 401.54296875 3.5830078125 c 0
 398.377929688 -47.4140625 381.83203125 -80.1982421875 318.799804688 -80.1982421875 c 0
 256.598632812 -80.1982421875 236.913085938 -51.3994140625 232.399414062 8.6005859375 c 0
 231.471679688 20.9384765625 227.255859375 24.6943359375 214.399414062 25.0517578125 c 4
 65.404296875 29.1953125 50 67.6728515625 50 114.801757812 c 0
 50 215.783203125 191.685546875 369.202148438 324.799804688 369.202148438 c 0
 389.958984375 369.202148438 403.944335938 340.447265625 403.944335938 278.000976562 c 0
EndSplineSet
EndChar

StartChar: uni2085
Encoding: 8325 8325 153
Width: 475
VWidth: 526
Flags: W
HStem: -85.1982 130.937<67.8774 201.535> 244.2 135<264.634 393.338>
VStem: 56 208.135<155.701 242.725>
LayerCount: 2
Fore
SplineSet
264.134765625 222 m 0
 264.134765625 203.002929688 271.408203125 202.122070312 304.400390625 196.80078125 c 0
 378.799804688 184.80078125 425.600585938 154.470703125 425.600585938 74.400390625 c 0
 425.600585938 -33.263671875 328.515625 -85.1982421875 144.200195312 -85.1982421875 c 0
 86.3154296875 -85.1982421875 50 -66.8447265625 50 -19.1689453125 c 0
 50 35.9248046875 94.7294921875 40.9287109375 140.599609375 45.73828125 c 0
 192.829101562 51.2138671875 214.400390625 61.2021484375 214.400390625 84 c 0
 214.400390625 101.77734375 206.711914062 110.46875 169.400390625 112.80078125 c 0
 73.400390625 118.80078125 56 126.600585938 56 184.80078125 c 0
 56 254.56640625 59.599609375 324 93.2001953125 345 c 0
 119.352539062 361.345703125 137.599609375 365.405273438 234.200195312 365.405273438 c 0
 305.189453125 365.405273438 335.4453125 379.200195312 362 379.200195312 c 0
 398.599609375 379.200195312 417.200195312 353.180664062 417.200195312 315.600585938 c 0
 417.200195312 270.202148438 388.670898438 248.66015625 300.799804688 244.200195312 c 4
 273.12890625 242.795898438 264.134765625 240 264.134765625 222 c 0
EndSplineSet
EndChar

StartChar: uni2086
Encoding: 8326 8326 154
Width: 493
VWidth: 525
Flags: W
HStem: -80.1982 267.062<244.489 366.644> 242.601 126.602<252.338 387.438>
VStem: 50 194.481<51.4966 227.637>
LayerCount: 2
Fore
SplineSet
244.481445312 204.201171875 m 0
 244.481445312 190.235351562 254.65625 186.864257812 270.333007812 186.864257812 c 0
 283.3515625 186.864257812 296.375976562 189.80078125 318.799804688 189.80078125 c 0
 381.579101562 189.80078125 443.599609375 159.80078125 443.599609375 60.8017578125 c 0
 443.599609375 -24.701171875 386.612304688 -80.1982421875 246.799804688 -80.1982421875 c 0
 106.987304688 -80.1982421875 50 -5.80859375 50 108.801757812 c 4
 50 266.747070312 146.192382812 369.202148438 300.799804688 369.202148438 c 0
 380.509765625 369.202148438 411.051757812 339.80078125 411.051757812 299.000976562 c 0
 411.051757812 261.48046875 381.295898438 247.30078125 336.799804688 242.600585938 c 0
 262.133789062 234.713867188 244.481445312 222.80078125 244.481445312 204.201171875 c 0
EndSplineSet
EndChar

StartChar: uni2087
Encoding: 8327 8327 155
Width: 472
VWidth: 525
Flags: W
HStem: 225.896 143.307<99.3232 316.827>
VStem: 221.061 200.939<181.898 317.593>
LayerCount: 2
Fore
SplineSet
257 369.202148438 m 4
 376.653320312 369.202148438 422 349.983398438 422 285.203125 c 4
 422 174.201171875 297.2890625 -80.1982421875 179 -80.1982421875 c 4
 125.78125 -80.1982421875 96.94921875 -51.1025390625 96.94921875 -14.19921875 c 4
 96.94921875 60.2607421875 221.060546875 139.66015625 221.060546875 204.201171875 c 4
 221.060546875 222.553710938 208.482421875 225.895507812 195.030273438 225.895507812 c 4
 168.130859375 225.895507812 138.000976562 216.892578125 108.857421875 216.892578125 c 4
 78.1806640625 216.892578125 50 225.637695312 50 285.203125 c 4
 50 349.983398438 106.889648438 369.202148438 257 369.202148438 c 4
EndSplineSet
EndChar

StartChar: uni2088
Encoding: 8328 8328 156
Width: 479
VWidth: 525
Flags: W
HStem: -80.1982 449.4<130.533 348.842>
VStem: 50 379.801<-20.7141 108.171> 59 361.801<177.805 308.519>
LayerCount: 2
Fore
SplineSet
239 -80.1982421875 m 4xc0
 131.588867188 -80.1982421875 50 -43.185546875 50 44.0400390625 c 4xc0
 50 112.086914062 102.200195312 128.043945312 102.200195312 148.40234375 c 4
 102.200195312 167.108398438 59 178.103515625 59 238.400390625 c 4
 59 328.177734375 137.796875 369.202148438 239 369.202148438 c 4
 341.891601562 369.202148438 420.80078125 328.177734375 420.80078125 238.400390625 c 4xa0
 420.80078125 178.103515625 377.600585938 167.108398438 377.600585938 148.40234375 c 4
 377.600585938 128.043945312 429.80078125 112.086914062 429.80078125 44.0400390625 c 4
 429.80078125 -43.185546875 348.106445312 -80.1982421875 239 -80.1982421875 c 4xc0
EndSplineSet
EndChar

StartChar: currency
Encoding: 164 164 158
Width: 586
Flags: W
VStem: 103.94 378.971<317.086 434.191>
LayerCount: 2
Fore
SplineSet
255.083984375 505.411132812 m 1
 146.0703125 434.698242188 l 1
 146.0703125 434.698242188 40 536.8203125 40 584.962890625 c 0
 40 629.237304688 78.302734375 660.094726562 116.60546875 660.094726562 c 0
 195.752929688 660.094726562 255.083984375 505.411132812 255.083984375 505.411132812 c 1
331.767578125 505.411132812 m 1
 331.767578125 505.411132812 391.098632812 660.094726562 470.24609375 660.094726562 c 0
 508.548828125 660.094726562 546.8515625 629.237304688 546.8515625 584.962890625 c 0
 546.8515625 536.8203125 440.783203125 434.698242188 440.783203125 434.698242188 c 1
 331.767578125 505.411132812 l 1
255.083984375 241.588867188 m 1
 255.083984375 241.588867188 195.752929688 86.9052734375 116.60546875 86.9052734375 c 0
 78.302734375 86.9052734375 40 117.762695312 40 162.037109375 c 0
 40 210.1796875 146.0703125 312.301757812 146.0703125 312.301757812 c 1
 255.083984375 241.588867188 l 1
331.767578125 241.588867188 m 1
 440.783203125 312.301757812 l 1
 440.783203125 312.301757812 546.8515625 210.1796875 546.8515625 162.037109375 c 0
 546.8515625 117.762695312 508.548828125 86.9052734375 470.24609375 86.9052734375 c 0
 391.098632812 86.9052734375 331.767578125 241.588867188 331.767578125 241.588867188 c 1
103.940429688 372.955078125 m 0
 103.940429688 505.045898438 176.616210938 558.084960938 293.42578125 558.084960938 c 0
 410.235351562 558.084960938 482.911132812 505.045898438 482.911132812 372.955078125 c 0
 482.911132812 241.720703125 410.235351562 188.915039062 293.42578125 188.915039062 c 0
 176.616210938 188.915039062 103.940429688 241.720703125 103.940429688 372.955078125 c 0
EndSplineSet
Substitution2: "'ss01' Style Set 1 in Latin lookup 0-1" currency.ss01
EndChar

StartChar: .notdef
Encoding: 65557 -1 159
Width: 996
Flags: W
HStem: -89.998 156.35<381.214 614.786> 139.802 119.4<424.594 552.606> 439.896 149.307<427.011 551.496> 662.652 156.35<381.214 614.786>
VStem: 40 167.4<242.46 487.136> 411.8 153.601<152.738 246.145> 501.261 173.939<369.79 497.145> 788.6 167.4<242.46 487.136>
LayerCount: 2
Fore
SplineSet
411.799804688 199.202148438 m 0xfd
 411.799804688 242.012207031 441.255661981 259.202148438 488.599609375 259.202148438 c 0
 535.94415878 259.202148438 565.400390625 242.012207031 565.400390625 199.202148438 c 0
 565.400390625 156.845442636 535.94415878 139.801757812 488.599609375 139.801757812 c 0
 441.255661981 139.801757812 411.799804688 156.845442636 411.799804688 199.202148438 c 0xfd
470.599609375 289.801757812 m 0
 444.742384691 289.801757812 438.200195312 301.644211482 438.200195312 312.000976562 c 0
 438.200195312 349.732763976 501.260742188 355.823321411 501.260742188 403.80078125 c 0
 501.260742188 428.103847533 491.5595891 439.895507812 469.23046875 439.895507812 c 0
 418.055965186 439.895507812 429.47741247 389.493164062 369.200195312 389.493164062 c 0
 339.625205201 389.493164062 303.799804688 403.481126769 303.799804688 456.002929688 c 0
 303.799804688 527.91173432 357.391266325 589.202148438 498.799804688 589.202148438 c 0
 603.155478289 589.202148438 675.200195312 549.089507531 675.200195312 445.201171875 c 0xfb
 675.200195312 334.902011455 570.669054833 289.801757812 470.599609375 289.801757812 c 0
207.400390625 364.8515625 m 0
 207.400390625 183.839296875 318.857206041 66.3515625 498 66.3515625 c 0
 677.142793959 66.3515625 788.599609375 183.839296875 788.599609375 364.8515625 c 0
 788.599609375 545.482554206 677.142793959 662.65234375 498 662.65234375 c 0
 318.857206041 662.65234375 207.400390625 545.482554206 207.400390625 364.8515625 c 0
40 365.001953125 m 0
 40 640.375543115 215.661700201 819.001953125 498 819.001953125 c 0
 780.338299799 819.001953125 956 640.375543115 956 365.001953125 c 0
 956 89.087109375 780.338299799 -89.998046875 498 -89.998046875 c 0
 215.661700201 -89.998046875 40 89.087109375 40 365.001953125 c 0
EndSplineSet
EndChar

StartChar: ordfeminine
Encoding: 170 170 160
Width: 412
Flags: W
HStem: 439.492 147<63.4369 203.786> 619.152 119.84<83.5226 196.738>
VStem: 204.5 40.5<484.371 568.682>
LayerCount: 2
Back
SplineSet
-126.25 127.001953125 m 4
 -126.25 248.381835938 -34.27734375 284.001953125 78.75 284.001953125 c 4
 191.77734375 284.001953125 283.75 248.381835938 283.75 127.001953125 c 4
 283.75 21.0849609375 196.263671875 -9.998046875 88.75 -9.998046875 c 4
 -29.791015625 -9.998046875 -126.25 21.0849609375 -126.25 127.001953125 c 4
202.75 245.001953125 m 4
 202.75 313.439453125 177.103515625 349.322265625 110.75 349.322265625 c 4
 35.697265625 349.322265625 27.2333984375 328.512695312 -32.28515625 328.512695312 c 4
 -77.013671875 328.512695312 -123.002929688 369 -123.002929688 433.577148438 c 4
 -123.002929688 545.180664062 18.6796875 589.001953125 160.75 589.001953125 c 4
 393.771484375 589.001953125 538.75 476 538.75 225.001953125 c 4
 538.75 82.49609375 523.671875 -9.998046875 360.75 -9.998046875 c 4
 216.133789062 -9.998046875 202.75 79.7607421875 202.75 245.001953125 c 4
EndSplineSet
Fore
SplineSet
40 507.9921875 m 4
 40 568.681640625 85.986328125 586.4921875 142.5 586.4921875 c 4
 199.013671875 586.4921875 245 568.681640625 245 507.9921875 c 4
 245 455.033203125 201.256835938 439.4921875 147.5 439.4921875 c 4
 88.2294921875 439.4921875 40 455.033203125 40 507.9921875 c 4
204.5 566.9921875 m 4
 204.5 601.2109375 191.676757812 619.15234375 158.5 619.15234375 c 4
 120.973632812 619.15234375 116.7421875 608.748046875 86.982421875 608.748046875 c 4
 64.6181640625 608.748046875 41.623046875 628.991210938 41.623046875 661.279296875 c 4
 41.623046875 717.081054688 112.46484375 738.9921875 183.5 738.9921875 c 4
 300.010742188 738.9921875 372.5 682.491210938 372.5 556.9921875 c 4
 372.5 485.739257812 364.9609375 439.4921875 283.5 439.4921875 c 4
 211.19140625 439.4921875 204.5 484.37109375 204.5 566.9921875 c 4
EndSplineSet
EndChar

StartChar: ordmasculine
Encoding: 186 186 161
Width: 388
Flags: W
HStem: 439.492 299.5<106.623 281.377>
VStem: 40 308<505.27 673.879>
LayerCount: 2
Back
SplineSet
-114 291.001953125 m 4
 -114 471.75390625 4.130859375 589.001953125 194 589.001953125 c 4
 383.869140625 589.001953125 502 471.75390625 502 291.001953125 c 4
 502 108.473632812 383.869140625 -9.998046875 194 -9.998046875 c 4
 4.130859375 -9.998046875 -114 108.473632812 -114 291.001953125 c 4
EndSplineSet
Fore
SplineSet
40 589.9921875 m 4
 40 680.368164062 99.0654296875 738.9921875 194 738.9921875 c 4
 288.934570312 738.9921875 348 680.368164062 348 589.9921875 c 4
 348 498.728515625 288.934570312 439.4921875 194 439.4921875 c 4
 99.0654296875 439.4921875 40 498.728515625 40 589.9921875 c 4
EndSplineSet
EndChar

StartChar: paragraph
Encoding: 182 182 162
Width: 894
Flags: W
HStem: -9.99805 21G<384.619 468.061 679.524 763.978> -9.99805 21G<384.619 468.061 679.524 763.978> 530.67 208.332<296.666 605.131>
VStem: 30 508.555<341.528 525.056> 308.87 229.13<35.4835 237.169> 610.412 233.588<58.6754 528.2>
LayerCount: 2
Back
SplineSet
30 459 m 4xb0
 30 626.831054688 110.966984463 739.001953125 344 739.001953125 c 4
 525.228175951 739.001953125 542 685 542 274.001953125 c 4
 542 101.741965114 528.388671875 -9.998046875 427 -9.998046875 c 4
 342.238298197 -9.998046875 308.870117188 32.4520345106 308.870117188 118 c 4
 308.870117188 158.162903814 310.412109375 168.731807698 310.412109375 192.291015625 c 4
 310.412109375 230.616210938 295.259765625 240.669921875 260.359375 240.669921875 c 4
 245.04517868 240.669921875 235.940739262 238.594726562 208.26171875 238.594726562 c 4
 96.2814557117 238.594726562 30 319.80078125 30 459 c 4xb0
EndSplineSet
Fore
SplineSet
30 459 m 0xb4
 30 677 139.331214689 739.001953125 454 739.001953125 c 0
 760.068823181 739.001953125 844 738.9921875 844 522 c 0
 844 406 842 259.539721935 842 191 c 0
 842 60.5334649851 810.956200766 -9.998046875 717 -9.998046875 c 0
 642.047285649 -9.998046875 608.870117188 29.2752109278 608.870117188 118 c 0
 608.870117188 314.941513016 610.412109375 366.766847451 610.412109375 482.291015625 c 0
 610.412109375 520.616210938 595.259765625 530.669921875 573 530.669921875 c 0
 552.508578174 530.669921875 538.5546875 519 538.5546875 485 c 0xb4
 538.5546875 309 538 246.232227124 538 161 c 0
 538 40 509.122094622 -9.998046875 427 -9.998046875 c 0
 342.238298197 -9.998046875 308.870117188 32.4520345106 308.870117188 118 c 0xac
 308.870117188 158.162903814 310.412109375 168.731807698 310.412109375 192.291015625 c 0
 310.412109375 230.616210938 295.259765625 240.669921875 260.359375 240.669921875 c 0
 245.04517868 240.669921875 235.940739262 238.594726562 208.26171875 238.594726562 c 0
 96.2814557117 238.594726562 30 319.80078125 30 459 c 0xb4
EndSplineSet
EndChar
